<?xml version="1.0" encoding="UTF-8" standalone="no"?>
<!-- Created with Inkscape (http://www.inkscape.org/) -->

<svg
   xmlns:dc="http://purl.org/dc/elements/1.1/"
   xmlns:cc="http://creativecommons.org/ns#"
   xmlns:rdf="http://www.w3.org/1999/02/22-rdf-syntax-ns#"
   xmlns:svg="http://www.w3.org/2000/svg"
   xmlns="http://www.w3.org/2000/svg"
   xmlns:sodipodi="http://sodipodi.sourceforge.net/DTD/sodipodi-0.dtd"
   xmlns:inkscape="http://www.inkscape.org/namespaces/inkscape"
   width="210mm"
   height="297mm"
   viewBox="0 0 210 297"
   version="1.1"
   id="svg8"
   inkscape:version="0.92.3 (2405546, 2018-03-11)"
   sodipodi:docname="Wolv_LET.svg">
  <defs
     id="defs2" />
  <sodipodi:namedview
     id="base"
     pagecolor="#ffffff"
     bordercolor="#666666"
     borderopacity="1.0"
     inkscape:pageopacity="0.0"
     inkscape:pageshadow="2"
     inkscape:zoom="0.54447222"
     inkscape:cx="339.84611"
     inkscape:cy="483.78147"
     inkscape:document-units="mm"
     inkscape:current-layer="layer2"
     showgrid="false"
     inkscape:snap-others="true"
     inkscape:object-nodes="true"
     inkscape:snap-nodes="true"
     inkscape:snap-global="false"
     inkscape:window-width="962"
     inkscape:window-height="577"
     inkscape:window-x="-8"
     inkscape:window-y="-8"
     inkscape:window-maximized="1" />
  <metadata
     id="metadata5">
    <rdf:RDF>
      <cc:Work
         rdf:about="">
        <dc:format>image/svg+xml</dc:format>
        <dc:type
           rdf:resource="http://purl.org/dc/dcmitype/StillImage" />
        <dc:title></dc:title>
      </cc:Work>
    </rdf:RDF>
  </metadata>
  <g
     inkscape:groupmode="layer"
     id="layer2"
     inkscape:label="LET"
     style="display:inline">
    <path
       style="display:inline;fill:#000000;stroke-width:0.16912168"
       d="m 16.434486,212.92222 c -0.06678,-0.67769 -0.181773,-0.92834 -0.561333,-1.22347 l -0.477352,-0.37119 0.292128,-1.16244 c 0.250742,-0.99778 0.299775,-2.32095 0.346107,-9.33984 0.04922,-7.4558 0.08238,-8.26383 0.37586,-9.15711 l 0.321883,-0.97972 -0.02956,9.26668 c -0.02505,7.85155 -0.07039,9.40074 -0.296856,10.1444 -0.264261,0.86779 -0.262469,0.88332 0.158061,1.37068 0.233943,0.27112 0.473634,0.68054 0.532647,0.90983 l 0.107291,0.41689 0.534884,-0.50031 c 0.744543,-0.69641 2.608863,-1.56375 4.719379,-2.19561 1.627433,-0.48723 1.845645,-0.51603 2.446061,-0.3228 0.722104,0.23239 0.587849,0.48206 -0.26166,0.48656 -0.765739,0.004 -3.518436,0.83189 -4.827543,1.45179 -0.659357,0.31223 -1.548282,0.90301 -1.975389,1.31283 -1.03764,0.99564 -1.297901,0.97579 -1.404608,-0.10712 z"
       id="path4252"
       inkscape:connector-curvature="0" />
    <path
       id="path4212"
       style="display:inline;fill:#000000;stroke-width:0.16912168"
       d="m 29.59265,191.04101 c 0.48564,-0.52743 2.015534,-1.49903 3.740297,-2.37538 1.692798,-0.86011 2.151947,-0.95472 2.151947,-0.44346 0,0.18878 -0.114175,0.33402 -0.262586,0.33402 -0.329184,0 -1.550015,0.59779 -3.795849,1.85867 -1.846356,1.03659 -2.37928,1.21856 -1.833809,0.62615 z m -0.615687,5.4866 c 0,-0.28384 0.817976,-0.69873 1.712614,-0.86867 0.329678,-0.0626 1.243167,-0.30079 2.029974,-0.52926 0.786807,-0.22847 1.480414,-0.36666 1.541351,-0.30708 0.06094,0.0596 -0.09627,0.28214 -0.349349,0.49456 -0.299583,0.25146 -1.106316,0.5382 -2.312028,0.82177 -1.018536,0.23955 -2.025287,0.48147 -2.237223,0.5376 -0.275082,0.0729 -0.385339,0.0303 -0.385339,-0.14892 z m -1.659689,11.02582 c -0.150282,-0.22642 -0.103868,-15.05154 0.04862,-15.53181 0.05104,-0.16075 0.207471,-0.29227 0.347622,-0.29227 0.217226,0 0.251933,0.46202 0.235243,3.13142 -0.01079,1.72228 -0.01503,4.46509 -0.0095,6.09514 l 0.01013,2.96373 0.879139,-0.32576 c 0.483527,-0.17916 1.812943,-0.8426 2.954257,-1.47432 1.141317,-0.63172 2.405971,-1.28681 2.810345,-1.45577 0.679629,-0.28395 0.756339,-0.2866 1.014413,-0.0349 0.258074,0.25167 0.243723,0.2854 -0.189776,0.44613 -0.25793,0.0956 -0.52352,0.17387 -0.590201,0.17387 -0.06668,0 -0.967207,0.46273 -2.001171,1.02829 -2.471395,1.35183 -3.641484,1.90773 -4.320407,2.05262 l -0.556599,0.11879 v 1.41757 c 0,1.34155 0.01836,1.41187 0.342522,1.31154 0.510935,-0.15814 0.413579,0.0391 -0.162757,0.32973 -0.610819,0.30803 -0.637025,0.30952 -0.811887,0.046 z"
       inkscape:connector-curvature="0" />
    <path
       id="path4210"
       style="display:inline;fill:#000000;stroke-width:0.16912168"
       d="m 39.595163,186.69894 c 1.009176,-0.80647 4.384594,-2.83318 4.978126,-2.98904 1.124783,-0.29535 3.14415,-0.4908 3.319484,-0.32128 0.272473,0.26344 -0.118732,0.48414 -1.20118,0.67766 -2.002052,0.35793 -2.532914,0.54824 -3.820874,1.36971 -1.831124,1.16792 -2.741521,1.61808 -3.258248,1.61111 l -0.44546,-0.006 0.428152,-0.34215 z m 2.689015,13.77631 c -0.06605,-0.0644 -0.1206,-1.2131 -0.121217,-2.55265 -6.86e-4,-1.57107 -0.1223,-3.22634 -0.342523,-4.66346 -0.401987,-2.62328 -0.4519,-5.15978 -0.110489,-5.61509 0.454167,-0.60569 0.625395,-0.12917 0.625395,1.74042 0,0.99586 0.156232,2.83577 0.347182,4.08871 0.434253,2.84941 0.426636,6.98734 -0.01302,7.06958 -0.145883,0.0273 -0.319286,-0.003 -0.385338,-0.0675 z"
       inkscape:connector-curvature="0" />
  </g>
</svg>
