<?xml version="1.0" encoding="UTF-8" standalone="no"?>
<svg
   xmlns:dc="http://purl.org/dc/elements/1.1/"
   xmlns:cc="http://creativecommons.org/ns#"
   xmlns:rdf="http://www.w3.org/1999/02/22-rdf-syntax-ns#"
   xmlns:svg="http://www.w3.org/2000/svg"
   xmlns="http://www.w3.org/2000/svg"
   id="svg8"
   version="1.1"
   viewBox="0 0 210 297"
   height="297mm"
   width="210mm">
  <defs
     id="defs2" />
  <metadata
     id="metadata5">
    <rdf:RDF>
      <cc:Work
         rdf:about="">
        <dc:format>image/svg+xml</dc:format>
        <dc:type
           rdf:resource="http://purl.org/dc/dcmitype/StillImage" />
        <dc:title></dc:title>
      </cc:Work>
    </rdf:RDF>
  </metadata>
  <g
     style="display:inline"
     id="layer18">
    <path
       id="path5273"
       transform="scale(0.26458333)"
       d="m 344.67383,477.25977 c -0.58726,0.0395 -0.83594,0.23641 -0.83594,0.58203 0,0.34749 -0.50979,0.64945 -1.13281,0.67968 -0.62302,0.0267 0.031,0.4232 1.45508,0.88086 1.01212,0.32533 1.5523,0.54438 1.67968,0.6875 l 4.16407,0.8125 c 0.0212,-0.0131 0.0797,-0.035 0.0957,-0.0469 1.0422,-0.7742 6.80968,1.70663 7.89062,3.39453 1.19581,1.86728 2.72228,7.88811 2.28321,9.00391 -0.20172,0.51265 -1.29896,1.62577 -2.4375,2.47265 -2.0623,1.53407 -3.25341,3.30428 -4.125,3.92578 -0.55667,0.3958 -0.80041,1.0491 -0.54883,1.44922 0.60906,0.96047 1.03723,0.91577 2.35156,-0.24414 0.42943,-0.379 0.88261,-0.58577 1.70703,-0.65039 l 0.084,-0.0898 0.32422,-0.44727 c 0,0 1.2119,-2.24342 1.81051,-2.5957 0.57101,-0.336 1.40646,-1.29618 1.85743,-2.13281 0.18707,-0.34719 0.35722,-0.59225 0.51757,-0.75 l 0.52344,-3.81446 c 0,0 -1.02658,-5.73226 -1.02734,-5.4707 -0.20188,-0.0908 -0.57009,-0.082 -1.26367,-1.19141 -1.71788,-2.74741 -3.73798,-3.91421 -9.20704,-5.31445 -3.26997,-0.83716 -5.18725,-1.20646 -6.16601,-1.14062 z m -4.54492,7.52539 c -0.39229,-0.018 -1.15413,0.68758 -1.8418,1.98437 -0.82556,1.55652 -0.9564,2.88603 -0.59961,6.1543 0.25017,2.29289 0.58906,4.38217 0.75195,4.64258 0.16279,0.26025 0.7191,0.47461 1.23633,0.47461 0.75228,0 0.84166,-0.53785 0.44727,-2.6836 -0.63923,-3.47834 -0.62352,-7.363 0.0391,-9.15234 0.35293,-0.9538 0.27191,-1.40592 -0.0332,-1.41992 z m 6.58398,14.04296 c -0.44136,0.008 -0.8824,0.0479 -1.31445,0.12696 -2.80683,0.51348 -2.87866,1.61008 -0.10547,1.61133 1.15703,5.3e-4 3.1231,0.53429 4.36914,1.18554 2.84016,1.48449 3.23633,1.54289 3.23633,0.48828 0,-1.87806 -3.09602,-3.46725 -6.18555,-3.41211 z"
       style="display:inline;fill:#000000;stroke-width:0.63920003" />
  </g>
</svg>
