<?xml version="1.0" encoding="UTF-8" standalone="no"?>
<!-- Created with Inkscape (http://www.inkscape.org/) -->

<svg
   xmlns:dc="http://purl.org/dc/elements/1.1/"
   xmlns:cc="http://creativecommons.org/ns#"
   xmlns:rdf="http://www.w3.org/1999/02/22-rdf-syntax-ns#"
   xmlns:svg="http://www.w3.org/2000/svg"
   xmlns="http://www.w3.org/2000/svg"
   xmlns:sodipodi="http://sodipodi.sourceforge.net/DTD/sodipodi-0.dtd"
   xmlns:inkscape="http://www.inkscape.org/namespaces/inkscape"
   width="210mm"
   height="297mm"
   viewBox="0 0 210 297"
   version="1.1"
   id="svg8"
   inkscape:version="0.92.3 (2405546, 2018-03-11)"
   sodipodi:docname="Wolv_YOU.svg">
  <defs
     id="defs2" />
  <sodipodi:namedview
     id="base"
     pagecolor="#ffffff"
     bordercolor="#666666"
     borderopacity="1.0"
     inkscape:pageopacity="0.0"
     inkscape:pageshadow="2"
     inkscape:zoom="0.54447222"
     inkscape:cx="339.84611"
     inkscape:cy="483.78147"
     inkscape:document-units="mm"
     inkscape:current-layer="layer5"
     showgrid="false"
     inkscape:snap-others="true"
     inkscape:object-nodes="true"
     inkscape:snap-nodes="true"
     inkscape:snap-global="false"
     inkscape:window-width="962"
     inkscape:window-height="577"
     inkscape:window-x="-8"
     inkscape:window-y="-8"
     inkscape:window-maximized="1" />
  <metadata
     id="metadata5">
    <rdf:RDF>
      <cc:Work
         rdf:about="">
        <dc:format>image/svg+xml</dc:format>
        <dc:type
           rdf:resource="http://purl.org/dc/dcmitype/StillImage" />
        <dc:title></dc:title>
      </cc:Work>
    </rdf:RDF>
  </metadata>
  <g
     inkscape:groupmode="layer"
     id="layer5"
     inkscape:label="You"
     style="display:inline">
    <path
       style="display:inline;fill:#000000;stroke-width:0.16912168"
       d="m 122.67093,189.39924 c 0.28791,-0.93846 0.81591,-2.4045 1.17335,-3.25788 l 0.64988,-1.5516 h -0.41755 c -0.64263,0 -1.7737,-0.88454 -2.54605,-1.99109 -0.5387,-0.7718 -0.84448,-1.51225 -1.3386,-3.24143 -0.35223,-1.23261 -0.86653,-2.63454 -1.14288,-3.11539 -0.57719,-1.00431 -0.64145,-1.43095 -0.20313,-1.34864 0.50325,0.0945 1.33805,1.69954 1.91434,3.6806 0.82248,2.82743 0.99689,3.21885 1.84346,4.13705 1.75217,1.90045 1.90911,1.7774 3.72764,-2.9226 1.52927,-3.9524 1.65049,-4.22893 1.89374,-4.31995 0.40444,-0.15135 0.63791,0.3339 0.51156,1.06323 -0.23666,1.36601 -1.30393,4.42341 -1.97605,5.66079 -1.42543,2.62424 -2.3794,4.65853 -2.89086,6.16463 -0.62926,1.85302 -0.48792,1.61361 -0.49556,1.71967 0.002,0.22258 -0.20886,1.04088 -0.20886,1.04088 l -0.0836,0.53203 -0.17416,0.70786 c 0,0 -0.68194,1.99558 -0.85528,4.08998 -0.11945,1.44314 -0.11611,1.46133 0.26836,1.46133 0.38128,0 0.38277,0.008 0.0725,0.34138 -0.17423,0.18774 -0.47518,0.31926 -0.66876,0.29225 -0.31603,-0.0441 -0.3577,-0.18556 -0.40808,-1.38516 -0.0308,-0.73484 0.0435,-2.01246 0.1651,-2.83916 0.12164,-0.82669 0.20199,-1.56735 0.17852,-1.64591 -0.0234,-0.0786 0.0466,-0.24766 0.1556,-0.37577 0.20833,-1.01138 0.38148,-2.18177 0.85537,-2.8971 z"
       id="path4250"
       inkscape:connector-curvature="0"
       sodipodi:nodetypes="cccsscccccscccccccccsccccccc" />
    <path
       id="path4220"
       style="display:inline;fill:#000000;stroke-width:0.16912168"
       d="m 168.89754,186.41187 -0.002,0.9469 c -0.001,0.52079 -0.0488,1.116 -0.10555,1.32268 -0.20354,0.74061 -0.40585,0.35518 -0.40585,-0.7732 v -1.14897 l 0.007,-0.81123 c 0,0 0.39952,-4.82938 0.19956,-6.54534 -0.1038,-0.89073 -0.27189,-2.36926 -0.37351,-3.28561 -0.10159,-0.91635 -0.31887,-1.79686 -0.31887,-1.79686 l -0.13802,-0.59705 0.0529,-1.97824 c 0.0606,-2.26849 0.21907,-3.2557 0.53897,-3.35967 0.17825,-0.058 0.1956,0.14384 0.085,0.98833 -0.0764,0.58364 -0.13897,1.69996 -0.13897,2.48073 -0.22855,2.73331 0.0287,2.12435 0.0287,2.12435 l 0.20161,0.98368 c 0.20129,0.98217 0.48159,3.63543 0.65083,6.16095 0.0492,0.73484 0.0134,2.05003 -0.0797,2.92265 -0.0931,0.87262 -0.10534,1.65096 -0.10534,1.65096 z m -1.50066,9.74904 c 0.0443,-0.22643 0.002,-0.43706 -0.0927,-0.46807 -0.26944,-0.0876 0.002,-0.8737 0.50136,-1.45253 0.51602,-0.59803 0.63938,-0.5517 0.69263,0.26007 0.0254,0.38765 -0.10137,0.78151 -0.3807,1.18298 -0.23035,0.33101 -0.41883,0.66651 -0.41883,0.74555 0,0.079 -0.0861,0.1437 -0.19122,0.1437 -0.11091,0 -0.15733,-0.17293 -0.11052,-0.4117 z"
       inkscape:connector-curvature="0" />
    <path
       inkscape:connector-curvature="0"
       id="path4384"
       d="m 129.13316,187.13653 c 0.0296,-0.0272 0.16611,-0.52678 0.3032,-1.1102 0.1371,-0.58344 0.37157,-1.36142 0.52106,-1.72883 0.16903,-0.41547 0.2841,-1.2679 0.30434,-2.25462 0.0495,-2.41262 0.69815,-3.61315 2.41394,-4.46781 0.81649,-0.40671 0.91048,-0.41755 2.02099,-0.23307 1.83617,0.30502 2.93953,0.98991 5.6241,3.49104 l 1.32401,1.23354 c 0.23725,0.0426 0.3876,0.34687 0.3876,0.34687 l 0.64512,0.94201 c 0.92347,1.34851 1.21581,2.24542 1.21581,3.73031 0,2.80074 -0.82486,5.15612 -2.22016,6.33962 -1.0042,0.85178 -3.5194,2.03311 -5.10474,2.39758 -2.29018,0.52653 -3.83468,0.0891 -5.08038,-1.43871 -1.32575,-1.62602 -2.04159,-3.23442 -2.23881,-5.03026 -0.5816,0.45783 -0.74798,-1.83205 -0.11608,-2.21749 z m 7.39591,8.00699 c 1.6943,-0.38824 3.87975,-1.50281 4.90881,-2.50346 1.11859,-1.08772 1.58519,-2.40152 1.72233,-4.8496 0.11238,-2.00614 -0.1259,-2.89048 -1.12116,-4.16103 -0.86206,-0.51843 -0.65454,-0.57127 -1.22846,-1.24759 0,-0.20414 -2.75829,-2.72567 -3.59648,-3.28777 -1.39357,-0.93457 -3.25857,-1.32523 -4.16434,-0.87232 -1.16454,0.5823 -1.77283,1.63691 -2.25214,3.90467 l -0.10588,0.50102 0.36721,-0.58453 c 0.78531,-1.25008 2.02079,-2.13082 2.65575,-1.89321 0.39548,0.14799 0.20458,0.44126 -0.50138,0.77025 -1.04378,0.48642 -2.6507,3.27454 -2.95428,5.12588 -0.0862,0.47657 -0.13789,0.70522 -0.13789,0.70522 0,0 -0.0957,-0.68372 -0.1,2.07032 0,2.03947 1.70926,5.34465 3.16833,6.12657 0.35476,0.19012 1.2869,0.40489 1.88388,0.43406 0.18839,0.01 0.84346,-0.0981 1.45572,-0.23835 z m 45.8982,2.82478 c 1e-4,-0.0787 0.37466,-0.34823 0.83236,-0.59891 1.20481,-0.65985 1.29208,-0.81063 0.78059,-1.34855 -0.56213,-0.59118 -0.91056,-0.56997 -1.49492,0.091 -0.44902,0.50785 -0.47345,0.51633 -0.36508,0.12676 0.16904,-0.60772 0.58371,-1.00205 1.05375,-1.00205 0.45183,0 1.41952,0.90954 1.41952,1.33421 0,0.14175 -0.38307,0.50229 -0.85129,0.80119 -0.98463,0.6286 -1.37517,0.79799 -1.37493,0.59636 z m -7.36866,-1.49007 c -0.0918,-0.23561 -0.16701,-0.57262 -0.16701,-0.7489 0,-0.4564 0.86336,-1.31915 1.37008,-1.36912 0.40825,-0.0403 0.42784,-0.002 0.42119,0.82835 -0.006,0.68155 -0.0957,0.96259 -0.41519,1.29432 -0.52508,0.54505 -0.99546,0.54325 -1.20907,-0.004 z m 0.95915,-0.25362 c 0.32215,-0.34712 0.32178,-0.34746 -0.14472,-0.14019 -0.25722,0.11427 -0.46766,0.27087 -0.46766,0.34799 0,0.24593 0.27926,0.15117 0.61238,-0.2078 z m -0.53495,-0.5 c -0.10137,-0.15984 0.60372,-0.49981 0.80222,-0.38683 0.17452,0.0994 0.30347,-0.59202 0.12995,-0.69661 -0.21325,-0.12852 -1.18086,0.83584 -1.18086,1.17691 0,0.15027 0.0784,0.22601 0.17405,0.16831 0.0958,-0.0576 0.12932,-0.17549 0.0746,-0.26178 z m -25.33851,-13.43125 -0.29924,1.92059 c -0.16458,1.05634 -0.31871,2.93973 -0.34252,4.18533 -0.0429,2.24588 -0.0393,2.2698 0.43127,2.87433 0.5517,0.70871 0.66799,0.69473 1.95675,-0.23537 1.58339,-1.14272 2.06583,-2.09621 2.77695,-5.48821 0.18294,-0.87262 0.60058,-2.30829 0.92808,-3.19036 l 0.82634,-2.11267 c 0.61509,-1.09496 0.77264,-1.13936 1.24104,-0.79362 0.27037,0.19957 0.28809,0.28348 0.10522,0.49833 -0.16013,0.18815 -0.1946,0.67739 -0.12686,1.80056 0.0981,1.6262 0.53479,3.11691 1.40183,4.78509 0,0 1.15427,1.92713 1.679,2.08954 l 1.39755,0.99742 c 0.73592,0.24626 0.98797,0.43182 2.31378,0.73389 0.73581,0.16766 0.90827,0.5361 0.25093,0.5361 -1.59859,0 -3.76365,-0.96064 -5.06433,-2.24705 -1.27911,-1.26508 -2.47609,-4.13464 -2.68522,-6.43741 l -0.11376,-1.25257 -0.63994,1.7536 c -0.35197,0.96447 -0.83896,2.68863 -1.08221,3.83147 -0.24325,1.14283 -0.5959,2.37155 -0.78368,2.7305 -0.71974,1.37576 -2.80939,3.12453 -3.73357,3.12453 -0.63763,0 -1.19534,-0.4394 -1.56487,-1.23293 -0.39742,-0.85344 -0.42786,-2.91583 -0.0803,-5.44741 0.13239,-0.96448 0.29406,-2.14165 0.35928,-2.61592 l 0.11857,-0.86233 c 0,0 -0.0565,-0.30446 0.0829,-0.52996 l 0.47304,-1.96236 c 0.51931,-2.15427 1.01092,-3.32368 1.20025,-2.85502 0.0614,0.15201 -0.007,0.75324 -0.15222,1.33607 -0.35319,1.41834 -0.78786,3.31182 -0.78786,3.43203 m 37.09104,-17.62608 0.3408,2.43704 c 0.19492,1.0493 0.24512,4.75792 0.24512,9.23087 v 8.13262 l -0.48645,1.15037 c -0.74985,1.77326 -0.94039,2.76142 -0.81235,4.2131 0.0826,0.93601 0.0427,1.5034 -0.14863,2.11436 -0.14381,0.45928 -0.26014,0.94777 -0.25814,1.08555 l 3.7e-4,-9.6e-4 c 0.006,0.43224 0.30223,-0.19325 0.57425,-1.21169 0.16389,-0.61377 0.21459,-1.35833 0.15249,-2.24183 -0.0999,-1.42175 0.17028,-2.68566 0.85054,-3.97837 0.33972,-0.64545 0.35292,-0.96299 0.39222,-9.3953 l 0.0407,-8.72726 -0.26543,-0.0814 -0.11788,-1.33607 c -0.0648,-0.73484 -0.15679,-1.48694 -0.15679,-1.48694 l -0.33533,-0.12868 m -8.50544,3.25434 0.16894,1.44215 c 0.10247,0.77915 0.0402,2.04514 -0.31199,6.33919 l -0.17565,1.94686 c -0.0591,0.44009 -0.0848,0.67956 -0.10398,0.90919 -0.0193,0.22964 -0.12131,1.20664 -0.22669,2.17112 -0.10545,0.96447 -0.23515,3.33182 -0.28834,5.26078 -0.12249,4.44097 -0.25208,5.96202 -0.50031,5.87224 -0.10445,-0.0377 -0.1664,-0.16559 -0.13769,-0.28404 0.0287,-0.11843 0.12185,-2.17577 0.20699,-4.57186 0.0851,-2.39609 0.20344,-5.04846 0.26293,-5.89417 l 0.0628,-2.28713 c 0.36502,-1.19218 0.42761,-1.57143 0.71566,-5.36168 h -4e-5 c 0.19382,-2.55034 0.27006,-6.13631 0.27006,-6.13631"
       style="display:inline;fill:#000000;stroke-width:0.16912168"
       sodipodi:nodetypes="ccccccscccsccccccccccccccccsccccccccccccssccccccccccccsccccsccccccccccccccccccsccccccccsccccccccccccccscccsccccccccccccccccsccccc" />
  </g>
</svg>
