<?xml version="1.0" encoding="UTF-8" standalone="no"?>
<!-- Created with Inkscape (http://www.inkscape.org/) -->

<svg
   xmlns:dc="http://purl.org/dc/elements/1.1/"
   xmlns:cc="http://creativecommons.org/ns#"
   xmlns:rdf="http://www.w3.org/1999/02/22-rdf-syntax-ns#"
   xmlns:svg="http://www.w3.org/2000/svg"
   xmlns="http://www.w3.org/2000/svg"
   xmlns:sodipodi="http://sodipodi.sourceforge.net/DTD/sodipodi-0.dtd"
   xmlns:inkscape="http://www.inkscape.org/namespaces/inkscape"
   width="210mm"
   height="297mm"
   viewBox="0 0 210 297"
   version="1.1"
   id="svg8"
   inkscape:version="0.92.3 (2405546, 2018-03-11)"
   sodipodi:docname="Wolv_ME.svg">
  <defs
     id="defs2" />
  <sodipodi:namedview
     id="base"
     pagecolor="#ffffff"
     bordercolor="#666666"
     borderopacity="1.0"
     inkscape:pageopacity="0.0"
     inkscape:pageshadow="2"
     inkscape:zoom="0.54447222"
     inkscape:cx="339.84611"
     inkscape:cy="483.78147"
     inkscape:document-units="mm"
     inkscape:current-layer="layer3"
     showgrid="false"
     inkscape:snap-others="true"
     inkscape:object-nodes="true"
     inkscape:snap-nodes="true"
     inkscape:snap-global="false"
     inkscape:window-width="962"
     inkscape:window-height="577"
     inkscape:window-x="-8"
     inkscape:window-y="-8"
     inkscape:window-maximized="1" />
  <metadata
     id="metadata5">
    <rdf:RDF>
      <cc:Work
         rdf:about="">
        <dc:format>image/svg+xml</dc:format>
        <dc:type
           rdf:resource="http://purl.org/dc/dcmitype/StillImage" />
        <dc:title></dc:title>
      </cc:Work>
    </rdf:RDF>
  </metadata>
  <g
     inkscape:groupmode="layer"
     id="layer3"
     inkscape:label="ME"
     style="display:inline">
    <path
       sodipodi:nodetypes="cccsccsccccccscccccccccccccccsccscccsccccccccccscccccccccccc"
       style="display:inline;fill:#000000;stroke-width:0.16912168"
       d="m 68.328337,186.3978 c 0,0 -0.60639,-0.0488 -0.87155,-0.15454 -0.96916,-0.38651 -2.2565,-0.11395 -2.92684,0.61972 -0.36361,0.39795 -0.78695,0.47324 -0.78695,0.13996 0,-0.11942 0.0963,-0.3146 0.21408,-0.43374 0.17314,-0.1752 0.14858,-0.20516 -0.12845,-0.15666 -0.31486,0.0552 -0.34642,0.21049 -0.39082,1.92382 l -0.0483,1.86387 1.07587,-0.0467 c 0.78679,-0.0342 1.35197,-0.18185 2.10344,-0.54976 1.45275,-0.71124 1.71575,-0.77022 2.03709,-0.45688 0.48415,0.47214 0.35063,0.79597 -0.28167,0.68312 -0.68293,-0.12187 -1.05998,0.0883 -1.0659,0.59416 -0.004,0.33481 -0.13275,0.40568 -1.03205,0.56773 -1.24514,0.22437 -2.12427,0.57935 -2.52649,1.02016 -0.2444,0.26785 -0.28044,0.51238 -0.19416,1.31737 l 0.10595,0.98848 0.70794,0.0166 c 0.69442,0.0163 2.31084,0.50886 2.95288,0.89987 0.26681,0.16249 0.55544,0.10853 1.60901,-0.30075 0.70614,-0.27433 1.31044,-0.42861 1.34289,-0.34286 0.0951,0.25118 -0.35606,0.67891 -0.98748,0.9363 -0.41745,0.17015 -0.52109,0.27793 -0.36039,0.37479 0.12922,0.0779 0.17743,0.2583 0.11286,0.42239 -0.0857,0.21776 -0.22514,0.25897 -0.58155,0.17185 -0.61833,-0.15114 -0.83959,-0.16038 -2.93391,-0.12264 l -1.78002,0.0321 0.11047,1.15906 c 0.11516,1.20841 -0.0299,1.55094 -0.49694,1.17299 -0.16686,-0.13504 -0.24939,-0.52842 -0.24939,-1.18868 0,-1.06586 -0.20715,-1.31515 -0.82494,-0.99273 -0.25023,0.13059 -0.38597,0.1199 -0.52309,-0.0412 -0.25746,-0.30251 0.0887,-0.61045 0.68628,-0.61045 h 0.46857 l -0.0929,-1.29432 c -0.0511,-0.71187 -0.0833,-2.87255 -0.0716,-4.8015 0.0205,-3.364 0.0362,-3.51815 0.38409,-3.77555 0.24724,-0.18293 0.29988,-0.30624 0.16536,-0.38731 -0.5075,-0.30587 0.43302,-0.75442 1.90851,-0.9102 l 0.98706,-0.10421 0.48801,-0.29227 1.1381,0.0835 z m -1.75138,9.1856 c -0.0537,-0.0848 -0.34728,-0.20657 -0.65233,-0.27063 -0.30505,-0.064 -0.77043,-0.22401 -1.03417,-0.35547 -0.26374,-0.13144 -0.62981,-0.19248 -0.81349,-0.13564 -0.4656,0.14411 -0.42931,0.70775 0.0514,0.79804 0.76198,0.14312 2.54557,0.11668 2.44862,-0.0363 z m -1.6812,-10.14911 c -0.16663,-0.0423 -0.39783,-0.0396 -0.51378,0.006 -0.11595,0.0458 0.0204,0.0804 0.30297,0.0769 0.28258,-0.003 0.37745,-0.0408 0.21081,-0.0832 z m 0.9345,-0.16536 c -0.12363,-0.0483 -0.27135,-0.0424 -0.32826,0.0131 -0.0569,0.0555 0.0443,0.0949 0.22479,0.0877 0.19951,-0.008 0.24009,-0.0476 0.10347,-0.10087 z"
       id="path5366"
       inkscape:connector-curvature="0" />
    <path
       id="path4242"
       style="display:inline;fill:#000000;stroke-width:0.16912168"
       d="m 50.460857,197.16812 c 0.185063,-2.80167 0.243656,-7.05039 0.08537,-6.1903 -0.176734,0.96032 -0.505071,6.02811 -0.486914,7.51539 0.01035,0.8459 0.03564,0.92569 0.1624,0.51202 0.08259,-0.26953 0.190209,-1.09622 0.239148,-1.83711 z m -0.783123,3.80507 c -0.15622,-0.18322 -0.254803,-0.86109 -0.293956,-2.02128 -0.07038,-2.08541 0.249792,-7.36979 0.538788,-8.89265 0.204674,-1.07852 0.209886,-1.08582 0.805002,-1.12566 0.534616,-0.0358 0.667648,0.0473 1.237766,0.77355 0.688171,0.87658 0.85815,1.22932 1.33663,2.77374 0.206974,0.66807 0.314809,0.85499 0.323536,0.56084 0.01572,-0.52978 1.200527,-4.07328 1.814967,-5.42812 0.54137,-1.19375 0.87244,-1.56255 1.40263,-1.56255 0.59889,0 0.99729,1.01785 1.33674,3.41512 0.33337,2.35432 0.2775,4.77482 -0.16594,7.18994 -0.34268,1.86632 -0.49804,2.17071 -0.78951,1.54688 -0.15092,-0.32301 -0.14893,-0.73837 0.008,-1.73723 0.37095,-2.35571 0.40609,-4.92072 0.096,-7.00995 -0.31217,-2.10356 -0.39126,-2.40271 -0.63524,-2.40271 -0.39018,0 -2.024746,4.38755 -2.465882,6.61899 -0.493561,2.49664 -0.950214,2.45858 -1.53964,-0.12828 -0.396339,-1.73944 -0.800326,-2.88367 -1.076995,-3.05041 -0.08188,-0.0494 -0.190937,1.69283 -0.242344,3.87153 -0.09644,4.08703 -0.361653,5.92842 -0.949402,6.59165 -0.321488,0.36277 -0.444044,0.36552 -0.741547,0.0166 z"
       inkscape:connector-curvature="0" />
  </g>
</svg>
