<?xml version="1.0" encoding="UTF-8" standalone="no"?>
<!-- Created with Inkscape (http://www.inkscape.org/) -->

<svg
   xmlns:dc="http://purl.org/dc/elements/1.1/"
   xmlns:cc="http://creativecommons.org/ns#"
   xmlns:rdf="http://www.w3.org/1999/02/22-rdf-syntax-ns#"
   xmlns:svg="http://www.w3.org/2000/svg"
   xmlns="http://www.w3.org/2000/svg"
   xmlns:sodipodi="http://sodipodi.sourceforge.net/DTD/sodipodi-0.dtd"
   xmlns:inkscape="http://www.inkscape.org/namespaces/inkscape"
   width="210mm"
   height="297mm"
   viewBox="0 0 210 297"
   version="1.1"
   id="svg8"
   inkscape:version="0.92.3 (2405546, 2018-03-11)"
   sodipodi:docname="Wolv_BDclr.svg">
  <defs
     id="defs2" />
  <sodipodi:namedview
     id="base"
     pagecolor="#ffffff"
     bordercolor="#666666"
     borderopacity="1.0"
     inkscape:pageopacity="0.0"
     inkscape:pageshadow="2"
     inkscape:zoom="0.54447222"
     inkscape:cx="34.046011"
     inkscape:cy="365.28513"
     inkscape:document-units="mm"
     inkscape:current-layer="layer17"
     showgrid="false"
     inkscape:snap-others="true"
     inkscape:object-nodes="true"
     inkscape:snap-nodes="true"
     inkscape:snap-global="false"
     inkscape:window-width="962"
     inkscape:window-height="577"
     inkscape:window-x="-8"
     inkscape:window-y="-8"
     inkscape:window-maximized="1" />
  <metadata
     id="metadata5">
    <rdf:RDF>
      <cc:Work
         rdf:about="">
        <dc:format>image/svg+xml</dc:format>
        <dc:type
           rdf:resource="http://purl.org/dc/dcmitype/StillImage" />
        <dc:title />
      </cc:Work>
    </rdf:RDF>
  </metadata>
  <g
     inkscape:groupmode="layer"
     id="layer17"
     inkscape:label="Body"
     style="display:inline">
    <path
       style="display:inline;fill:#fdfaf6;fill-opacity:1;stroke:none;stroke-width:0.26458332px;stroke-linecap:butt;stroke-linejoin:miter;stroke-opacity:1"
       d="m 99.254182,226.65952 4.859448,4.25201 6.43877,6.07431 4.73796,4.13053 2.06526,6.31728 4.49499,4.00904 4.49498,20.53117 -3.15864,9.96185 -9.23294,8.26106 -0.72892,4.85944 8.50403,-2.67269 7.53214,-5.3454 5.83134,-7.7751 3.64458,15.30726 0.24297,2.18675 3.88756,-10.69078 -0.24297,-10.44781 5.34539,9.47592 2.67269,8.98996 3.88756,-7.28917 -2.91567,-13.36347 10.69078,13.60644 c 0,0 0.97189,9.96188 1.45784,8.98999 0.48594,-0.9719 3.64458,-14.57833 3.64458,-14.57833 l -7.77511,-12.87754 -10.93376,-15.7932 -8.98997,-15.55023 -8.01809,-13.60645 -6.31727,-9.71889 -4.37351,-5.34539 -1.94378,-8.98997 0.48595,-7.28917 9.71889,-4.85945 7.53214,-2.91567 7.53214,-2.67269 h 5.83134 l 8.01808,-2.18675 3.64459,-1.45784 6.80322,-4.61647 2.42973,-5.10242 7.53214,-1.21486 6.0743,-2.18675 1.45784,-1.45783 6.31728,-3.40161 4.3735,-5.10242 2.67269,-5.58837 4.37351,-8.98997 2.18675,-5.10242 0.24297,-4.61647 -1.21486,-1.45784 -3.88756,5.58837 -2.42972,4.13052 -1.94378,3.15864 -7.0462,5.10242 -3.64458,4.13053 4.85944,-10.69078 3.40162,-8.01808 4.61647,-7.28917 3.40161,-7.53214 c 0,0 1.70081,-6.56026 1.94378,-8.50404 0.24297,-1.94377 1.21486,-11.905637 1.21486,-11.905637 l 1.21486,-13.849421 -1.94377,-9.47592 0.72891,-10.447808 -0.48594,-9.232948 -2.6727,-10.204836 -1.94378,-3.644585 2.42973,11.905644 0.72891,7.532139 -2.91566,8.989976 -1.70081,11.662669 -1.09338,7.653628 -0.48594,7.289168 -0.24297,7.289171 -0.97189,5.10242 -0.8504,4.85944 -2.6727,6.31728 -2.79418,4.98093 -5.46688,7.77512 -4.13053,7.04619 -1.09337,-1.45783 3.52309,-8.86849 4.37351,-7.8966 1.57932,-5.2239 -0.60743,-11.17673 -1.8223,-8.625515 -0.48594,-7.896598 -0.36446,-8.139573 -0.97189,-4.252015 -1.57932,-6.681737 -0.72892,-3.766072 -3.03715,-4.859446 -2.67269,-4.859445 -1.70081,-3.037152 1.21486,6.803223 1.57932,7.653628 1.21486,4.494985 0.12149,4.494988 -0.36446,5.831337 0.36446,8.625515 0.72892,4.980932 v 4.737959 l 0.8504,4.252016 0.60743,5.2239 -0.60743,4.98094 v 4.25201 l -0.60743,3.28013 -0.85041,4.13053 -1.21486,5.83133 -1.09337,5.46688 -1.21486,4.13053 -1.21486,2.06526 -1.45784,2.30824 0.8504,-5.95282 1.09338,-6.07431 0.24297,-7.0462 -0.60743,-6.0743 -0.12148,-4.3735 -1.45784,-5.95283 -0.72892,-5.10242 -0.36445,-3.03715 -0.85041,-6.560251 0.36446,-4.252013 -0.8504,-4.980932 -0.97189,-6.560254 -0.48595,-1.579319 -2.91566,-5.709848 -0.36446,2.672694 0.72892,10.08335 1.21486,12.148616 0.72891,4.859447 0.72892,14.57834 -1.33635,15.7932 -0.36446,1.82229 0.36446,4.98093 0.24298,5.58836 -5.10242,-7.28917 -3.64459,-3.15864 -4.61647,-3.88755 -2.42972,-1.57932 -3.15864,-1.57932 -1.94378,-3.40162 -6.07431,-6.0743 3.76607,7.41065 4.00904,5.70985 4.61648,5.58836 5.34539,5.70985 2.30824,3.03716 1.7008,6.31728 -0.60743,2.42972 -4.25202,3.15864 -2.18674,0.36446 -6.43877,3.15864 -4.85945,3.15864 -3.15864,2.30823 -6.56025,0.48595 -8.01808,-1.21486 -4.13053,-0.8504 -2.30824,-1.8223 -1.45783,-3.64458 v -4.00904 l -0.24298,-2.55121 0.72892,-3.88756 1.21486,-5.10242 1.09338,-2.67269 0.24297,-3.76608 0.36446,-2.06526 -2.06527,-5.2239 -1.57932,-5.58837 -2.42972,-4.13052 -4.49499,-4.85945 -4.61647,-4.25202 -1.70081,-0.8504 h -1.82229 l -2.67269,0.8504 -2.065269,1.09338 -3.15864,0.8504 -5.831335,0.72892 -2.915666,2.18675 -4.252015,3.88755 -1.214861,3.15865 -0.850406,6.92471 -0.364458,2.42972 -0.971888,2.18675 0.850402,3.28013 2.065266,2.91566 1.579319,4.73796 0.121486,3.03716 -0.60743,3.64458 -0.971889,3.5231 -2.429724,0.72892 -2.915666,1.45783 -3.280127,1.21486 -0.971888,-1.33635 -6.317282,-2.42972 -5.709849,-1.09338 -9.232947,-2.18675 -1.214861,-1.45783 -0.850402,-4.73796 0.60743,-6.56025 1.579319,-9.11146 1.214864,-4.3735 c 0,0 1.579319,-5.22391 1.700805,-5.70985 0.121486,-0.48595 4.494987,-7.41066 4.494987,-7.41066 l 2.308236,-4.25201 0.485947,-3.28013 5.952821,-7.289167 7.896597,-10.69078 3.887558,-4.13053 5.709848,-7.775114 1.457836,-3.523097 3.037152,-5.831337 3.158641,-4.494985 3.523099,-4.373501 0.850402,-2.551211 -8.018086,7.046198 -0.850403,3.158638 -3.644585,4.73796 -4.009043,4.252016 -6.92471,6.681737 -5.95282,6.803226 -3.887558,4.980932 -6.195792,10.569295 -5.345391,7.04619 -2.186752,3.76608 -3.40161,10.32632 -1.093378,5.10242 -0.121486,2.79418 -1.336346,-1.21486 -1.093375,-6.92471 c 0,0 -1.457836,-9.96187 -1.33635,-10.44781 0.121489,-0.48595 0,-6.07431 0,-6.07431 L 40.940831,97.155285 v -7.532143 l 0.971891,-14.213879 2.672694,-9.111462 3.280127,-12.756044 1.579319,-3.401613 2.308238,-4.252015 2.065263,-3.644583 v -1.457835 l -2.308235,0.971888 -3.401613,3.401613 -2.551211,4.252016 -3.40161,6.438765 -3.037154,6.68174 -2.065264,5.34539 -1.822294,7.53214 v 3.15864 l -1.093374,6.195793 0.242972,7.775115 0.728916,5.588362 0.728917,7.046197 0.971891,6.80322 0.728916,4.13053 1.214861,5.70985 1.700805,7.8966 0.971889,5.83134 -2.79418,-3.40162 -2.429724,-4.25201 -1.822291,-5.34539 -2.065264,-6.92471 -2.065266,-5.70985 -3.037152,-7.0462 -1.214862,-4.00904 -2.308237,-8.747004 -2.551209,-9.840377 -2.429723,-8.625515 -1.943779,-7.410656 -0.485944,-4.494988 -0.364459,-3.887557 -0.485944,-11.419697 -0.121486,-3.766071 -0.607431,-0.242972 -0.971889,5.831334 -0.728917,4.859446 -0.607431,3.766071 -0.971889,5.223904 0.485944,3.644586 0.728917,5.831334 1.457834,9.840378 1.457834,7.046198 1.093375,7.653626 1.214862,5.466876 1.093375,6.195794 2.429723,9.47592 1.943778,4.61647 1.943779,3.64459 1.943779,3.64458 2.429722,2.79418 1.093375,1.70081 2.308238,4.49499 1.579319,3.15864 0.121486,1.09337 -3.401613,-3.15864 -2.186749,-3.76607 -3.037154,-3.88756 -2.794182,-3.88755 -3.15864,-4.00904 -2.429723,-4.13053 -1.579319,-2.18676 -1.700807,-3.28012 -1.457833,-3.76607 L 11.05524,105.17337 9.1114612,102.37919 7.8965996,99.949464 6.8032243,97.155285 5.9528212,93.875158 5.1024181,91.445436 4.2520152,88.408281 3.0371536,85.371127 v 0.971891 l 0.6074307,2.915666 0.4859446,3.280127 0.6074309,2.79418 0.4859446,4.737959 0.2429722,3.88756 0.4859446,3.03715 0.728917,3.03715 1.2148614,2.6727 2.0652644,3.88756 3.280126,9.5974 1.822292,6.31728 1.57932,4.73796 1.700806,4.13053 1.214862,2.06527 0.971889,2.06526 1.457834,3.28013 1.336347,3.15864 h 2.672696 l 2.308237,1.21486 3.037152,0.8504 3.523099,1.21486 1.336347,0.72892 2.794182,0.60743 2.308236,0.48594 2.55121,1.70081 3.766072,4.85945 0.242972,1.82229 4.130529,3.64458 5.102418,4.00905 3.280124,3.52309 2.915669,3.03716 2.79418,4.61647 1.579322,1.70081 1.21486,0.48594 4.494988,9.23295 0.728917,3.15864 -0.364459,7.16768 -2.065263,6.68174 -1.822294,6.07431 -1.943777,4.73796 -2.429725,4.13053 -2.794179,2.18675 -1.94378,0.24297 -3.037152,2.42972 -2.065266,4.13053 -1.943778,4.13053 -4.373501,8.86849 -1.214861,10.20484 -1.94378,13.60644 -2.915666,6.80324 -6.803226,11.41968 -1.214861,4.61647 8.504031,-8.26106 7.046196,-9.96185 2.672696,2.18676 -0.971889,10.93374 -1.94378,5.58837 6.07431,-2.67271 5.34539,-6.80321 0.485944,-9.96188 1.457833,-4.85944 4.13053,8.98999 0.728916,7.04619 -0.242972,7.53214 5.34539,-3.88755 2.18675,-8.50403 -0.242972,-11.17674 0.485947,-2.67269 6.074306,8.50403 1.457833,7.28916 -1.457833,9.71889 5.588363,-6.56024 2.672694,-13.36347 -7.046196,-9.47592 -8.504031,-3.88757 -1.700805,-9.23294 3.158641,-8.747 5.34539,-6.31728 2.429722,-1.88304 2.126009,-0.48594 2.611951,-1.39709 2.854925,-1.76155 2.611951,-1.8223 2.308238,-1.09337 1.336347,-0.24297 0.303715,-2.61196 0.151858,-0.24297 z"
       id="path5163"
       inkscape:connector-curvature="0" />
  </g>
</svg>
