<?xml version="1.0" encoding="UTF-8" standalone="no"?>
<svg
   xmlns:dc="http://purl.org/dc/elements/1.1/"
   xmlns:cc="http://creativecommons.org/ns#"
   xmlns:rdf="http://www.w3.org/1999/02/22-rdf-syntax-ns#"
   xmlns:svg="http://www.w3.org/2000/svg"
   xmlns="http://www.w3.org/2000/svg"
   id="svg8"
   version="1.1"
   viewBox="0 0 210 297"
   height="297mm"
   width="210mm">
  <defs
     id="defs2" />
  <metadata
     id="metadata5">
    <rdf:RDF>
      <cc:Work
         rdf:about="">
        <dc:format>image/svg+xml</dc:format>
        <dc:type
           rdf:resource="http://purl.org/dc/dcmitype/StillImage" />
        <dc:title></dc:title>
      </cc:Work>
    </rdf:RDF>
  </metadata>
  <g
     id="g5222"
     style="display:inline">
    <path
       transform="scale(0.26458333)"
       id="path5236"
       d="m 425.49219,482.05664 c -0.54091,0.11834 -1.05991,0.20313 -1.45313,0.20313 -1.87313,0 -3.10305,0.96944 -1.77734,1.40039 1.27525,0.41453 -3.93356,3.02087 -7.79102,3.89843 -4.55958,1.03624 -4.43111,1.01368 -5.51758,1.01368 -0.63759,0 -0.83956,0.60756 -0.67968,2.05078 0.52161,4.71813 2.20519,10.65371 3.53906,12.48047 l 1.34766,1.8457 1.77539,0.44336 2.50586,-0.13867 c -0.8072,-0.55815 -0.46021,-0.99526 1.32031,-0.88086 3.87889,0.24945 6.33152,-0.026 5.39258,-0.60547 -1.01218,-0.62484 1.96177,-1.17773 5.73047,-1.25977 l 2.01367,-0.68554 1.625,-1.70508 0.17383,-0.66992 c -0.0424,-0.16024 -0.051,-0.33308 -0.0195,-0.5293 0.28736,-1.79564 1.48447,-4.55364 2.00391,-4.64649 l 0.0332,-0.0801 0.40625,-3.89649 0.31641,0.043 c -0.006,-0.0235 -0.0391,-0.10018 -0.0391,-0.11133 0,-0.19854 0.76958,-0.075 1.70898,0.27344 0.93937,0.34583 1.84876,0.49436 2.02149,0.32617 0.75122,-0.73255 -0.56206,-2.16809 -2.33008,-2.54687 -0.99271,-0.21262 -1.62362,-0.59229 -2.01172,-1.23438 l -1.29102,-0.72656 -1.53125,-0.94531 c -0.002,0.007 0.007,0.0392 0.002,0.0391 -0.0705,-0.002 -0.96401,-0.542 -1.98633,-1.19922 -0.0611,-0.0393 -0.0817,-0.0569 -0.13867,-0.0937 l -1.45899,-0.80469 -1.78515,-0.89257 z m 1.19531,2.53516 2.63477,1.1582 c 2.98726,1.31361 4.77366,4.03923 4.28515,6.53516 -0.63813,3.26048 -2.2802,6.70631 -3.29297,6.90625 -0.56746,0.1121 -2.94832,1.17743 -5.28906,2.36718 -5.70282,2.8986 -9.17904,2.9648 -11.54687,0.22071 -0.92168,-1.06817 -1.67982,-2.55995 -1.6836,-3.31446 -0.004,-0.7545 -0.4419,-2.76635 -0.97265,-4.47265 -0.53076,-1.70631 -0.89036,-3.14958 -0.80079,-3.20703 0.0897,-0.0574 1.85566,-0.46236 3.92579,-0.89844 2.07019,-0.43601 5.78365,-1.80483 8.25195,-3.04297 z"
       style="display:inline;fill:#000000;stroke-width:0.63920003" />
  </g>
</svg>
