<?xml version="1.0" encoding="UTF-8" standalone="no"?>
<!-- Created with Inkscape (http://www.inkscape.org/) -->

<svg
   xmlns:dc="http://purl.org/dc/elements/1.1/"
   xmlns:cc="http://creativecommons.org/ns#"
   xmlns:rdf="http://www.w3.org/1999/02/22-rdf-syntax-ns#"
   xmlns:svg="http://www.w3.org/2000/svg"
   xmlns="http://www.w3.org/2000/svg"
   xmlns:sodipodi="http://sodipodi.sourceforge.net/DTD/sodipodi-0.dtd"
   xmlns:inkscape="http://www.inkscape.org/namespaces/inkscape"
   width="210mm"
   height="297mm"
   viewBox="0 0 210 297"
   version="1.1"
   id="svg8"
   inkscape:version="0.92.3 (2405546, 2018-03-11)"
   sodipodi:docname="Wolv_LEystr.svg">
  <defs
     id="defs2" />
  <sodipodi:namedview
     id="base"
     pagecolor="#ffffff"
     bordercolor="#666666"
     borderopacity="1.0"
     inkscape:pageopacity="0.0"
     inkscape:pageshadow="2"
     inkscape:zoom="0.54447222"
     inkscape:cx="339.84611"
     inkscape:cy="410.31583"
     inkscape:document-units="mm"
     inkscape:current-layer="g5222"
     showgrid="false"
     inkscape:snap-others="true"
     inkscape:object-nodes="true"
     inkscape:snap-nodes="true"
     inkscape:snap-global="false"
     inkscape:window-width="962"
     inkscape:window-height="577"
     inkscape:window-x="-8"
     inkscape:window-y="-8"
     inkscape:window-maximized="1" />
  <metadata
     id="metadata5">
    <rdf:RDF>
      <cc:Work
         rdf:about="">
        <dc:format>image/svg+xml</dc:format>
        <dc:type
           rdf:resource="http://purl.org/dc/dcmitype/StillImage" />
        <dc:title></dc:title>
      </cc:Work>
    </rdf:RDF>
  </metadata>
  <g
     style="display:inline"
     inkscape:label="LEy"
     id="g5222"
     inkscape:groupmode="layer">
    <path
       id="path5265"
       transform="scale(0.26458333)"
       style="display:inline;fill:#000000;stroke-width:0.63920003"
       d="m 429.6582,480.70117 c -0.59253,0.10908 -1.22725,0.30076 -1.77734,0.56836 -0.78491,0.38184 -1.86128,0.70406 -2.78125,0.86914 l -0.0996,0.041 -2.59766,1.86523 -0.041,0.0293 c -0.18397,0.24806 -0.66156,0.57688 -1.29102,0.93555 l -1.02148,0.74023 -5.68164,2.0293 -2.59766,0.8125 v 1.21679 l 1.81445,0.15821 c 0.1359,-0.0289 0.22423,-0.0508 0.36329,-0.0801 2.07019,-0.43601 5.78365,-1.80483 8.25195,-3.04297 l 2.33789,-1.17383 0.54492,-0.32617 0.31836,-0.10547 1.28711,-0.64648 0.28125,0.12304 0.54687,-0.18164 2.10743,-1.34179 c -0.17147,-0.26207 0.0781,-0.45551 0.625,-0.75 l 0.18945,-1.39844 z m 0.88282,-0.10156 c -0.77014,0.009 -1.82003,0.26122 -2.66016,0.66992 -0.67628,0.329 -1.56454,0.60681 -2.38867,0.78711 l 2.10547,0.36524 1.78515,0.89257 c 0,0 -0.17425,-0.34206 1.05274,-0.98242 0.4296,-0.22422 0.73317,-0.34231 0.97656,-0.31641 0.40564,0.0434 0.64247,0.48809 1.00977,1.51563 0.34572,0.96732 0.57013,1.74113 0.54296,1.8418 l 1.53125,0.94531 1.29102,0.72656 c -0.14575,-0.24113 -0.25904,-0.51637 -0.3418,-0.83789 -0.59108,-2.29659 -2.70869,-5.05541 -4.24609,-5.53125 -0.17634,-0.0546 -0.40149,-0.079 -0.6582,-0.0762 z m 5.58007,9.69531 -0.40625,3.89649 -0.0332,0.0801 c 0.009,-0.002 0.0208,-0.0176 0.0293,-0.0176 0.24729,0 1.12049,1.57515 1.93945,3.50195 0.81898,1.92684 1.38273,3.58293 1.25195,3.67969 -0.13043,0.0969 -1.40208,-0.16142 -2.82617,-0.57422 -1.54622,-0.44819 -2.22512,-0.83221 -2.3789,-1.41406 l -0.17383,0.66992 -1.625,1.70508 -2.01367,0.68554 c 1.1491,-0.025 2.36624,-0.0105 3.57421,0.0645 2.81239,0.17461 4.57916,0.62689 5.45118,1.39648 3.24294,2.8622 3.06557,-1.79623 -0.33789,-8.86523 -1.12856,-2.34415 -2.03331,-4.37172 -2.13477,-4.76563 z m -28.54297,2.02735 c -0.65798,-0.11426 -2.22557,0.92526 -4.13671,2.82421 -2.01706,2.00421 -3.04961,3.71149 -3.67969,6.08008 -0.92825,3.4896 -0.70156,4.68892 0.7793,4.13477 0.49821,-0.18633 0.90429,-0.10983 0.90429,0.16797 0,0.27779 3.46759,0.83575 7.70508,1.24023 4.23757,0.40437 8.38899,1.00195 9.22461,1.32813 v -0.004 c 3.34564,1.30707 12.58135,0.16538 11.99023,-1.48242 -0.2635,-0.73111 -1.31504,-0.73764 -5.13085,-0.0234 -1.44855,0.27114 -3.59987,0.13329 -5.33985,-0.3418 -1.16703,-0.31863 -1.99356,-0.67441 -2.45312,-0.99218 l -2.50586,0.13867 -1.77539,-0.44336 0.082,0.11133 -5.73633,-0.4375 c -3.15489,-0.24061 -5.82758,-0.51363 -5.93945,-0.60547 -0.84964,-0.69808 1.09856,-4.93283 3.47656,-7.55469 1.57447,-1.73582 2.86589,-3.37045 2.86914,-3.63086 0.004,-0.30537 -0.11466,-0.47168 -0.33399,-0.50976 z m 26.85938,-8.42188 -1.64453,0.30859 0.48633,1.70313 0.73047,3.00391 0.8125,2.75976 0.79687,2.63086 c 0.03,-0.0149 0.0655,-0.0527 0.0918,-0.0527 0.21931,0 0.93263,1.26235 1.66211,2.88671 0.0841,0.0843 0.15677,0.13477 0.20898,0.13477 0.36199,0 0.27178,-3.0371 0.24805,-3.76367 -0.79345,-1.70224 -1.43164,-3.13467 -1.43164,-3.28516 0,-0.0452 0.0445,-0.071 0.11718,-0.084 l -0.55859,-2.44336 -0.30664,-0.92188 c -0.0799,-0.17473 -0.15109,-0.36056 -0.20508,-0.57031 -0.19373,-0.75274 -0.56026,-1.55124 -1.00781,-2.30664 z m -4.23438,15.32813 c -0.61287,0.15971 -2.55178,1.0346 -4.58984,2.04882 l -2.48047,1.4375 -3.57031,0.97266 -0.48633,0.69727 c 3.67709,0.21147 5.9888,-0.0552 5.07813,-0.61719 -1.3208,-0.81536 4.13493,-1.5162 9.30468,-1.19531 1.77934,0.11047 3.13673,0.33298 4.11719,0.67578 l -0.72461,-1.66993 -2.51758,-1.3789 -2.59765,-0.89453 z"
       inkscape:connector-curvature="0" />
  </g>
</svg>
