<?xml version="1.0" encoding="UTF-8" standalone="no"?>
<svg
   xmlns:dc="http://purl.org/dc/elements/1.1/"
   xmlns:cc="http://creativecommons.org/ns#"
   xmlns:rdf="http://www.w3.org/1999/02/22-rdf-syntax-ns#"
   xmlns:svg="http://www.w3.org/2000/svg"
   xmlns="http://www.w3.org/2000/svg"
   id="svg8"
   version="1.1"
   viewBox="0 0 210 297"
   height="297mm"
   width="210mm">
  <defs
     id="defs2" />
  <metadata
     id="metadata5">
    <rdf:RDF>
      <cc:Work
         rdf:about="">
        <dc:format>image/svg+xml</dc:format>
        <dc:type
           rdf:resource="http://purl.org/dc/dcmitype/StillImage" />
        <dc:title></dc:title>
      </cc:Work>
    </rdf:RDF>
  </metadata>
  <g
     style="display:inline"
     id="layer18">
    <path
       id="path5271"
       transform="scale(0.26458333)"
       d="m 351.60156,478.94922 c 0,0 -2.35246,0.40234 -2.58203,0.40234 -0.22457,0 -3.02364,0.75159 -3.14844,0.78516 0.023,0.0923 -0.17302,0.14511 -0.59765,0.16406 -1.96611,0.0881 -5.53213,1.56654 -9.71289,4.02734 -2.46214,1.44934 -3.9495,2.92598 -5.30469,5.26758 -1.03578,1.78976 -3.21061,4.31376 -4.83203,5.60938 -2.6688,2.13245 -3.81717,4.09765 -2.39649,4.09765 1.53487,0 6.28746,-4.29488 8.58008,-7.7539 3.07385,-4.63771 7.25623,-7.43616 13.52344,-9.04688 2.31405,-0.59474 4.55047,-1.3358 4.96875,-1.64648 0.0795,-0.059 0.19396,-0.0923 0.32422,-0.11524 l 0.14453,-0.0684 0.32617,0.0508 c 0.2387,0.014 0.51071,0.0558 0.81055,0.12304 l 0.35547,0.0547 c 0,0 0.17369,0.0915 0.18554,0.0977 1.89419,0.54259 4.41016,1.79812 5.44532,2.88672 0.008,0.005 0.10512,0.0554 0.10937,0.0586 0.22958,0.17216 2.23828,3.5 2.23828,3.5 0,0 1.7793,5.10881 1.7793,5.45312 0,0.34436 0.57422,1.14844 0.57422,1.14844 0,0 -1e-5,0.0289 0,0.0293 0.36132,0.25601 0.70024,1.17571 1.11133,2.86133 0.45422,1.86255 0.31019,1.91669 -3.16016,1.16797 -0.67456,-0.14555 -1.07878,-0.26142 -1.27344,-0.38477 -3e-5,-10e-6 -0.008,-0.002 -0.008,-0.002 l -3.09766,-0.84571 c -0.61821,0.15712 -1.17387,-0.11139 -2.4414,-0.76953 -2.53701,-1.31731 -3.21289,-1.45819 -3.21289,-0.66797 0,0.30244 0.99174,1.21453 2.20507,2.02539 0.93682,0.62595 1.44915,1.01478 1.62696,1.32422 8.3e-4,4.8e-4 0.043,0.0254 0.043,0.0254 l 2.41015,1.37696 -0.13672,0.15039 c 0.93072,-0.27353 2.46797,-0.17327 6.13672,0.26172 6.46303,0.7663 8.76104,0.18368 5.47852,-1.38868 -1.24124,-0.59455 -2.02598,-1.6733 -2.58984,-3.55664 -0.44516,-1.48648 -1.09691,-3.04773 -1.44727,-3.4707 -0.35036,-0.42297 -0.84241,-2.25981 -1.09375,-4.08203 -0.25123,-1.82226 -0.7202,-3.47175 -1.04297,-3.66602 -0.32262,-0.19445 -0.58852,0.0182 -0.58984,0.47266 -10e-4,0.45445 -0.5701,-0.082 -1.26367,-1.19141 -1.38954,-2.22229 -3.01063,-3.4094 -6.46094,-4.52343 z m -29.33984,13.01562 c -0.14364,0.0558 -0.55499,0.63131 -1.36914,1.78125 -1.65116,2.33209 -1.99961,3.94019 -1.25977,5.82032 0.77979,1.9816 1.87305,0.99941 1.87305,-1.6836 0,-1.47545 0.2338,-3.53468 0.51953,-4.57617 0.25597,-0.93315 0.37996,-1.39758 0.23633,-1.3418 z m 6.375,6.79102 c -0.36234,0.0257 -0.33399,0.22093 -0.33399,0.52539 0,0.94295 2.04843,1.80341 8.22852,3.45703 6.7276,1.80015 6.48815,1.76373 6.9375,1.05469 0.65042,-1.02622 -1.205,-1.85262 -7.8457,-3.49414 -4.6968,-1.16098 -6.38243,-1.58578 -6.98633,-1.54297 z"
       style="display:inline;fill:#000000;stroke-width:0.63920003" />
  </g>
</svg>
