<?xml version="1.0" encoding="UTF-8" standalone="no"?>
<!-- Created with Inkscape (http://www.inkscape.org/) -->

<svg
   xmlns:dc="http://purl.org/dc/elements/1.1/"
   xmlns:cc="http://creativecommons.org/ns#"
   xmlns:rdf="http://www.w3.org/1999/02/22-rdf-syntax-ns#"
   xmlns:svg="http://www.w3.org/2000/svg"
   xmlns="http://www.w3.org/2000/svg"
   xmlns:sodipodi="http://sodipodi.sourceforge.net/DTD/sodipodi-0.dtd"
   xmlns:inkscape="http://www.inkscape.org/namespaces/inkscape"
   width="210mm"
   height="297mm"
   viewBox="0 0 210 297"
   version="1.1"
   id="svg8"
   inkscape:version="0.92.3 (2405546, 2018-03-11)"
   sodipodi:docname="Wolv_HUG.svg">
  <defs
     id="defs2" />
  <sodipodi:namedview
     id="base"
     pagecolor="#ffffff"
     bordercolor="#666666"
     borderopacity="1.0"
     inkscape:pageopacity="0.0"
     inkscape:pageshadow="2"
     inkscape:zoom="0.54447222"
     inkscape:cx="339.84611"
     inkscape:cy="483.78147"
     inkscape:document-units="mm"
     inkscape:current-layer="layer4"
     showgrid="false"
     inkscape:snap-others="true"
     inkscape:object-nodes="true"
     inkscape:snap-nodes="true"
     inkscape:snap-global="false"
     inkscape:window-width="962"
     inkscape:window-height="577"
     inkscape:window-x="-8"
     inkscape:window-y="-8"
     inkscape:window-maximized="1" />
  <metadata
     id="metadata5">
    <rdf:RDF>
      <cc:Work
         rdf:about="">
        <dc:format>image/svg+xml</dc:format>
        <dc:type
           rdf:resource="http://purl.org/dc/dcmitype/StillImage" />
        <dc:title></dc:title>
      </cc:Work>
    </rdf:RDF>
  </metadata>
  <g
     inkscape:groupmode="layer"
     id="layer4"
     inkscape:label="HUG"
     style="display:inline">
    <path
       style="display:inline;fill:#000000;stroke-width:0.16912168"
       d="m 79.579247,197.02849 c -0.0537,-0.20854 -10e-4,-2.82015 0.11703,-5.80356 0.11804,-2.98342 0.22499,-7.67901 0.23766,-10.43466 0.025,-5.44447 0.11787,-6.59684 0.53145,-6.59684 0.22085,0 0.25171,0.28487 0.20359,1.87884 -0.0312,1.03337 -0.0375,3.66974 -0.0139,5.85861 l 0.0428,3.97976 1.15601,-0.10131 c 0.63581,-0.0557 1.63583,-0.14262 2.22226,-0.19316 l 1.06625,-0.0919 -0.10898,-4.49638 c -0.0748,-3.08823 -0.0528,-4.49637 0.0703,-4.49637 0.0986,0 0.22678,0.3194 0.28483,0.70979 0.1725,1.16019 0.44402,5.28136 0.44564,6.76385 0.001,0.99102 0.0616,1.37737 0.21558,1.37619 0.11774,-8.3e-4 0.62633,-0.18878 1.1302,-0.41751 1.06941,-0.48549 1.05338,-0.48258 1.05338,-0.19127 0,0.35684 -0.64747,0.83853 -1.51348,1.12597 l -0.79855,0.26504 -0.0313,5.32603 c -0.0179,3.05068 -0.0984,5.34783 -0.18837,5.37706 -0.0864,0.028 -0.26494,-0.0762 -0.39682,-0.23163 -0.1938,-0.22847 -0.23978,-1.24639 -0.23978,-5.30809 v -5.02542 l -0.42815,0.0334 c -0.23549,0.0183 -1.16571,0.0807 -2.06716,0.13859 -0.90145,0.0579 -1.74919,0.1715 -1.88387,0.25258 -0.20101,0.12099 -0.2543,1.00111 -0.29747,4.91342 -0.0466,4.22479 -0.0223,4.76602 0.21407,4.76602 0.14668,0 0.26668,0.0801 0.26668,0.17799 0,0.78232 -1.10496,1.16343 -1.28989,0.4449 z"
       id="path4236"
       inkscape:connector-curvature="0" />
    <path
       style="display:inline;fill:#000000;stroke-width:0.16912168"
       d="m 92.567027,194.90987 c -0.73835,-0.43902 -0.97222,-0.83729 -1.50884,-2.5695 -0.40375,-1.3033 -0.44785,-1.6757 -0.37574,-3.17317 0.0449,-0.93311 0.16807,-3.72573 0.27365,-6.2058 0.22812,-5.35858 0.41867,-6.47435 0.58734,-3.43922 0.16941,3.04826 0.14332,5.47118 -0.0887,8.23773 -0.18118,2.16028 -0.1724,2.59825 0.072,3.59069 0.56801,2.30678 1.45187,3.57658 2.11562,3.03939 0.4973,-0.40247 1.07556,-1.76229 1.3512,-3.17744 0.15038,-0.77209 0.45967,-2.11776 0.687298,-2.99038 0.22763,-0.87262 0.53542,-2.28069 0.68397,-3.12904 0.14854,-0.84835 0.46057,-2.18346 0.69339,-2.96693 0.23282,-0.78346 0.42331,-1.71952 0.42331,-2.08013 0,-0.69409 0.28016,-1.04014 0.53031,-0.65502 0.2701,0.41585 0.15749,1.71146 -0.25951,2.98581 -0.22542,0.68891 -0.53484,1.96653 -0.68759,2.83915 -0.15275,0.87262 -0.46198,2.26297 -0.68717,3.08966 -0.2252,0.8267 -0.53705,2.14189 -0.693,2.92265 -0.452528,2.26562 -1.437008,4.00928 -2.262718,4.00759 -0.16912,-3.3e-4 -0.55377,-0.14706 -0.85478,-0.32604 z"
       id="path4224"
       inkscape:connector-curvature="0" />
    <path
       style="display:inline;fill:#000000;stroke-width:0.16912168"
       d="m 102.00146,194.73881 c -0.38692,-0.19179 -0.87159,-0.5232 -1.07704,-0.73647 -0.55213,-0.57312 -1.559365,-3.91955 -1.557735,-5.17543 0.002,-1.44931 0.807915,-8.35009 1.109375,-9.49772 0.66695,-2.53909 1.97645,-3.62142 3.78431,-3.12782 1.38977,0.37945 1.4021,0.97369 0.0139,0.67031 -1.01601,-0.22204 -1.6758,0.0148 -2.23555,0.80247 -0.69056,0.97173 -0.93864,2.01886 -1.39108,5.87177 -0.57146,4.86634 -0.55794,5.82309 0.11385,8.05212 0.5018,1.66498 0.58794,1.82368 1.22279,2.25271 0.56195,0.37976 0.86837,0.46204 1.72939,0.46439 1.24535,0.003 2.19298,-0.50239 3.01527,-1.60936 0.70943,-0.95502 0.82952,-1.52242 0.62411,-2.94899 -0.16571,-1.15094 -0.0131,-2.88629 0.33057,-3.75972 0.0779,-0.19793 -0.0289,-0.32807 -0.38001,-0.46266 -0.40816,-0.15653 -0.69935,-0.11549 -1.77284,0.24981 -1.52141,0.51775 -2.2784,0.56999 -2.19576,0.15155 0.0722,-0.36557 2.53153,-1.21979 3.51348,-1.22036 0.49954,-3.3e-4 0.85545,0.1146 1.1686,0.37727 l 0.45027,0.37769 -0.30542,1.44692 c -0.25886,1.22635 -0.27637,1.64349 -0.1149,2.73648 0.15219,1.03017 0.14333,1.44449 -0.044,2.05967 -0.32355,1.06243 -1.11522,2.05319 -2.16603,2.71076 -1.16097,0.72649 -2.74285,0.85624 -3.83555,0.31461 z"
       id="path4222"
       inkscape:connector-curvature="0" />
  </g>
</svg>
