<?xml version="1.0" encoding="UTF-8" standalone="no"?>
<svg
   xmlns:dc="http://purl.org/dc/elements/1.1/"
   xmlns:cc="http://creativecommons.org/ns#"
   xmlns:rdf="http://www.w3.org/1999/02/22-rdf-syntax-ns#"
   xmlns:svg="http://www.w3.org/2000/svg"
   xmlns="http://www.w3.org/2000/svg"
   xmlns:xlink="http://www.w3.org/1999/xlink"
   width="210mm"
   height="297mm"
   viewBox="0 0 210 297"
   version="1.1"
   id="svg8">
  <defs
     id="defs2">
    <linearGradient
       id="linearGradient5394">
      <stop
         style="stop-color:#000000;stop-opacity:1;"
         offset="0"
         id="stop5390" />
      <stop
         style="stop-color:#000000;stop-opacity:0;"
         offset="1"
         id="stop5392" />
    </linearGradient>
    <linearGradient
       xlink:href="#linearGradient5394"
       id="linearGradient5396"
       x1="85.216446"
       y1="511.84534"
       x2="112.9108"
       y2="125.6224"
       gradientUnits="userSpaceOnUse" />
  </defs>
  <metadata
     id="metadata5">
    <rdf:RDF>
      <cc:Work
         rdf:about="">
        <dc:format>image/svg+xml</dc:format>
        <dc:type
           rdf:resource="http://purl.org/dc/dcmitype/StillImage" />
        <dc:title></dc:title>
      </cc:Work>
    </rdf:RDF>
  </metadata>
  <g
     id="layer19"
     style="display:none">
    <rect
       style="fill:url(#linearGradient5396);fill-opacity:1;stroke:none;stroke-width:0.26499999;stroke-miterlimit:4;stroke-dasharray:none;stroke-opacity:1"
       id="rect5380"
       width="211.87184"
       height="303.22943"
       x="0"
       y="-3.3137596" />
  </g>
  <g
     id="layer14"
     style="display:inline">
    <path
       style="display:inline;fill:#000000;stroke-width:0.63920003"
       d="m 478.78516,821.41016 c -319.19011,200.73974 -159.59505,100.36985 0,0 z m 2.72851,9.98046 c 0,0 -3.31989,0.59229 -6.42969,0.82813 l -5.65429,0.42969 -2.89844,-0.28516 c 0,0 -2.28974,0.29743 -5.04883,0.54688 -4.381,0.39564 -10.11912,0.30445 -25.22461,0.29689 -11.31813,-0.006 -20.79579,0.32728 -26.39648,0.92774 -20.67167,2.21593 -35.18974,2.22054 -57.23828,0.0215 -8.08071,-0.80598 -12.47889,-0.85506 -26.86328,-0.29883 -9.46001,0.36571 -20.69469,0.61018 -24.9668,0.54102 -4.27208,-0.069 -14.84594,0.10722 -23.49609,0.39258 l -15.72657,0.51953 -2.20508,-0.35352 -6.14843,0.43945 c -3.38208,0.24174 -10.22684,1.13501 -15.21094,1.98438 -25.36135,4.32178 -35.92613,5.29683 -43.21484,5.03906 -29.18624,-1.03317 -38.02776,-1.10728 -44.16993,-0.36914 -3.56007,0.42792 -8.71897,0.96224 -11.46484,1.1875 -2.74587,0.22507 -5.33247,0.73925 -5.74805,1.14453 -1.38693,1.35251 3.25892,1.56989 11.69336,0.54492 8.88501,-1.07973 16.55697,-1.18488 41.83985,-0.5664 l 16.90234,0.41406 2.59182,-0.0254 2.1914,-0.38086 c 1.20579,-0.20901 3.77355,-0.57439 5.70508,-0.8125 l 3.51172,-0.43359 0.60445,0.0128 0.58066,0.0723 c 0.41655,-0.59831 4.19829,-1.07672 15.60395,-2.93271 8.9751,-1.4606 18.01279,-2.65685 25.22657,-2.81445 l 11.86523,0.0312 c 19.84184,-0.82373 38.73804,-1.26483 54.58594,-1.31446 15.84789,-0.0496 28.6484,0.29165 36.29883,1.0293 10.14031,0.97784 14.20621,1.06915 26.53906,0.59766 6.60495,-0.25066 11.36519,-0.30703 13.57812,-0.17774 l 0.19532,-0.01 4.2207,-0.32422 5.33008,-0.88867 c 0.0431,-0.1258 0.1845,-0.22594 0.41601,-0.31446 1.94574,-0.74441 22.55262,-1.18917 32.02344,-0.6914 l 8.83789,0.46289 c 0,0 2.23233,0.13758 2.27733,0.0937 0.20055,-0.19555 2.27533,-0.50457 4.60938,-0.6875 0.79924,-0.0625 1.46402,-0.10061 2.01172,-0.11524 0.91033,-0.0243 1.48626,0.0242 1.82812,0.14649 l 3.3711,-0.1543 0.21484,-0.50195 7.87109,-0.45899 c 6.23229,-0.36287 8.03795,-0.28148 8.66993,0.39063 -2.7e-4,0.002 2.6e-4,0.004 0,0.006 l 4.14843,0.0566 c -1.16942,-0.25836 -1.86523,-0.4596 -1.86523,-0.55469 0,-0.11848 2.49897,-0.17537 6.2539,-0.1875 11.26483,-0.0364 33.83975,0.33526 34.20899,0.69531 -0.0215,0.20821 -0.0793,0.40324 -0.16602,0.58789 l 0.25196,0.004 2.37304,0.81836 c 0.0432,-0.19139 0.0789,-0.38504 0.12305,-0.57617 l 5.48047,-0.18555 5.47851,-0.18555 c 0,0 1.03249,-0.0624 2.17383,0.16211 l 3.79102,-0.39648 c 7.35783,-0.77201 21.34813,-3.00275 28.0625,-4.47461 9.51999,-2.08687 13.78433,-2.65268 30.74609,-4.07813 8.46172,-0.7111 18.37974,-1.95934 22.97852,-2.89062 7.9412,-1.60826 8.42194,-1.62971 25.89258,-1.22852 13.82025,0.31733 18.1183,0.61101 19.22461,1.31446 1.17154,0.74509 4.39696,0.86242 18.125,0.66211 9.18447,-0.13418 16.77017,-0.27275 16.85937,-0.31055 0.0888,-0.0366 0.16211,-0.44055 0.16211,-0.89844 0,-0.63904 -1.76874,-0.84514 -7.60547,-0.88672 -4.18307,-0.0302 -8.3346,-0.0872 -9.22461,-0.125 -0.89,-0.0382 -3.87573,0.10728 -6.63672,0.32422 -3.59996,0.28332 -6.16386,0.11278 -9.0625,-0.60351 -5.38692,-1.33119 -28.51185,-2.36399 -37.70117,-1.6836 -3.91608,0.28993 -9.01407,0.96404 -11.32812,1.49805 -5.48841,1.26652 -12.39275,2.11568 -23.94922,2.94336 -13.41653,0.96079 -19.26206,1.74436 -28.80469,3.86328 -18.05885,4.00959 -23.58459,4.48576 -47.25195,4.07031 -11.74825,-0.20625 -26.2003,-0.5514 -32.11719,-0.76757 l -10.75781,-0.39454 z m 229.06445,-9.5371 c -0.49873,-5e-4 -0.48429,4.01928 0.0527,14.04296 0.41405,7.72487 0.73557,15.32446 0.71289,16.88672 l -0.043,2.83985 -0.47851,-2.83985 c -0.26382,-1.56226 -0.35425,2.12964 -0.20118,8.20508 0.15349,6.0754 0.0435,16.68265 -0.24414,23.57031 -0.28724,6.8877 -0.41107,13.65731 -0.27539,15.04493 0.16218,1.65807 0.46543,2.30929 0.88477,1.90039 0.35675,-0.34791 0.70226,-5.31028 0.78125,-11.25782 0.12234,-9.20186 0.37478,-11.5225 1.87695,-17.20117 2.09734,-7.92884 2.15804,-10.38811 0.35547,-14.37109 -1.22615,-2.70932 -1.45644,-4.9394 -2.05273,-19.93555 -0.44784,-11.26322 -0.9029,-16.88431 -1.36915,-16.88476 z M 130.94336,844.0332 c -0.25993,0 -0.51066,1.12773 -0.70898,3.38477 -0.27248,3.10084 -0.0288,6.20578 0.81835,10.41406 1.07327,5.33137 1.15809,7.78325 0.75196,22.09375 -0.25127,8.85279 -0.40876,16.91895 -0.34961,17.92578 0.0684,1.1641 -0.40297,2.29298 -1.29297,3.10156 -1.29734,1.17869 -1.31919,1.33041 -0.30078,2.05665 0.93353,0.66568 1.00922,1.2659 0.5,3.99804 l -0.002,-0.002 c -0.57385,3.07869 -0.53638,3.21484 0.84374,3.21484 1.24835,0 1.55094,-0.52869 2.26758,-3.94531 0.45513,-2.16983 1.02178,-4.15995 1.25782,-4.42187 0.44554,-0.49463 7.05569,-1.02816 33.36914,-2.69727 8.54418,-0.54195 20.73185,-1.70412 27.08398,-2.58203 6.35213,-0.87791 11.86328,-1.28906 11.86328,-1.28906 l 3.9336,-0.5293 9.90039,-0.17383 9.89843,-0.17578 c 0,0 2.95246,0.5207 3.09571,0.38086 0.63896,-0.62306 33.83092,1.70948 47.25195,3.32031 l 3.63672,0.43555 h 3.10547 l 16.33203,-0.16797 c 10.48188,-0.10821 16.33398,0.45703 16.33398,0.45703 l 3.93164,-0.60351 h 4.60157 4.60156 l 3.37109,0.0801 20.06641,-0.71093 c 11.03625,-0.39122 22.68657,-0.97651 25.89062,-1.30078 3.2041,-0.32425 10.58379,-1.03761 16.39844,-1.58594 l 10.57227,-0.99805 2.81836,-0.20508 7.57031,-0.67573 c 0,0 11.78304,-0.73226 25.8125,-1.26562 14.02938,-0.5333 27.10835,-1.2282 29.06641,-1.54493 1.95801,-0.31668 12.21621,-0.77455 22.79492,-1.01757 l 19.23437,-0.44336 c 0,0 2.63477,0.5173 2.63477,0.40429 0,-0.113 0.66992,-0.20507 1.49023,-0.20507 1.2491,0 4.33594,0.76204 4.33594,0.49218 21.49319,-4.76402 54.07521,1.51578 77.67383,-3.66992 19.07917,-1.06137 36.02825,-2.96133 48.17187,-5.40234 2.83556,-0.56999 12.45264,-1.13616 26.21485,-1.54102 28.17343,-0.82919 29.82617,-0.97292 29.82617,-2.5957 0,-0.89106 -0.32864,-1.16692 -1.13281,-0.94922 -1.67596,0.45301 -12.24989,0.98254 -28.31836,1.41602 -17.43776,0.4704 -22.53443,0.90287 -34.95313,2.96679 -10.13635,1.68461 -24.50633,3.12378 -42.07422,4.21289 -26.31405,1.64901 -50.36285,3.861 -77.18359,3.17774 0.007,-0.0746 0.0126,-0.14997 0.0195,-0.22461 h -4.48828 -1.22461 l 0.16016,0.13867 -16.80079,-0.10742 -2.4082,0.0879 -11.25391,-0.0469 -6.96874,0.56641 6.31835,-0.0606 c -5.44617,0.24804 -10.92289,0.61563 -13.03711,0.89844 -2.49205,0.33309 -13.41519,0.89183 -24.27343,1.24219 -10.85825,0.35013 -22.69036,0.81966 -26.29297,1.04492 l -6.54883,0.41016 -0.30664,-0.29688 -6.45508,0.50586 -1.36523,0.11328 c -0.0223,0.42888 -2.0077,0.80068 -5.76758,1.07031 -3.3097,0.23717 -9.51308,0.82749 -13.78516,1.31055 -4.27207,0.48306 -14.32185,1.16123 -22.33203,1.50781 -19.79258,0.85599 -41.42578,1.42509 -41.42578,1.08985 0,-0.007 0.031,-0.0783 0.0332,-0.0899 l -3.84961,-0.0605 c -0.59683,0.30006 -1.41851,0.3574 -2.9121,0.36132 l -3.16797,0.008 0.85742,-0.44532 L 310,895.83203 c -1.21599,0.44947 -3.56444,0.5 -10.27734,0.5 -5.46901,0 -9.93555,-0.16243 -10.20508,-0.36523 l -5.08008,-0.33985 c -2.69152,0.20529 -7.52438,-0.0769 -15.2168,-0.84961 -12.50562,-1.2562 -26.37513,-2.22851 -31.88281,-2.22851 -0.47999,-2.7e-4 -0.93699,-0.0961 -1.37109,-0.25781 l -6.7461,-0.12891 -0.14258,-0.0469 c 10e-4,0.005 0.0293,0.11719 0.0293,0.11719 l -14.38281,0.0723 c -7.8164,0.98645 -31.84488,3.78437 -45.6543,4.64648 -27.15549,1.69535 -30.88097,1.95843 -32.88281,2.31445 l -2.13672,0.37891 0.51758,-9.07031 c 0.95332,-16.70015 0.60157,-27.89349 -1.08984,-34.63477 -0.82752,-3.29809 -1.62402,-7.13285 -1.76954,-8.52148 -0.23654,-2.25704 -0.50569,-3.38477 -0.76562,-3.38477 z m 387.47266,42.74805 c 0,0 -2.27692,-0.0862 -3.57618,-0.13867 h -1.76562 z m 193.0371,-31.1582 1.69141,3.47265 c 1.28651,2.64008 1.60699,4.07602 1.33789,5.9961 -0.19468,1.38867 -0.78104,3.9439 -1.30273,5.67968 l -0.94922,3.15625 -0.043,-5.11328 c -0.0242,-2.81325 -0.19894,-6.93359 -0.38867,-9.15429 z"
       id="path45"
       transform="scale(0.26458333)" />
  </g>
</svg>
