<?xml version="1.0" encoding="UTF-8" standalone="no"?>
<svg
   xmlns:dc="http://purl.org/dc/elements/1.1/"
   xmlns:cc="http://creativecommons.org/ns#"
   xmlns:rdf="http://www.w3.org/1999/02/22-rdf-syntax-ns#"
   xmlns:svg="http://www.w3.org/2000/svg"
   xmlns="http://www.w3.org/2000/svg"
   id="svg8"
   version="1.1"
   viewBox="0 0 210 297"
   height="297mm"
   width="210mm">
  <defs
     id="defs2" />
  <metadata
     id="metadata5">
    <rdf:RDF>
      <cc:Work
         rdf:about="">
        <dc:format>image/svg+xml</dc:format>
        <dc:type
           rdf:resource="http://purl.org/dc/dcmitype/StillImage" />
        <dc:title></dc:title>
      </cc:Work>
    </rdf:RDF>
  </metadata>
  <g
     style="display:inline"
     id="layer14">
    <g
       style="display:inline"
       id="layer15">
      <path
         transform="scale(0.26458333)"
         id="path5066"
         d="m 469.50586,828.82812 c -0.40998,-0.0362 -1.07101,0.52795 -1.82617,1.70508 -0.47866,0.74613 -0.72778,1.14956 -0.89844,1.42969 l -0.84766,2.54883 -1.08593,1.35547 c -0.0849,0.58861 -1.02386,2.81693 -2.19141,5.17187 -1.22283,2.46656 -2.64225,5.03462 -3.1543,5.70703 -0.92111,1.20941 -0.93492,1.20941 -1.27734,0 -1.30235,-4.59998 -2.50265,-10.49123 -2.19727,-10.78906 0.0217,-0.0212 0.14326,-0.0467 0.20704,-0.0703 l 0.0566,-0.6875 0.43359,-2.28125 c -0.18859,-0.12944 -0.25977,-0.31426 -0.25977,-0.57617 0,-1.28572 -1.6765,-1.34319 -2.17578,-0.0742 -0.043,0.10941 -0.14125,0.20486 -0.29297,0.29101 l -0.002,0.002 -0.34375,1.7207 -0.084,1.57227 0.18359,0.01 0.30078,1.99024 c 0.60431,3.97984 2.57662,12.1196 3.22852,13.32421 0.63106,1.16591 0.76885,1.11788 2.46484,-0.86328 l 1.79688,-2.09765 -0.61719,2.4414 c -0.62559,2.47178 -1.75451,8.51044 -3.52344,18.85157 -1.97083,11.52162 -2.06397,12.33563 -1.44141,12.71093 1.18273,0.71275 1.80849,-0.81731 2.48438,-6.07422 0.37406,-2.9091 0.80793,-5.48788 0.96289,-5.73242 0.15481,-0.24427 0.73316,-3.60189 1.28516,-7.46094 0.55192,-3.85893 1.84322,-9.78592 2.86914,-13.16992 1.02591,-3.384 2.07792,-7.28906 2.33984,-8.67773 0.26196,-1.38868 0.85687,-3.41131 1.32031,-4.49414 l 0.8418,-1.96875 0.375,-0.0215 1.08398,-2.41992 0.30274,-1.47851 c 0.25056,-1.22168 0.0916,-1.85831 -0.31836,-1.89454 z m 193.54102,0.61524 c -0.92634,0.0373 -1.91242,0.89246 -2.42579,2.44141 -0.6664,2.01055 -0.73438,2.05005 -1.10742,0.6582 -0.21864,-0.81555 -0.62335,-1.26009 -0.90039,-0.99024 -0.46822,0.45659 -0.82419,4.79913 -1.88476,22.9668 -0.34525,5.91625 -0.26179,7.09961 0.50781,7.09961 1.06363,0 2.32289,-6.28151 2.7832,-13.88672 0.37342,-6.16974 1.4774,-15.02047 1.9707,-15.79883 0.51848,-0.81815 1.60743,-0.78092 1.60743,0.0547 0,0.3665 1.60236,3.32249 3.5625,6.57031 3.78236,6.26722 7.75492,14.8581 9.20312,19.9043 0.23002,0.8013 0.39949,0.77857 1.09961,-0.14844 0.77363,-1.02429 1.05853,-4.36874 1.97461,-23.20507 0.26067,-5.361 0.19111,-5.86687 -0.6543,-4.77149 -0.65692,0.85123 -0.96012,2.97077 -0.99414,6.94336 -0.0268,3.14498 -0.39823,8.13113 -0.82422,11.08203 l -0.77343,5.36719 -1.9043,-4.73438 c -1.04731,-2.60375 -3.46287,-7.39082 -5.36719,-10.63671 -1.90435,-3.24609 -3.7362,-6.60367 -4.07031,-7.46094 -0.39731,-1.01903 -1.08236,-1.48406 -1.80273,-1.45508 z m 23.98437,1.26953 c -0.35135,0.0304 -0.80098,0.52406 -1.07617,1.39844 -0.24582,0.78111 -0.58616,7.24241 -0.75586,14.35937 -0.2674,11.20842 -0.1857,12.79277 0.60547,11.83594 0.76206,-0.92171 2.00765,-1.10547 7.51953,-1.10547 6.1079,0 9.10937,-0.59115 9.10937,-1.79297 0,-0.26721 -3.54042,-0.36136 -7.86718,-0.21093 l -7.86524,0.27343 0.42188,-3.00976 c 0.23259,-1.65544 0.42383,-4.39072 0.42383,-6.07813 v -3.06836 h 6.47265 c 5.32214,0 6.47266,-0.16876 6.47266,-0.94726 0,-0.77862 -1.15052,-0.94727 -6.47266,-0.94727 h -6.47265 v -3.4707 -3.4707 h 6.47265 c 5.32214,0 6.47266,-0.16876 6.47266,-0.94727 0,-0.77862 -1.15052,-0.94727 -6.47266,-0.94727 -5.3221,0 -6.47266,-0.16879 -6.47265,-0.94726 0,-0.54342 -0.15342,-0.83714 -0.3711,-0.9082 -0.0453,-0.0148 -0.0943,-0.02 -0.14453,-0.0156 z m -52.86914,0.60352 c -0.72619,0.0186 -1.48665,0.22151 -2.25977,0.625 -2.02318,1.05592 -6.27458,8.35268 -7.74414,13.29101 -0.77079,2.59015 -1.81782,7.97636 -2.32617,11.96875 -0.50835,3.99247 -1.11647,8.06743 -1.35156,9.05664 h -0.002 c -0.35781,1.50588 -0.23852,1.76257 0.73437,1.57813 1.405,-0.26665 3.52483,-6.96328 3.56641,-11.26563 l 0.0293,-2.83984 2.90235,3.1543 c 1.59537,1.73582 3.93444,4.79091 5.19922,6.78711 2.28521,3.60676 3.5,4.52456 3.5,2.64648 0,-0.88997 -2.9838,-5.43067 -6.50586,-9.90234 l -1.36328,-1.73243 1.70312,-0.63281 c 2.7812,-1.03113 6.83447,-4.549 8.57422,-7.44336 1.38614,-2.30517 1.58627,-3.29293 1.36328,-6.70898 -0.34615,-5.30164 -2.8727,-8.6626 -6.01953,-8.58203 z m -105.55469,1.47265 c -0.47331,0.21687 -0.62563,0.83286 -0.91797,1.26367 -0.11896,0.1753 -0.33984,0.53706 -0.33984,0.53706 l -0.65234,3.04102 c 0,0 -1.15056,4.31028 -1.35352,6.25391 -0.20296,1.94362 -0.94298,7.36796 -1.64453,12.05468 -0.70159,4.68669 -1.53074,8.76877 -1.8418,9.07227 -0.84888,0.82779 -2.31101,-4.64292 -4.61523,-17.26367 -1.13269,-6.20387 -2.31552,-11.6565 -2.62696,-12.11719 -0.74211,-1.09674 -2.48437,0.999 -2.48437,2.98828 0,0.75613 -0.7487,3.4708 -1.66406,6.0332 -2.14375,6.00087 -3.42315,10.82757 -3.88868,14.66602 l -0.27929,2.31055 0.0391,1.00586 -1.26172,3.78906 -0.3125,0.44336 c -0.21489,0.80902 -0.55395,1.78194 -0.95117,2.64258 -1.07701,2.33348 -1.2192,2.43003 -1.86523,1.25781 -0.53708,-0.97444 -3.40821,-14.74722 -3.40821,-16.34766 0,-0.0217 0.0111,-0.0313 0.0312,-0.0332 0.0579,-0.005 0.20966,0.0834 0.40039,0.2168 l -0.55273,-2.75782 -0.99805,-6.99414 c -0.47505,-1.06016 -0.82226,-1.88589 -0.82226,-2.05664 0,-1.35073 -3.43385,-8.3164 -4.09961,-8.3164 -0.19308,0 -0.29018,0.32304 -0.30274,0.79101 l 0.36914,1.99609 1.81446,7.1543 c 0.11823,0.28318 0.16627,0.4613 0.1289,0.50586 l 0.008,0.0312 0.98438,6.5957 c 0.16728,0.62425 0.29974,1.26699 0.41406,2.00782 0.33578,2.17568 1.05008,5.94484 1.58594,8.375 0.53586,2.4302 1.43482,8.11179 1.99805,12.625 0.27433,2.1984 0.58035,4.38974 0.85937,6.20507 l 1.73438,-1.48632 0.0391,-0.0703 c 0.15441,-0.60746 0.47654,-1.2191 1.02344,-2.12304 0.80243,-1.3262 1.91498,-3.77527 2.47265,-5.44336 l 1.01367,-3.0332 0.125,0.24414 1.0293,-3.46875 c -0.049,-0.24295 -0.0779,-0.44737 -0.0625,-0.57618 0.0634,-0.53092 0.16737,-0.80767 0.44336,-0.71484 l 0.22852,-0.76953 0.46093,-1.1836 c -0.23086,-0.79818 -0.0498,-2.00391 0.41993,-4.88281 0.4467,-2.73785 1.39191,-6.35644 2.10156,-8.04101 0.70964,-1.68461 1.55903,-3.91359 1.88672,-4.95508 0.51235,-1.62849 0.84512,-0.56813 2.38086,7.57422 1.73801,9.21479 4.61667,17.35742 6.13672,17.35742 1.46524,0 2.67087,-3.2492 3.86914,-10.43945 0.69191,-4.15181 1.45865,-9.67945 1.70507,-12.28321 0.24605,-2.60379 0.92302,-6.1548 1.50586,-7.89062 l 1.06055,-3.15625 0.168,-0.33798 c 0,0 0.39349,-1.65872 -0.11328,-2.18164 -0.32105,-0.33128 -0.95977,-0.30723 -1.37916,-0.11507 z m 105.51758,0.74219 c 2.59907,0 4.36019,2.98782 4.32617,7.33594 -0.0314,3.96291 -2.13674,7.23581 -6.44336,10.01758 -1.61654,1.04413 -3.25275,1.86503 -3.63672,1.82421 -2.06188,-0.2163 -2.96484,-0.77096 -2.96484,-1.82617 0,-3.12034 2.23976,-9.95279 4.41016,-13.45312 2.07711,-3.34999 2.68506,-3.89844 4.30859,-3.89844 z m -64.38477,0.31445 c -0.3558,0 -0.65259,1.06533 -0.66015,2.36719 -0.0155,2.70705 3.18961,17.23266 5.71094,25.88086 1.29573,4.44431 1.96699,5.83789 2.81054,5.83789 1.79804,0 3.56351,-5.75784 4.16211,-13.57031 l 0.53321,-6.94336 0.43164,4.10156 c 0.43857,4.16848 0.95169,5.82564 3.25781,10.51758 1.51321,3.0788 2.66424,3.70171 4.06055,2.19727 1.61439,-1.73972 2.30711,-6.62427 2.49609,-17.60743 0.16195,-9.41465 0.0826,-10.25781 -0.95703,-10.25781 -0.74347,5.7e-4 -1.13147,0.48992 -1.13086,1.42188 0.008,9.96642 -0.57144,21.95013 -1.1211,23.19726 -0.67494,1.53139 -0.74641,1.47005 -2.42773,-2.05859 -1.27174,-2.66907 -1.89811,-5.35373 -2.35547,-10.09375 -0.64052,-6.63878 -1.09149,-7.83871 -2.7168,-7.23047 -1.1382,0.42588 -2.38476,6.85481 -2.38476,12.30273 0,2.12432 -0.33665,5.36731 -0.74805,7.20703 l -0.74805,3.34571 -0.94335,-2.21094 c -0.51908,-1.21508 -1.46759,-4.62328 -2.10743,-7.57422 -0.63983,-2.9509 -1.91503,-8.77343 -2.83398,-12.93945 -0.91895,-4.16602 -1.67317,-7.64549 -1.67578,-7.73242 -0.003,-0.0869 -0.29631,-0.15821 -0.65235,-0.15821 z m 77.82618,0.31641 c -0.92553,0 -1.23539,6.47854 -0.92774,19.41016 0.29318,12.30848 0.77973,15.4959 1.72461,11.30078 0.54149,-2.40416 -0.19294,-30.71094 -0.79687,-30.71094 z m -106.79102,0.80859 -0.25195,0.0937 0.36718,-0.0117 -1.44726,1.50196 c -0.79582,0.82609 -2.45033,3.85925 -3.67774,6.74023 -2.45956,5.77353 -3.13521,5.701 -4.61101,9.48469 l -0.34779,4.41184 3.03888,6.26949 c 3.66947,7.35844 5.18153,8.78152 8.47071,7.97656 6.56152,-1.606 11.03228,-13.78408 8.35547,-22.76367 -1.39828,-4.69051 -3.89309,-9.59374 -5.99024,-11.77539 l -1.61719,-1.6836 1.28321,-0.13476 -0.93164,-0.10938 z m 73.09766,0.54492 c -0.64592,0.0242 -1.95451,0.42302 -4.32422,1.21094 -2.49207,0.82863 -5.62394,1.51393 -6.95899,1.52149 -2.2868,0.0153 -2.97858,0.5322 -1.99609,1.49023 1.3677,1.33376 12.91223,-1.3663 13.62891,-3.1875 0.27921,-0.70966 0.29631,-1.05923 -0.34961,-1.03516 z m -208.08985,0.0293 -1.95117,1.14844 -0.49219,0.98242 c 0.43258,0.0443 0.73975,0.0978 0.78907,0.16797 0.22877,0.3258 1.18644,0.40438 2.1289,0.17383 1.86214,-0.45585 6.09089,1.08631 9.53321,3.47656 4.12422,2.86382 5.47091,9.25598 3.31836,15.75586 -1.99926,6.03662 -11.65128,14.44021 -16.61524,14.46289 -1.05475,0.005 -1.15669,-0.31025 -0.77148,-2.36133 0.24457,-1.30186 0.70154,-5.3489 1.01562,-8.99414 0.59479,-6.89956 1.72991,-15.3331 2.3086,-17.14648 0.38506,-1.20726 -0.84324,-2.20599 -1.69336,-1.37696 -0.50616,0.49357 -2.58145,14.98636 -3.59961,25.13477 -0.32433,3.23274 -0.61571,5.40209 -1.8833,5.64625 -2.22678,0.61573 -4.04467,1.39849 -4.04467,1.39849 0,0 1.95243,0.76859 1.76273,1.00865 l 2.50315,-0.47917 c 0.0682,0.098 0.11718,0.2077 0.11718,0.33203 0,0.002 -0.002,0.004 -0.002,0.006 l 0.11328,0.32422 -0.80273,4.01758 -0.24805,1.70507 c -0.0112,0.297 -0.0312,0.88042 -0.0312,0.87696 0,-1.1e-4 -0.0838,-0.0483 -0.0879,-0.0508 l -0.0195,0.13671 0.19141,0.125 1.3789,0.32618 0.002,-0.006 c 0,0 0.53979,-0.83874 0.69727,-1.39258 l 0.0312,-0.0625 0.8125,-4.30274 1.1582,-2.27343 2.76954,-0.72657 c 4.55701,-1.19652 7.09975,-2.78048 11.24804,-7.00195 4.85159,-4.93693 6.74351,-9.31848 6.72461,-15.55273 -0.0207,-6.18928 -1.52383,-8.987 -6.4707,-12.03711 -2.0343,-1.25436 -2.98894,-1.93027 -3.17969,-2.35156 l -2.69336,-1.08985 z m 192.61133,0.82617 c -1.26123,0 -1.58273,2.85847 -1.92969,17.20118 h 0.002 c -0.35868,14.82761 -0.0791,16.53291 2.06054,12.49804 1.12744,-2.1261 1.24477,-2.78501 0.40235,-2.27734 -0.3481,0.20961 -0.44038,-5.30002 -0.22657,-13.53516 0.24326,-9.37326 0.1434,-13.88672 -0.30859,-13.88672 z m -56.59375,1.51172 c 1.20174,-0.039 2.61463,1.87611 4.70313,6.24414 4.0679,8.5081 3.09445,19.20564 -2.13672,23.49805 -2.69072,2.20789 -4.64633,2.03789 -6.28321,-0.54492 -1.88942,-2.98118 -4.42866,-8.71917 -4.67773,-10.57227 -0.23633,-1.75873 6.13533,-17.11388 7.58984,-18.29101 0.26064,-0.21094 0.52737,-0.32498 0.80469,-0.33399 z m -105.68164,0.38281 c -1.14599,0 -1.39072,0.83109 -2.22656,7.57422 -0.83233,6.71464 -1.53719,28.66904 -0.93946,29.25196 0.24401,0.23803 1.19075,-0.26435 2.10547,-1.11524 2.01018,-1.86999 8.22348,-4.76783 10.24024,-4.77539 1.56794,-0.007 2.0166,-1.55523 0.60351,-2.08398 -1.00694,-0.37686 -7.04789,1.60341 -9.32226,3.05664 -0.87334,0.55805 -1.67713,0.92116 -1.78711,0.80664 -0.37871,-0.39538 0.95114,-22.94269 1.60156,-27.1543 0.83645,-5.41485 0.82869,-5.56051 -0.27539,-5.56055 z m -146.64258,0.10743 c -0.53201,-0.01 -1.13231,-0.009 -1.78711,0.002 -4.36527,0.0708 -11.15742,0.58052 -16.34765,1.34375 l -5.50196,0.81055 -0.74023,4.07422 c -0.40656,2.24163 -0.77042,5.97784 -0.80859,8.30078 -0.0384,2.32286 -0.37129,4.40389 -0.73829,4.625 -0.37115,0.22367 -0.49599,1.29058 -0.2832,2.40429 0.4608,2.41399 -1.1954,13.99428 -2.98047,20.84766 -0.95841,3.67971 -1.10615,5.17576 -0.57422,5.80078 1.15242,1.35409 2.41067,0.38181 2.75196,-2.125 0.17393,-1.27782 0.90836,-5.30589 1.63086,-8.95117 0.72249,-3.64524 1.52096,-8.68619 1.77343,-11.20313 l 0.45899,-4.57617 h 2.49414 c 1.3714,0 4.53651,-0.34197 7.03516,-0.75976 3.58363,-0.59936 4.54296,-0.99244 4.54296,-1.85742 0,-1.73503 -1.02124,-1.92876 -4.63281,-0.88282 -1.85253,0.53647 -4.62666,0.97461 -6.16406,0.97461 h -2.79492 l 0.0371,-3.6289 c 0.0479,-4.50252 0.86009,-9.49165 1.67382,-10.28516 0.69022,-0.67306 11.23633,-2.29638 17.86524,-2.75 4.60384,-0.31514 5.66797,-0.6497 5.66797,-1.77539 0,-0.23554 -0.98208,-0.35949 -2.57813,-0.38867 z m 265.50782,0.1289 c -1.1229,0.67673 -1.66415,4.93695 -1.77149,13.96485 -0.0578,4.86032 -0.33523,10.4706 -0.61719,12.46679 -0.43789,3.09888 -0.36394,3.62891 0.50977,3.62891 0.56281,0 1.2222,-0.31286 1.46484,-0.69531 0.2425,-0.38264 1.45119,-1.10644 2.68555,-1.60938 1.98652,-0.80919 2.60454,-0.79699 5.38476,0.10352 2.95223,0.95618 3.24894,0.94738 4.93555,-0.12695 l 1.79492,-1.14258 -2.89062,-0.42969 c -1.58933,-0.23664 -4.23026,-0.62473 -5.86914,-0.86133 -1.69932,-0.24571 -3.50703,-0.15492 -4.20703,0.21094 -1.19033,0.62169 -1.22023,0.23745 -1.00782,-12.625 0.14064,-8.51637 -0.006,-13.1293 -0.4121,-12.88477 z m -349.27344,1.73633 c -0.4168,0.0355 -0.87124,0.40728 -1.5625,1.07227 l -0.10938,0.54687 -0.28711,2.8711 -0.0351,0.043 0.12695,0.004 0.39648,5.42383 c 0.21857,2.98326 0.85576,6.92507 1.41602,8.75976 0.88246,2.88979 1.27942,3.38603 2.96484,3.71485 1.31724,0.25689 1.83388,0.6657 1.59766,1.26562 -0.19177,0.4873 -0.83972,3.36084 -1.43945,6.38477 -0.5997,3.02396 -1.7407,8.31854 -2.53516,11.76562 -1.61052,6.98782 -1.35935,9.29759 1.35742,7.35547 l 0.51563,-2.31445 0.68945,-3.45508 -0.13672,0.12695 0.63086,-2.72656 c 0.34655,-1.50047 1.02964,-4.95494 1.51758,-7.67578 1.05929,-5.90687 4.35805,-17.04708 6.47852,-21.87891 1.92587,-4.38856 2.44423,-6.47208 1.85937,-7.52734 l -0.82617,-0.4707 -0.66016,-0.1211 -1.16015,1.86719 c -0.73395,1.1811 -1.53678,2.85867 -1.78321,3.72656 -0.24627,0.86797 -1.51069,3.63736 -2.81054,6.1543 -1.29986,2.51698 -2.57427,4.57617 -2.83204,4.57617 -0.78995,0 -1.80553,-4.46953 -2.23828,-9.85547 l -0.41015,-5.12109 0.20703,-0.0352 0.32422,-1.19336 -0.0586,-2.69726 -0.008,-0.0234 c -0.48601,-0.39597 -0.8357,-0.5926 -1.18945,-0.5625 z m 184.18359,3.07617 c -2.90566,0 -3.77009,2.68443 -5.11133,15.87305 l -0.35156,3.45898 c 5e-4,0.2477 0.0586,2.68555 0.0586,2.68555 l 0.17188,2.75586 v 1.66406 c 0,0 -0.0184,0.007 -0.0195,0.008 -0.0266,0.66932 -0.16174,1.39853 -0.39453,2.26953 l 0.0117,0.0176 -0.40235,1.40624 -0.54492,2.92774 -0.0898,0.10547 c -0.0194,0.13454 -0.052,0.27037 -0.10547,0.40039 -0.20667,0.50362 -0.36234,0.35452 -0.39258,-0.38086 -0.003,-0.0624 0.009,-0.0953 0.01,-0.15234 l -0.082,-0.54688 -1.0332,-3.44336 -0.11133,-0.51953 c -0.0746,-0.1804 -0.1289,-0.35525 -0.1289,-0.50586 0,-0.41798 -1.31008,-3.18282 -2.91211,-6.14453 -1.60205,-2.96171 -2.91211,-5.56928 -2.91211,-5.79492 0,-0.0114 0.027,0.002 0.0371,0 l -2.22657,-5.30274 -0.40234,-0.36523 0.88281,-3.61133 c 0.48556,-1.98625 0.72729,-3.76163 0.53907,-3.94531 -0.73807,-0.71966 -1.47977,-0.26352 -2.08204,1.28125 -0.38437,0.9857 -0.92319,1.43997 -1.38085,1.16406 -0.54766,-0.32984 -0.64177,0.31808 -0.34961,2.39648 0.22148,1.56715 0.22229,5.30075 0.008,8.29493 l -0.39453,5.44336 -0.0391,0.006 -0.0566,0.53515 -0.60937,2.39453 -0.64453,1.4043 -0.004,0.0176 -0.008,0.01 -0.0332,0.0703 c 0,0 -0.0566,0.0282 -0.0625,0.0312 l -0.13672,0.14648 c -0.30657,0.67681 -0.66643,1.42844 -1.14063,2.34961 -3.02823,5.88242 -4.59838,13.88672 -2.72461,13.88672 0.49731,0 1.13006,-1.57459 1.59766,-3.97852 0.4258,-2.1888 1.79206,-6.16006 3.03711,-8.82422 1.24501,-2.66422 2.64695,-6.69357 3.11523,-8.95312 l 0.85156,-4.10742 3.11524,6.11328 c 1.13243,2.22311 1.86981,3.91916 2.10937,4.74219 l 0.0254,0.0156 0.57422,1.66406 0.63086,1.83594 0.31055,1.26758 c 0.22596,0.62032 0.43937,1.29398 0.63086,2.06836 0.53873,2.17886 1.35349,4.07947 1.81055,4.22461 0.48366,0.15352 1.28333,-0.77071 1.91406,-2.21094 l 1.02148,-2.33203 0.65039,-2.41992 0.0117,0.008 0.0781,-0.43164 0.0586,-0.14649 v -0.002 c -0.007,-0.31492 0.0417,-0.6766 0.11133,-1.12695 0.12925,-0.8365 0.34355,-1.65336 0.55078,-2.19727 l 0.14063,-2.21093 0.13476,-2.11719 0.004,-4.11133 c 0.009,-7.4132 1.14474,-14.7734 2.57226,-16.65625 1.60778,-2.121 1.6208,-2.4043 0.11133,-2.4043 z m -159.44141,2.60938 c -0.96489,0.0336 -1.89443,0.58372 -2.92968,1.65234 -1.87926,1.93981 -6.66992,8.90808 -6.66992,9.70117 0,1.05434 4.03301,4.93601 7.16601,6.89649 l 3.24805,2.0332 -0.12305,0.0723 0.1875,0.0723 c 1.66927,1.30463 2.58792,1.948 2.75977,4.22071 l -1.13672,3.57031 -1.46094,3.73437 -3.08594,4.62696 -0.14258,-0.17969 -0.14062,0.4414 -5.09375,0.31641 c -3.95112,0.24491 -5.0918,0.52706 -5.0918,1.26172 0,1.0286 5.84943,2.00503 8.57617,1.43164 0.62518,-0.13145 0.98792,-0.14366 1.19532,0.0801 l 3.24609,-0.72266 0.0449,-0.0234 c 0.33638,-1.05007 0.892,-2.17438 1.70899,-3.43946 2.62061,-4.05781 3.54576,-6.25348 4.18945,-9.94922 0.18272,-1.04901 0.46032,-2.30182 0.46032,-2.30182 0,0 -1.27347,-3.73963 -2.23435,-4.4725 -0.1775,-0.16418 -0.21348,-0.21328 -0.29238,-0.21588 -1.4657,-0.0492 -9.21614,-5.29504 -10.29296,-6.9668 -0.66891,-1.03839 0.87355,-3.59843 4.57617,-7.58984 1.36955,-1.47644 1.75376,-1.58504 3.41211,-0.97461 2.63743,0.97077 3.22037,-0.0294 1.07031,-1.83399 -1.18127,-0.99157 -2.18148,-1.47496 -3.14649,-1.4414 z m 380.69141,0.0332 c -0.4262,0.003 -0.97495,0.1224 -1.60937,0.4043 -0.91646,0.40698 -2.79751,0.74023 -4.18164,0.74023 -3.0248,0 -6.06428,1.02617 -5.53125,1.86719 0.53722,0.84767 8.65559,0.0585 10.93359,-1.0625 1.85159,-0.91106 1.66728,-1.95783 0.38867,-1.94922 z m -424.58984,0.19727 c -0.52869,0 -1.07151,0.56933 -1.20508,1.26367 -0.13356,0.6943 -0.63658,1.48449 -1.11914,1.75586 -0.8399,0.47202 -2.06404,4.05897 -4.49024,13.16797 -1.04649,3.92904 -1.27686,4.2572 -3.6289,5.1582 -1.8351,0.70292 -2.40409,1.22988 -2.11719,1.95898 0.21593,0.54872 1.07084,0.99805 1.90039,0.99805 1.37432,0 1.47707,0.21029 1.1543,2.36719 -0.19482,1.30186 -1.37352,4.63867 -2.61914,7.41601 -2.71222,6.04736 -5.35938,12.76547 -5.35938,13.59961 0,0.33113 0.53575,0.60352 1.19141,0.60352 0.84176,0 1.43401,-0.78941 2.01562,-2.68359 0.45303,-1.47549 1.77369,-4.52859 2.93555,-6.78516 1.94941,-3.78622 3.68153,-8.66402 4.50195,-12.68555 0.30256,-1.48305 0.8,-1.72824 5.21875,-2.5625 l 4.88477,-0.92187 0.9082,3.19336 c 0.96846,3.40754 2.21491,10.60603 2.46485,14.23437 0.10498,1.52417 0.50182,2.26736 1.28515,2.41211 0.96249,0.17783 1.13086,-0.28851 1.13086,-3.11133 0,-3.6921 -0.99014,-9.50974 -2.3457,-13.76953 -1.17721,-3.69944 -1.18458,-3.66724 1.05273,-4.14648 1.06803,-0.22874 1.94141,-0.81425 1.94141,-1.30078 0,-0.91098 -2.33143,-1.77035 -3.85742,-1.42188 -0.96832,0.22133 -3.54216,-8.55506 -4.38477,-14.95312 -0.35694,-2.71038 -0.77107,-3.78711 -1.45898,-3.78711 z m 472.33789,1.26367 0.0215,3.4707 c 0.0121,1.90946 -0.21111,4.18289 -0.49609,5.05078 -0.5034,1.53627 -0.51783,1.52706 -0.52539,-0.3164 -0.004,-1.04149 0.21867,-3.31297 0.49609,-5.04883 z m -495.26563,2.18555 c -2.6845,0.0999 -6.0376,2.22014 -10.63086,6.55273 -5.59973,5.28208 -7.81103,11.06611 -6.0039,15.70117 0.93929,2.40922 6.18908,5.97817 9.5039,6.46289 3.33045,0.48707 4.15821,1.72129 4.15821,6.19141 0,2.08233 -0.41875,3.03365 -2.06836,4.69336 -1.68992,1.70026 -2.56311,2.08203 -4.77149,2.08203 -1.48694,0 -4.06201,-0.58524 -5.7207,-1.30078 -3.54812,-1.53063 -7.06747,-1.43797 -7.38477,0.19531 -0.16976,0.87371 0.23725,1.10547 1.95313,1.10547 1.19292,0 2.74504,0.3836 3.44727,0.85351 0.70211,0.47006 2.15083,1.17404 3.21874,1.5625 3.35404,1.22038 7.16689,0.39725 10.41211,-2.24804 3.32004,-2.70629 3.77583,-3.89308 3.36329,-8.74414 -0.40752,-4.7921 -2.03216,-6.78868 -5.88672,-7.23047 -4.38962,-0.50317 -7.82636,-3.38542 -8.08594,-6.78125 -0.33811,-4.42341 3.32285,-9.56523 10.48828,-14.72852 2.89676,-2.08735 4.01693,-2.2391 5.67774,-0.77343 1.36691,1.20642 1.49377,3.16016 0.43164,6.61718 -0.92098,2.99766 -0.32018,3.76239 1.53515,1.95313 1.0256,-1.00014 1.47037,-2.35938 1.67578,-5.12891 0.2517,-3.39326 0.11323,-3.9298 -1.38476,-5.39062 -1.02884,-1.0033 -2.14075,-1.55501 -3.40039,-1.63672 -0.1732,-0.0112 -0.34838,-0.0125 -0.52735,-0.008 z m 192.69336,0.90039 c -0.0978,-0.0111 -0.21341,-0.0104 -0.3457,0.002 -0.35279,0.0327 -0.82623,0.15068 -1.41016,0.36719 -0.96336,0.35716 -3.26233,0.47652 -5.10742,0.26562 -4.12758,-0.4721 -8.16171,0.52583 -10.76758,2.66406 -2.15391,1.76742 -2.51251,3.06173 -1.00195,3.62696 0.73395,0.27469 0.97266,1.43258 0.97266,4.74609 0,2.41055 0.43673,6.60897 0.9707,9.33008 0.53397,2.72107 0.97066,5.87676 0.9707,7.01172 4e-5,0.66158 -0.019,1.09691 -0.10351,1.38281 0.003,0.005 0.0449,0.0859 0.0449,0.0859 l -0.20117,2.27344 -0.0586,0.98632 0.19532,2.44532 c 0.15692,1.96554 0.44116,2.47206 1.29492,2.31445 0.61292,-0.11327 1.17624,-0.90022 1.2832,-1.79102 0.17118,-1.42556 0.70482,-1.70899 5.17774,-2.74609 2.74295,-0.63579 5.57117,-1.06746 6.2832,-0.95898 0.71202,0.10828 2.16831,-0.0442 3.23633,-0.33789 l 1.9414,-0.53516 -1.61719,-0.47656 c -2.44887,-0.72273 -6.8633,-0.68491 -10.0039,0.0859 -2.30972,0.56714 -3.56638,0.72316 -3.70899,0.3418 -0.0707,0.008 -0.16819,0.0336 -0.20898,0.0234 -0.64935,-0.16214 -0.97461,-2.27344 -0.97461,-2.27344 l 0.0547,-0.40234 c -0.0292,2.7e-4 -0.0841,0.0179 -0.0996,0.01 -0.32633,-0.19665 -0.59375,-1.54858 -0.59375,-3.00586 0,-1.45731 -0.28592,-3.62085 -0.63477,-4.80664 -1.01627,-3.45554 1.1809,-5.05886 9.17774,-6.69922 4.65006,-0.95391 6.35144,-1.75574 5.49609,-2.58984 -0.6726,-0.6559 -9.51082,1.03813 -12.37109,2.37109 -1.39684,0.65084 -2.60334,1.11554 -2.67969,1.03125 -0.0764,-0.0844 -0.3472,-2.4943 -0.60156,-5.35351 l -0.46094,-5.19727 1.8457,-0.73242 c 1.01564,-0.40233 4.08865,-0.70576 6.82813,-0.66797 3.96593,0.0498 5.28471,-0.17797 6.47265,-1.11719 1.21624,-0.96156 1.38978,-1.59615 0.70508,-1.67382 z m -59.53515,0.0234 c -3.68037,0.0486 -7.81447,5.4764 -7.01563,9.62891 0.54312,2.82308 -0.79418,21.22593 -2,27.52148 -0.51745,2.70263 -0.78417,5.16097 -0.5918,5.46485 0.0522,0.0824 0.0862,0.19827 0.10743,0.32812 l 0.29687,0.39649 1.2168,0.48633 0.56836,-1.78516 0.64843,-2.19141 0.0469,-0.16992 -0.13086,0.12891 0.43945,-1.89453 c 0.24136,-1.04149 0.98582,-8.99464 1.6543,-17.67383 0.66849,-8.6792 1.2393,-15.81837 1.26953,-15.86524 0.0299,-0.0468 0.79004,-0.55618 1.68946,-1.13086 2.98703,-1.90866 5.7995,-0.78656 9.08984,3.62305 1.56964,2.10357 3.03999,4.78436 3.26562,5.95703 0.72356,3.76124 -2.89149,9.34125 -6.84375,10.56446 -0.7017,0.21702 -2.25983,0.13054 -3.46289,-0.19336 -2.51365,-0.6768 -4.34689,0.0265 -4.30078,1.65234 0.0167,0.59032 1.48597,2.06812 3.26367,3.2832 2.3638,1.61575 3.83533,3.31679 5.47852,6.33399 3.58488,6.5825 5.76053,8.8125 8.58984,8.8125 h 2.38086 l -2.03515,-1.21094 c -2.11147,-1.25548 -5.88515,-6.40328 -7.33985,-10.01367 -0.46023,-1.14221 -2.03412,-3.08462 -3.49804,-4.31641 -2.00206,-1.68457 -2.34095,-2.2077 -1.36719,-2.11133 4.30654,0.42735 7.73264,-1.91045 10.44336,-7.12695 2.13985,-4.11798 1.68518,-6.64739 -2.23438,-12.42969 -3.04324,-4.48955 -3.82868,-5.01907 -8.90039,-6.0039 -0.23972,-0.0466 -0.48316,-0.0677 -0.72851,-0.0645 z m 26.76562,0.36133 c -0.89624,0 -1.08324,0.75666 -1.13086,4.57617 -0.0312,2.51694 -0.26844,10.25781 -0.52734,17.20118 -0.25928,6.94333 -0.25175,13.41104 0.0156,14.37304 0.13737,0.49398 0.19866,0.8532 0.12305,1.17969 l 0.29102,0.0469 1.05468,1.21876 0.0859,-0.35743 c 0.005,-0.26347 0.008,-0.51387 0.0332,-0.90234 0.0812,-1.26705 0.3692,-10.18446 0.63868,-19.81836 0.45025,-16.08661 0.40213,-17.51758 -0.58399,-17.51758 z m -138.35742,1.77539 c 0.41811,0.15607 1.39536,3.43542 3.57812,11.875 0.29582,1.14373 -0.0542,1.43822 -2.39453,2.01172 -5.57049,1.3652 -5.79356,1.37476 -5.33398,0.23047 0.23384,-0.58216 1.14701,-3.7566 2.0293,-7.05469 0.88227,-3.29809 1.77096,-6.42258 1.97461,-6.94336 0.0388,-0.0992 0.0868,-0.14143 0.14648,-0.11914 z m 426.25781,8.07617 c -1.33965,0.0193 -3.14404,0.0839 -5.08789,0.1875 -4.79127,0.25512 -7.15452,0.63122 -7.33594,1.16602 -0.40422,1.19286 12.10816,1.0953 13.79493,-0.10742 0.69018,-0.49244 1.10927,-1.01553 0.93164,-1.16406 -0.0887,-0.0745 -0.96308,-0.10175 -2.30274,-0.082 z"
         style="display:inline;fill:#000000;stroke-width:0.63920003" />
    </g>
  </g>
</svg>
