<?xml version="1.0" encoding="UTF-8" standalone="no"?>
<svg
   xmlns:dc="http://purl.org/dc/elements/1.1/"
   xmlns:cc="http://creativecommons.org/ns#"
   xmlns:rdf="http://www.w3.org/1999/02/22-rdf-syntax-ns#"
   xmlns:svg="http://www.w3.org/2000/svg"
   xmlns="http://www.w3.org/2000/svg"
   id="svg8"
   version="1.1"
   viewBox="0 0 210 297"
   height="297mm"
   width="210mm">
  <defs
     id="defs2" />
  <metadata
     id="metadata5">
    <rdf:RDF>
      <cc:Work
         rdf:about="">
        <dc:format>image/svg+xml</dc:format>
        <dc:type
           rdf:resource="http://purl.org/dc/dcmitype/StillImage" />
        <dc:title></dc:title>
      </cc:Work>
    </rdf:RDF>
  </metadata>
  <g
     id="g5187"
     style="display:inline">
    <path
       id="path5185"
       transform="scale(0.26458333)"
       d="m 360.00781,540.96289 c -0.86301,0 -0.80638,4.19051 0.0781,5.80273 0.5286,0.96333 0.51728,1.41911 -0.041,1.75586 -0.46934,0.28275 -0.75819,2.34154 -0.76953,5.44336 -0.015,4.89015 1.02436,9.06428 2.97852,11.97266 0.56844,0.84601 0.67974,1.64698 0.30859,2.21875 -0.89095,1.37276 -0.70919,3.10547 0.32617,3.10547 0.51005,0 1.11755,-0.58341 1.34961,-1.29688 0.23222,-0.71357 0.6304,-1.21129 0.88477,-1.10546 0.97984,0.40791 7.93309,8.20608 7.60351,8.52734 -0.90758,0.88501 -5.2922,-0.71537 -7.38281,-2.69531 -3.47645,-3.2925 -4.58217,-2.87445 -1.80078,0.68164 1.93406,2.47271 5.26682,4.09375 8.41797,4.09375 1.74629,0 2.78756,0.45227 4,1.73632 1.54711,1.63869 1.62129,1.6572 1.32422,0.31641 -0.65885,-2.9732 1.57977,-1.24335 7.3457,5.67969 3.25285,3.90561 6.54552,7.4475 7.31836,7.86914 h 0.004 c 1.7215,0.93929 2.19235,0.97813 2.66993,0.22461 0.20417,-0.32217 -0.17999,-0.75584 -0.85547,-0.96485 -1.19142,-0.36864 -12.77106,-13.44177 -12.29688,-13.88281 0.12991,-0.12079 3.0027,1.61779 6.38477,3.86328 l 6.15039,4.08203 4.09961,-0.33984 c 7.67482,-0.63624 13.3498,-6.0924 15.98633,-15.36914 0.6167,-2.16979 1.37443,-3.94531 1.68359,-3.94531 0.30917,0 0.56055,1.26099 0.56055,2.80273 0,1.54182 0.26877,2.96482 0.5957,3.16211 0.97701,0.58885 1.44599,-3.02424 0.78125,-6.01562 -0.34069,-1.5343 -0.65178,-7.29466 -0.69336,-12.80078 -0.0203,-2.71453 -0.0811,-4.68128 -0.16797,-6.35157 l -0.69922,0.90821 -0.58789,-0.88086 c 0.0513,0.97181 0.0692,2.07296 0.0469,3.3164 -0.0846,4.71058 -0.3048,4.2312 -0.90821,-1.97656 -0.26864,-2.76506 -0.65637,-4.12186 -1.10156,-3.85351 -0.46299,0.27892 -0.57619,3.89463 -0.34375,11.09179 l 0.34571,10.67969 -2.14063,5.09766 c -1.17691,2.80365 -2.75788,5.91326 -3.51367,6.91015 -2.08275,2.74708 -5.8136,4.84132 -9.41602,5.28711 -2.98847,0.36975 -3.53496,0.21347 -7.12109,-2.04101 -6.34216,-3.98718 -9.87102,-5.86719 -11.01758,-5.86719 -0.59365,0 -1.85385,-0.53368 -2.79883,-1.1875 -0.94499,-0.65378 -2.17325,-1.29451 -2.73047,-1.42188 -1.18439,-0.27061 -9.01953,-8.56378 -9.01953,-9.54687 0,-0.36718 1.82,1.02066 4.04492,3.08398 6.08096,5.63894 7.15467,6.54688 7.72852,6.54688 1.11434,0 0.39588,-1.03599 -3.10742,-4.48828 l -3.63086,-3.57813 1.68945,-2.42578 1.68946,-2.42383 v 2.31445 c 0,1.27306 0.31457,3.11449 0.69921,4.0918 l 0.69922,1.77735 1.4043,-1.69141 c 1.38185,-1.66314 1.42867,-1.67179 2.86523,-0.52734 0.98102,0.78149 1.19259,1.25551 0.64649,1.44336 -0.44697,0.15344 0.29666,0.73768 1.65234,1.29882 1.35568,0.56107 3.32176,1.61451 4.36914,2.3418 2.59688,1.80321 2.40163,0.69305 -0.33203,-1.89062 -1.87071,-1.76811 -2.12342,-2.31792 -1.55078,-3.36133 0.62476,-1.13843 0.78792,-1.02051 1.87695,1.35156 0.8566,1.86561 1.47707,2.49251 2.19922,2.22266 0.55314,-0.20701 1.00586,-0.78882 1.00586,-1.29297 0,-0.50438 0.30894,-0.72986 0.6875,-0.50196 0.37845,0.2281 1.18672,-0.0238 1.79492,-0.56054 1.00551,-0.88744 1.35308,-0.82214 3.83789,0.72656 1.5029,0.93668 2.73376,2.14631 2.73633,2.6875 0.003,0.54123 0.41076,1.52477 0.90625,2.18555 0.73924,0.98596 1.07682,1.05932 1.87891,0.41015 0.53764,-0.4351 1.17368,-1.56145 1.41406,-2.50195 0.24045,-0.94046 1.28766,-2.96502 2.32813,-4.5 1.89562,-2.79647 2.45917,-5.09961 1.24609,-5.09961 -0.35626,0 -0.64844,-0.42652 -0.64844,-0.94727 0,-0.52074 -0.43669,-0.94726 -0.9707,-0.94726 -0.64853,0 -0.9707,0.63311 -0.9707,1.90625 0,1.70793 -0.16519,1.86643 -1.58985,1.51758 -0.87409,-0.2137 -2.76516,-0.43342 -4.20312,-0.48633 -1.43792,-0.0531 -2.61718,-0.3099 -2.61914,-0.57031 -0.007,-0.88789 -1.98419,-0.47636 -2.36524,0.49218 -0.33263,0.8453 -0.47868,0.83395 -1.17578,-0.0957 -0.43789,-0.58409 -1.10049,-0.8788 -1.47265,-0.6543 -0.37221,0.22436 -1.73844,-0.0244 -3.03516,-0.55273 l -2.35742,-0.96094 -1.17578,2.5625 c -1.02528,2.23325 -1.28369,2.43425 -2.01563,1.57422 -0.46174,-0.54251 -0.97956,-2.4047 -1.15039,-4.13867 -0.15717,-1.59491 -0.12767,-2.56153 0.16016,-3.31641 l -0.16211,0.0606 -0.6875,-2.64063 -1.37891,1.60743 -0.01,0.0117 c 0.0133,0.11962 -0.0779,0.39046 -0.25391,0.84374 -0.26959,0.6943 -0.65194,2.04334 -0.84961,2.99805 -0.44602,2.1549 -1.06576,2.20375 -2.02148,0.15821 -1.01137,-2.16469 -2.10063,-1.97368 -3.96485,0.69531 -1.48932,2.13229 -1.63428,2.19601 -2.47851,1.09961 -0.58466,-0.76075 -0.7993,-2.2107 -0.61524,-4.18164 0.30834,-3.30063 -0.5263,-4.46336 -1.89453,-2.63868 -0.827,1.10321 -0.87305,1.08911 -0.87305,-0.25976 0,-0.78293 -0.6869,-2.89685 -1.52539,-4.69727 -1.53709,-3.30028 -2.55825,-6.23464 -3.2832,-9.42773 -0.21675,-0.95471 -0.68007,-1.73633 -1.0293,-1.73633 z m 0.875,8.60547 c 0.0514,-0.0281 0.11923,0.0442 0.20508,0.23242 0.23747,0.52074 1.41115,3.022 2.60938,5.5586 1.20151,2.54331 1.96214,4.94975 1.69531,5.36523 -0.4851,0.75538 -0.56121,1.06901 -0.74414,3.11914 -0.18021,2.01933 -1.25826,1.14367 -2.32813,-1.89258 -0.90617,-2.57188 -1.93407,-12.11155 -1.4375,-12.38281 z m 60.38477,4.01953 c -0.84144,0 -3.64063,5.36492 -3.64063,6.97852 0,1.37552 1.75431,-0.57202 3.18164,-3.53321 1.59727,-3.31374 1.61481,-3.44531 0.45899,-3.44531 z m -9.7832,5.03711 -0.4336,0.74023 c 0.1803,-0.14011 0.32462,-0.37317 0.4336,-0.74023 z m -24.3711,6.06445 c 0.0391,-0.009 0.0868,-0.008 0.14258,0.004 0.1488,0.0308 0.35675,0.13131 0.63281,0.27539 0.65205,0.34031 1.32161,0.83303 1.48828,1.0957 0.1666,0.26287 -0.0629,1.14711 -0.51172,1.96485 -0.79933,1.45644 -0.82954,1.43495 -1.48828,-1.09571 -0.41103,-1.57921 -0.53759,-2.18036 -0.26367,-2.24414 z m 14.25195,2.1543 c 2.39339,0 2.42983,0.15623 0.67579,2.92383 h -0.002 c -1.35953,2.14522 -1.88867,2.58487 -1.88867,1.57226 0,-0.30379 -0.18168,-1.43856 -0.4043,-2.52343 -0.38403,-1.8728 -0.30112,-1.97266 1.61914,-1.97266 z m -4.13085,0.40625 c 0.18281,0.0293 0.33334,0.39269 0.4746,1.11328 0.36484,1.86108 0.28563,1.95818 -0.67773,0.82617 -0.3806,-0.44749 -0.45515,-1.18053 -0.16602,-1.63672 0.13832,-0.21825 0.25938,-0.32033 0.36915,-0.30273 z m -12.72657,9.07422 c -0.70111,0.0182 -1.23239,0.1786 -1.43359,0.49609 -0.17787,0.28067 0.90909,0.83196 2.41406,1.22461 1.50497,0.39251 4.75716,2.15137 7.22852,3.9082 4.10967,2.92143 6.79728,4.11039 5.82617,2.57813 -0.6147,-0.9699 -7.56031,-6.03372 -9.84961,-7.18164 -1.3762,-0.69007 -3.01703,-1.05567 -4.18555,-1.02539 z"
       style="display:inline;fill:#000000;stroke-width:0.63920003" />
  </g>
</svg>
