<?xml version="1.0" encoding="UTF-8" standalone="no"?>
<svg
   xmlns:dc="http://purl.org/dc/elements/1.1/"
   xmlns:cc="http://creativecommons.org/ns#"
   xmlns:rdf="http://www.w3.org/1999/02/22-rdf-syntax-ns#"
   xmlns:svg="http://www.w3.org/2000/svg"
   xmlns="http://www.w3.org/2000/svg"
   id="svg8"
   version="1.1"
   viewBox="0 0 210 297"
   height="297mm"
   width="210mm">
  <defs
     id="defs2" />
  <metadata
     id="metadata5">
    <rdf:RDF>
      <cc:Work
         rdf:about="">
        <dc:format>image/svg+xml</dc:format>
        <dc:type
           rdf:resource="http://purl.org/dc/dcmitype/StillImage" />
        <dc:title></dc:title>
      </cc:Work>
    </rdf:RDF>
  </metadata>
  <g
     style="display:inline"
     id="layer17">
    <path
       id="path5326"
       transform="scale(0.26458333)"
       d="m 55.917969,152.76367 c -0.590672,0 -2.968039,13.01539 -6.226563,34.08594 -1.208005,7.8113 -2.7919,16.4746 -3.519531,19.25195 -1.921134,7.33293 -3.276392,18.5153 -3.375,27.83985 -0.0703,6.648 0.276095,10.04829 1.896484,18.55468 1.091188,5.72829 2.450531,14.10793 3.019532,18.6211 2.331053,18.48943 4.334456,31.39235 6.125,39.45117 2.653768,11.94399 4.992337,24.83195 6.1875,34.08594 0.560458,4.33957 2.159827,13.14374 3.552734,19.5664 1.392907,6.42259 3.11468,15.23676 3.826172,19.58594 0.711488,4.34922 1.756893,10.03085 2.324219,12.625 0.567333,2.59412 1.59839,8.12499 2.291015,12.29102 1.959874,11.78808 9.752675,35.62525 14.238281,43.55273 0.982186,1.73586 3.903379,7.70116 6.490235,13.25586 6.263142,13.44869 10.343153,19.89889 15.773433,24.93359 1.31057,1.21508 3.3527,3.77027 4.53711,5.67969 3.01897,4.86697 16.53213,30.89421 16.5,31.7793 -0.0147,0.40119 -1.13943,-0.47105 -2.5,-1.9375 -2.88664,-3.1112 -5.77785,-7.28147 -14.99023,-21.63086 -1.22444,-1.90719 -4.34027,-6.10852 -6.92383,-9.33594 -2.58356,-3.22741 -6.98216,-9.19405 -9.775389,-13.25976 C 92.575903,477.69401 87.048983,470.47222 83.085938,465.71289 79.122861,460.95356 73.506139,453.28546 70.605469,448.67188 58.815588,429.91888 59.10986,430.4609 53.097656,416.3418 49.280409,407.37725 46.68517,402.82651 36.335938,386.94531 28.864084,375.47967 26.38717,369.79941 24.072266,358.82812 c -0.685781,-3.24994 -2.027265,-7.69887 -2.980469,-9.88476 -0.953209,-2.18589 -2.557048,-7.21253 -3.5625,-11.16992 -1.699427,-6.68886 -4.360513,-14.36589 -5.685547,-16.39844 -0.311894,-0.47864 -0.913956,-0.65979 -1.337891,-0.4043 -0.9531977,0.57445 -0.494928,4.29462 1.714844,13.89844 1.452242,6.31155 2.910138,14.51008 4.714844,26.51367 0.365401,2.4302 1.105956,10.3833 1.644531,17.67383 1.034642,14.00546 1.808643,20.31724 3.25,26.50977 0.484838,2.08301 1.381532,5.91769 1.994141,8.52148 0.756771,3.21649 2.907676,8.17414 6.707031,15.46484 3.075594,5.90185 6.7742,13.71406 8.21875,17.35938 3.659535,9.23467 12.778614,36.98375 14.484375,44.07422 0.778851,3.2375 2.284117,8.06613 3.345703,10.73047 3.026585,7.59602 6.674524,18.09588 8.917969,25.67382 2.016537,6.81177 3.335306,9.62651 7.910156,16.86915 1.255348,1.98735 3.810319,7.66905 5.677735,12.625 5.606788,14.88 10.309818,23.60994 13.398437,24.87109 v -0.002 c 1.801512,0.73561 5.016591,0.21582 6.279297,-1.01563 0.446581,-0.43582 -0.126426,-0.64062 -1.779297,-0.64062 -1.340629,0 -2.973986,-0.28157 -3.628906,-0.62305 -1.873342,-0.97773 -7.434737,-11.65368 -11.292969,-21.67773 -3.983055,-10.34854 -4.486237,-11.39681 -8.837891,-18.41407 -2.10342,-3.39186 -3.774907,-7.2259 -5.091797,-11.67773 -1.930468,-6.52615 -7.073384,-21.20333 -9.648437,-27.53906 -0.723916,-1.78114 -2.345269,-7.31996 -3.603516,-12.3086 -2.105038,-8.34595 -9.646106,-31.17726 -13.52539,-40.94726 -2.536369,-6.38793 -8.230548,-18.43795 -9.59961,-20.31641 -5.614438,-7.70332 -9.012556,-22.98241 -11.226562,-50.47656 -0.935501,-11.61733 -2.062105,-20.54076 -3.576172,-28.32617 -1.007373,-5.17996 -0.778395,-5.0925 1.634766,0.62109 1.239556,2.93484 2.694499,7.60555 3.234375,10.38086 2.215342,11.3884 4.924973,17.71577 12.597656,29.41406 9.841517,15.00503 13.07768,20.97173 19.763672,36.44727 1.685877,3.90209 4.816439,9.86743 6.957031,13.25586 2.140588,3.3883 5.762229,9.22328 8.048828,12.96679 2.286592,3.74355 5.388715,8.28843 6.894531,10.09961 10.744018,12.92266 13.650125,16.64355 17.357422,22.22852 2.304488,3.47165 6.380518,9.03977 9.056644,12.37304 2.67605,3.33351 7.12778,9.58256 9.89257,13.88672 8.11165,12.62691 10.72305,16.15682 14.66797,19.82618 3.73701,3.47599 4.70911,3.9863 5.42579,2.85546 0.66645,-1.05195 -1.55617,-8.09149 -3.64454,-11.54492 -1.10129,-1.82113 -3.96009,-7.14523 -6.35351,-11.83203 -6.77693,-13.27049 -7.82375,-14.94675 -12.39063,-19.85156 -6.70779,-7.2042 -9.83918,-12.3124 -16.466794,-26.85742 -1.02825,-2.25665 -3.068322,-6.37907 -4.533203,-9.16016 -5.56797,-10.5707 -13.065249,-32.98099 -14.849609,-44.39062 -0.561271,-3.58885 -1.432714,-8.27658 -1.9375,-10.41602 -0.504794,-2.13944 -1.806104,-9.0538 -2.892578,-15.36523 -1.086478,-6.31142 -2.117876,-11.85025 -2.291016,-12.3086 -0.933388,-2.47079 -4.347309,-20.04405 -5.175781,-26.64258 -1.13263,-9.02112 -3.553022,-22.09806 -6.205078,-33.52539 -1.047428,-4.51321 -2.179172,-10.36 -2.515625,-12.99414 -0.336454,-2.63414 -0.913717,-6.63511 -1.283204,-8.89062 -0.369474,-2.25551 -1.4138,-9.72082 -2.320312,-16.58985 -0.906512,-6.86902 -2.061435,-14.40513 -2.566406,-16.74609 -2.417227,-11.20577 -3.073584,-17.33294 -2.634766,-24.61133 0.552987,-9.17197 1.952971,-19.09596 3.609375,-25.58008 0.709485,-2.77734 1.893712,-9.45288 2.630859,-14.83398 0.737171,-5.3811 1.770425,-12.05687 2.296876,-14.83398 1.415016,-7.46514 3.464341,-20.03531 3.472656,-21.30274 0.0042,-0.60752 -0.227376,-1.10547 -0.515625,-1.10547 z m 358.056641,0.0156 c -0.17386,-0.16948 -6.34165,5.68467 -13.70508,13.00781 -7.36346,7.32314 -15.57214,15.11148 -18.24219,17.30859 -2.67008,2.19712 -6.82404,5.94354 -9.23046,8.32422 -4.4422,4.39419 -10.18946,12.07797 -10.18946,13.625 0,0.46674 1.45402,-1.23325 3.23047,-3.7793 3.97323,-5.69427 7.50487,-9.38871 15.86523,-16.5957 7.40652,-6.38453 32.74748,-31.42642 32.27149,-31.89062 z m -355.910157,0.0351 c -0.03024,-0.0151 -0.06125,-0.0144 -0.09375,0.002 -0.173405,0.086 -0.380171,0.61296 -0.623047,1.55664 -0.604573,2.34897 1.148005,60.78025 1.857422,61.92383 0.183723,0.29585 0.677921,4.65553 1.097656,9.68945 0.892989,10.70959 1.994501,16.80116 4.220704,23.34961 0.886377,2.60742 2.611741,9.17385 3.833984,14.59179 1.222239,5.41792 3.249035,13.08544 4.503906,17.04102 1.254875,3.9556 3.048061,10.56313 3.984375,14.68164 0.936321,4.11851 2.850367,11.50229 4.253906,16.41016 1.403528,4.90783 3.262905,12.19116 4.132813,16.18359 0.869907,3.99243 4.175077,17.48436 7.34375,29.98242 5.830889,22.99853 8.826578,32.03698 15.693358,47.3418 8.23181,18.34715 15.80244,39.00097 21.63086,59.01758 3.30163,11.33884 6.56519,18.71575 12.49414,28.24023 2.10934,3.38858 4.49869,7.44 5.31055,9.00195 0.81184,1.56231 2.92026,5.04186 4.68554,7.73243 4.75372,7.24437 5.49898,6.62361 4.4336,-3.69922 -0.8207,-7.95194 -2.97851,-21.18292 -4.25977,-26.12695 -0.4948,-1.90942 -1.35716,-6.16871 -1.91797,-9.4668 -1.22188,-7.18598 -3.72331,-17.48664 -5.82421,-23.98633 -0.84161,-2.60375 -2.01986,-7.71601 -2.61915,-11.36133 -0.59901,-3.64524 -1.49993,-9.00834 -2,-11.91797 -0.49978,-2.90959 -0.9082,-6.45359 -0.9082,-7.875 0,-1.42136 -1.0068,-8.55633 -2.23633,-15.85547 -1.22953,-7.29913 -2.5417,-17.38989 -2.91601,-22.42382 -0.37433,-5.03396 -1.28487,-15.26046 -2.02344,-22.72461 -2.24366,-22.6743 -2.24622,-29.29561 -0.0215,-49.86524 2.02343,-18.70375 5.31899,-36.95211 8.13867,-45.07617 0.85406,-2.4607 2.30515,-7.31542 3.22461,-10.78711 1.20418,-4.54666 3.55262,-10.10748 8.39648,-19.88281 3.69862,-7.46411 8.3175,-16.86796 10.26563,-20.89649 5.70717,-11.80171 20.02142,-35.17676 24.96679,-40.77148 3.80273,-4.30205 14.0019,-12.18359 15.76563,-12.18359 0.28656,0 0.51953,0.96873 0.51953,2.15429 0,2.62239 -3.48943,9.23368 -10.35938,19.62305 -4.70671,7.11832 -9.55373,17.28592 -10.68164,22.4082 -0.26755,1.21512 -1.49082,4.62328 -2.71875,7.57422 -3.33464,8.01385 -9.89843,29.35275 -9.89843,32.17969 0,0.6155 -0.87865,3.90468 -1.95313,7.30859 -1.07448,3.40396 -2.54723,9.04763 -3.27148,12.54297 -0.72426,3.49531 -2.18445,9.90648 -3.2461,14.2461 -1.06164,4.33957 -2.36332,9.67567 -2.89257,11.85937 -0.52924,2.1837 -1.38587,8.85952 -1.9043,14.83398 -0.51844,5.9748 -1.38766,14.5534 -1.92969,19.06446 -1.14001,9.48778 -1.34439,41.64407 -0.33984,53.3418 1.26878,14.77427 1.88871,26.62752 2.26172,43.23828 0.39326,17.51229 0.78317,22.09939 2.90039,34.08593 1.49388,8.4576 2.32655,15.80822 3.27734,28.93164 0.67623,9.33374 1.48093,13.98766 3.16406,18.28907 1.36241,3.4817 1.73567,1.04476 0.64453,-4.21094 -0.61046,-2.94047 -1.29997,-8.42424 -1.53125,-12.18555 -0.77923,-12.67396 -1.74344,-21.12671 -3.6875,-32.31445 -1.75188,-10.08189 -1.98849,-13.18983 -2.51367,-32.91016 -0.31895,-11.97732 -0.89525,-25.18558 -1.27929,-29.35156 -1.57146,-17.04686 -1.90215,-24.18549 -1.91993,-41.34961 -0.0129,-12.18727 0.29696,-20.63778 0.96289,-26.18945 0.54078,-4.50811 1.2827,-12.31662 1.64844,-17.35352 0.66281,-9.12762 1.71179,-14.90603 6.06836,-33.46094 1.26344,-5.38085 2.30179,-10.35257 2.3086,-11.04687 0.007,-0.69437 0.61474,-3.10863 1.3496,-5.36523 1.37158,-4.21162 6.72552,-24.16673 7.71875,-28.76758 0.30547,-1.41487 2.32208,-7.19211 4.48047,-12.83789 2.15842,-5.64575 3.92383,-10.63259 3.92383,-11.08399 0,-2.22433 6.12353,-14.82123 10.45703,-21.51172 7.1652,-11.06234 10.25586,-17.08341 10.25586,-19.97461 0,-1.55953 -0.34129,-2.56619 -0.94726,-2.79296 -0.52131,-0.19507 -3.12111,0.96561 -5.77735,2.58007 -7.75448,4.71315 -14.10787,11.44386 -20.28125,21.48438 -9.67653,15.73814 -16.78704,28.3235 -19.61328,34.7168 -1.68816,3.81887 -5.51444,11.63632 -8.50195,17.37304 -4.06112,7.79838 -5.9713,12.3386 -7.57422,17.99024 -1.17917,4.15751 -2.68283,9.00888 -3.33984,10.78125 -2.44745,6.60208 -5.94743,24.80127 -7.81836,40.64648 -2.60482,22.06069 -2.93401,31.17838 -1.62696,45.13281 1.72175,18.38185 2.89634,31.7985 3.31641,37.87305 0.21607,3.12454 1.22992,10.51023 2.25195,16.41211 1.02204,5.90188 2.0444,13.14476 2.27344,16.0957 0.22908,2.95091 0.69218,6.92649 1.02734,8.83594 0.33517,1.90942 1.04716,6.34951 1.58399,9.86719 0.53682,3.51768 1.71163,8.77275 2.60937,11.67773 2.24666,7.26973 4.63936,17.21037 6.13282,25.48047 0.68963,3.81887 1.55043,7.93726 1.91406,9.15235 1.26684,4.23317 4.97967,29.85187 4.18555,28.8789 -0.0705,-0.0865 -2.55157,-4.27663 -5.51368,-9.31055 -2.9621,-5.03395 -6.64149,-11.27424 -8.17578,-13.86718 -3.5165,-5.94282 -5.86414,-11.93386 -9.1875,-23.43946 -4.85333,-16.80238 -14.40898,-42.71383 -20.80859,-56.42773 -4.5719,-9.79729 -10.4871,-26.08234 -12.890627,-35.48828 -1.399941,-5.4785 -4.318761,-17.06103 -6.486328,-25.74024 C 83.301758,311.82493 76.506004,285.97504 74,278.0625 c -1.099533,-3.47169 -2.907606,-10.29003 -4.017578,-15.15039 -1.109979,-4.86036 -2.836645,-11.25023 -3.837891,-14.20117 -2.271749,-6.69541 -2.89872,-10.21295 -4.21875,-23.65235 -0.578657,-5.89141 -1.181656,-10.91423 -1.339843,-11.16406 -0.484959,-0.7652 -1.843187,-36.73539 -1.861329,-49.29297 -0.01134,-7.8111 -0.207153,-11.56149 -0.660156,-11.78711 z m 698.980467,0.58203 c -0.69861,0 -0.91502,0.36189 -0.66406,1.10547 0.20485,0.60752 2.58197,7.35448 5.2832,14.99219 5.4011,15.2712 8.90326,27.96996 10.04883,36.4375 0.9589,7.08737 0.47447,8.62203 -0.64453,2.04297 -1.16478,-6.84775 -1.9169,-7.90247 -1.94336,-2.71484 -0.0113,2.31314 0.89884,8.70497 2.02344,14.20312 2.35453,11.51169 2.5619,17.8633 1.625,49.76172 -0.4735,16.12046 -0.41066,18.72005 0.52148,21.77734 4.62002,15.15239 5.74369,27.21541 3.87891,41.66016 -1.07626,8.33677 -1.87828,17.30583 -2.89649,32.39453 -0.39401,5.83907 -1.14684,13.79222 -1.67382,17.67383 -0.52695,3.88165 -1.22581,14.15866 -1.55274,22.83789 -0.66512,17.66487 -0.43649,16.48269 -7.12305,36.92578 -6.1627,18.84151 -6.60137,19.8679 -11.9375,28.01758 -2.52616,3.85814 -5.43257,8.43406 -6.45898,10.16992 -3.45139,5.83665 -9.60219,14.88635 -9.91211,14.58398 -0.16894,-0.16466 0.33601,-2.18343 1.12109,-4.48437 0.78531,-2.30098 1.28967,-4.31801 1.1211,-4.48242 -0.16857,-0.16441 -1.10521,2.1974 -2.08203,5.24805 -1.69414,5.29114 -13.86086,30.0083 -21.37305,43.41992 -1.94453,3.47161 -4.38489,8.58425 -5.42187,11.36132 -2.22327,5.95359 -4.78851,11.4291 -6.28516,13.41407 -0.58904,0.78111 -0.79454,1.41992 -0.45703,1.41992 1.56941,0 3.684,-3.59923 6.69726,-11.39844 1.80318,-4.66715 4.49764,-10.61499 5.98828,-13.21875 1.49073,-2.60375 5.24575,-9.70585 8.34375,-15.78125 3.09793,-6.07544 5.64334,-10.84288 5.66602,-10.5957 0.0189,0.24718 -0.52705,1.95147 -1.21484,3.78711 -0.68776,1.83568 -2.12291,6.31956 -3.18946,9.96484 -1.06654,3.64524 -3.67281,10.17793 -5.79101,14.51758 -2.11816,4.33958 -4.06621,8.60078 -4.32813,9.46875 -0.65431,2.16771 -6.39843,13.28978 -9.51367,18.41992 -1.77059,2.91579 -3.97948,5.34838 -7.16211,7.88867 -6.71943,5.36308 -10.1914,8.48862 -10.1914,9.17188 0,0.33109 1.67363,-0.71356 3.7207,-2.32031 2.04707,-1.60683 4.88845,-3.82874 6.3125,-4.9375 l 2.58789,-2.01563 -1.66211,2.20313 c -0.91465,1.2119 -2.84801,3.76632 -4.29492,5.67578 -2.52325,3.3298 -4.72266,7.03048 -4.72266,7.94531 0,0.77858 10.17034,-12.61132 12.77149,-16.81445 0.79475,-1.2841 5.10134,-5.38632 9.56835,-9.11524 4.46737,-3.72884 10.29213,-9.27463 12.94532,-12.32422 2.65326,-3.04962 6.14109,-6.6756 7.75,-8.05664 3.26914,-2.80618 13.05321,-8.66164 19.24804,-11.51953 2.8416,-1.31093 3.5941,-1.87466 2.5,-1.875 -1.70853,-5.3e-4 -6.37346,2.36347 -15.3125,7.75977 -5.49445,3.31687 -6.82624,4.51902 -18.32617,16.54101 -1.66046,1.73586 -5.67922,5.3548 -8.92969,8.04102 l -5.91015,4.88476 3.49805,-6.14648 c 1.92389,-3.38056 4.56378,-8.8464 5.86718,-12.14453 1.3033,-3.29809 3.60924,-8.42473 5.12305,-11.39453 1.51381,-2.96984 3.37109,-7.51472 4.12695,-10.09961 0.75598,-2.58486 1.83182,-6.26242 2.39063,-8.17188 2.73766,-9.35459 6.90018,-18.74008 11.03906,-24.88476 2.3562,-3.49803 5.79579,-8.77562 7.64258,-11.72657 1.84679,-2.95067 5.29248,-8.3469 7.6582,-11.99218 5.19855,-8.01033 5.96137,-9.82679 12.71875,-30.29883 2.92211,-8.85279 5.46154,-16.52226 5.64258,-17.04297 0.18104,-0.52074 0.56886,-7.33717 0.86328,-15.14844 0.29443,-7.81126 1.12052,-18.88889 1.83399,-24.61718 1.22006,-9.79501 1.77693,-15.61745 3.32226,-34.7168 0.35112,-4.33958 1.06862,-10.8723 1.59375,-14.51758 1.81198,-12.57925 1.21575,-24.87232 -1.94726,-40.22266 -1.30768,-6.34458 -1.58348,-9.53945 -1.56836,-17.99023 0.0113,-5.65138 0.305,-12.40406 0.65234,-15.00781 0.34772,-2.60376 0.65726,-13.25686 0.6875,-23.67188 0.0858,-28.57685 -2.03294,-41.18366 -11.08789,-65.96094 -4.68654,-12.8236 -7.3236,-18.30664 -8.80469,-18.30664 z m -183.49804,5.68164 c -0.97089,1e-5 -0.64363,0.69923 1.37695,2.94336 2.67235,2.96814 5.19364,8.02943 9.11328,18.29102 1.82997,4.79104 4.76782,11.20041 6.52734,14.24414 1.75949,3.04369 4.45183,8.44891 5.98243,12.01172 4.18884,9.75088 12.525,31.89004 14.37304,38.17187 0.89775,3.05175 2.78152,9.08257 4.1875,13.40039 4.33614,13.31725 5.43523,20.20447 6.34375,39.77344 0.0571,1.22816 0.23737,1.38547 0.87305,0.76563 1.69024,-1.64825 0.54377,-20.03657 -1.83594,-29.45508 -5.39081,-21.33574 -19.62532,-59.37253 -28.10937,-75.11328 -2.43255,-4.51317 -5.77569,-11.75609 -7.42969,-16.09571 -1.65404,-4.33933 -3.88396,-9.49497 -4.95508,-11.45507 -1.92287,-3.51855 -5.33877,-7.48243 -6.44726,-7.48243 z m 75.04882,11.36133 c -0.44218,0.001 -0.32626,0.44226 0.29102,1.10743 2.33178,2.51233 11.36013,26.02962 11.8125,30.76953 1.01507,10.63207 1.95137,16.36385 4.5039,27.5664 1.60812,7.05714 3.51724,14.96262 4.24219,17.56641 1.06466,3.8228 1.2654,6.06896 1.04883,11.67578 -0.14513,3.81883 -0.14764,5.94921 -0.0117,4.73438 0.65613,-5.69265 0.97306,-5.52316 2.95508,1.57812 1.67357,5.99599 1.98267,8.3782 2.26953,17.45898 0.25285,8.00712 0.0843,11.94112 -0.71094,16.49024 -1.70165,9.73523 -1.21484,22.89947 1.58008,42.74414 0.76902,5.45994 1.44114,14.75506 1.66602,23.03906 0.29253,10.76315 0.66697,15.02166 1.66015,18.93555 2.72795,10.74992 3.87627,34.17309 2.15235,43.87109 -0.52456,2.95094 -1.25127,9.74643 -1.61524,15.10156 -0.4515,6.6415 -1.47476,13.66436 -3.21875,22.0918 -1.40632,6.79552 -2.89437,15.33914 -3.30664,18.98438 -1.24864,11.04276 -6.01865,31.76167 -10.3789,45.07812 -1.09743,3.35188 -8.93877,18.31406 -9.375,17.88867 -0.0975,-0.0952 0.24151,-1.87298 0.7539,-3.95312 0.51239,-2.08018 1.35824,-6.62409 1.87891,-10.0957 0.52078,-3.47173 1.40554,-7.87379 1.9668,-9.78321 0.73749,-2.50911 1.22642,-8.98514 1.76171,-23.35547 0.87772,-23.55942 0.80135,-30.17855 -0.45507,-39.45117 -0.51746,-3.81887 -1.13129,-9.64132 -1.36524,-12.93945 -0.47263,-6.67132 -1.13805,-10.07055 -4.1289,-21.14453 -1.2988,-4.80938 -2.31312,-10.62907 -2.78125,-15.93946 -0.40551,-4.59998 -0.98229,-8.36328 -1.28125,-8.36328 -1.17593,0 1.0103,17.52266 3.15039,25.24805 2.58168,9.31918 3.29302,13.07345 3.76757,19.88477 0.24189,3.47168 0.84857,9.29417 1.34766,12.93945 1.24634,9.10326 1.32398,16.03845 0.43945,39.13476 -0.62286,16.26528 -0.99862,20.7445 -2.06445,24.61719 -0.71652,2.60376 -1.61188,7.1102 -1.98828,10.01367 -0.37682,2.90355 -1.23764,7.53897 -1.91406,10.30079 -0.67639,2.76154 -1.06473,5.43961 -0.86328,5.95117 h -0.002 c 0.86805,2.20603 2.76735,-0.4023 9.01563,-12.37891 2.73131,-5.2354 4.09237,-9.01525 6.47461,-17.99023 4.15154,-15.64078 6.4549,-26.51836 7.35156,-34.7168 0.73655,-6.7347 4.86397,-28.6048 5.51953,-29.24414 0.17877,-0.17424 0.35264,0.79656 0.39063,2.15625 0.034,1.35976 0.29705,3.18093 0.58203,4.04883 0.44859,1.36494 0.5247,1.23861 0.5625,-0.94532 0.0227,-1.38867 -0.20637,-4.41322 -0.51172,-6.7207 -0.32542,-2.45552 -0.30813,-5.46668 0.043,-7.25976 0.32919,-1.68496 0.62614,-5.90332 0.66015,-9.375 0.034,-3.47177 0.4602,-8.58398 0.94727,-11.36133 0.48718,-2.77731 0.88634,-7.18144 0.87891,-9.78516 -0.0151,-8.59805 -1.85446,-26.71678 -3.23633,-31.875 -1.0856,-4.0526 -1.47116,-8.2287 -1.95313,-21.14648 -0.33827,-9.06562 -1.03724,-18.43909 -1.60156,-21.46094 -1.2387,-6.63462 -2.59299,-22.90526 -2.57031,-30.92969 0.008,-3.29809 0.55752,-9.10515 1.21875,-12.90429 1.83779,-10.56085 1.21802,-21.89578 -1.82813,-33.43555 -1.27487,-4.83009 -2.31836,-9.60637 -2.31836,-10.61524 0,-1.00883 -0.73376,-4.65217 -1.6289,-8.0957 -2.00599,-7.71704 -5.22604,-23.92279 -6.51172,-32.76953 -1.37001,-9.42743 -2.34026,-13.09541 -6.44531,-24.35156 -3.92494,-10.76189 -7.63783,-18.58313 -8.82422,-18.58985 z m -280.75586,35.34961 c -1.59828,0 -2.92713,1.16812 -7.05664,6.20899 -2.46361,3.00733 -6.1542,6.74636 -8.20312,8.30859 -7.5131,5.72863 -16.26741,12.9888 -19.32422,16.02734 -1.72558,1.71524 -5.46934,6.55101 -8.32031,10.7461 -2.85094,4.19508 -5.73559,8.21297 -6.41016,8.92969 -0.67457,0.71671 -1.22656,1.51977 -1.22656,1.7832 0,1.34751 2.31852,-0.61656 8.6914,-7.36328 6.72919,-7.12392 9.76446,-9.47418 5.72657,-4.43164 -1.05533,1.31788 -3.6794,4.95359 -5.83203,8.07812 -5.39873,7.83621 -12.95113,16.49269 -24.77539,28.39649 -16.14093,16.24921 -23.30742,24.6556 -26.21876,30.7539 -1.64535,3.44697 -2.09558,7.07399 -0.96093,7.75782 0.36646,0.22056 0.64843,-0.30289 0.64843,-1.20704 0,-2.02068 2.56714,-7.721 5.0625,-11.24023 3.05833,-4.31267 11.07896,-13.19395 21.78126,-24.12109 5.46214,-5.5771 12.65249,-13.3027 15.97851,-17.16797 6.25085,-7.26429 18.02149,-23.62176 18.02149,-25.04297 -2e-5,-1.04168 4.12972,-4.90352 10.81835,-10.11719 l 5.31641,-4.14258 -4.67969,6.4375 c -5.7168,7.86633 -7.78211,11.10386 -11.76562,18.43164 -1.69856,3.1245 -3.68478,6.50179 -4.41211,7.50586 -0.72737,1.00411 -3.70424,6.40011 -6.61524,11.99219 -4.87377,9.36265 -12.95636,21.75543 -24.54492,37.62695 -2.40809,3.29809 -5.34395,7.84105 -6.52344,10.09766 -1.17921,2.25657 -5.10377,7.51171 -8.7207,11.67773 -3.61689,4.16603 -8.80933,10.55785 -11.53906,14.20313 -10.19955,13.62032 -17.04598,21.98293 -23.76953,29.03515 -3.80618,3.99246 -8.16373,8.96387 -9.6836,11.04688 -2.89081,3.96189 -8.30113,13.49732 -9.04296,15.9375 -0.99486,3.27213 1.06009,0.99498 4.55468,-5.04883 4.59258,-7.94264 9.22194,-13.92402 17.46289,-22.5625 3.47596,-3.64365 10.21449,-11.73961 14.97461,-17.99023 9.50695,-12.48382 17.07658,-21.98556 20.6211,-25.88282 l 2.29687,-2.52539 -0.4043,2.05274 c -0.60515,3.07487 0.0204,2.48351 1.66993,-1.57813 0.81078,-1.99619 3.55782,-6.32886 6.10351,-9.62695 5.60871,-7.26641 8.32908,-11.15313 15.07617,-21.54101 2.84735,-4.38389 8.43664,-12.29492 12.41993,-17.58008 7.56514,-10.03771 8.41181,-11.375 7.20507,-11.375 -0.40232,0 -3.0877,3.12451 -5.96679,6.94336 -2.8791,3.81886 -5.32846,6.94336 -5.44336,6.94336 -0.38899,0 10.16328,-19.70057 12.29883,-22.96094 1.16583,-1.77989 3.21369,-5.36501 4.55078,-7.96875 3.88074,-7.55698 19.01387,-28.62491 22.66992,-31.56055 2.10303,-1.68862 6.15536,-7.04517 5.7793,-7.63867 -0.20123,-0.31748 0.23421,-1.40029 0.96875,-2.40625 1.39147,-1.9056 1.76613,-3.8418 0.74218,-3.8418 z m 297.22657,0.25 c -0.12057,0.11743 1.07398,3.30413 2.65625,7.08203 1.69092,4.03726 3.49278,9.86231 4.36914,14.12891 1.70865,8.31957 2.36208,8.08959 0.97265,-0.3418 -0.5125,-3.11028 -0.87229,-5.71738 -0.79883,-5.79297 0.40982,-0.41892 7.30529,9.4482 11.06641,15.83594 5.73827,9.74551 6.79413,12.62924 7.42188,20.27735 0.28724,3.50127 1.27983,9.05359 2.20703,12.33789 1.75922,6.23168 4.42181,16.53265 5.94726,23.01367 0.49028,2.08297 0.90273,7.25711 0.91407,11.49804 0.0113,4.24114 0.32392,12.76386 0.6914,18.9375 0.55257,9.28506 0.95533,12.04317 2.33399,15.95899 0.91665,2.60375 1.96289,5.08947 2.32422,5.52344 0.3612,0.43415 0.91204,0.78906 1.2246,0.78906 0.85973,0 0.68183,-1.35477 -0.32617,-2.47656 -0.49247,-0.54811 -1.50547,-2.7002 -2.25,-4.78321 -1.45791,-4.07916 -2.68164,-19.76857 -2.68164,-34.39062 0,-6.78354 -0.26307,-8.36609 -3.48633,-20.875 -1.91822,-7.44482 -3.941,-15.0984 -4.49414,-17.00781 -0.55306,-1.90942 -1.19895,-6.02785 -1.43554,-9.15235 -0.28007,-3.70197 -0.98301,-7.05047 -2.01758,-9.61133 -2.28786,-5.66301 -9.19179,-17.054 -14.39453,-23.75 -2.46785,-3.17616 -5.7326,-8.3947 -7.25586,-11.5957 -1.52327,-3.20099 -2.86809,-5.72301 -2.98828,-5.60547 z m -298.45508,1.64258 c 0.28558,0 -0.4831,1.2815 -1.70899,2.84766 -1.22589,1.56612 -2.72922,3.67165 -3.33984,4.67968 -0.61062,1.00805 -1.77767,2.12974 -2.59375,2.49219 -1.04281,0.46337 -0.20439,-0.92688 2.82031,-4.67969 2.36701,-2.93675 4.53654,-5.33984 4.82227,-5.33984 z m 295.93359,2.64258 c 0.0442,-0.0159 0.0948,0.001 0.14844,0.0527 0.21505,0.20973 0.23763,0.75528 0.0508,1.21094 -0.20674,0.50351 -0.36058,0.35448 -0.39062,-0.38086 -0.0227,-0.49918 0.0591,-0.8353 0.1914,-0.88281 z m 110.03906,3.78906 c 0.0442,-0.0159 0.0948,-0.002 0.14844,0.0508 0.21506,0.20977 0.23763,0.75528 0.0508,1.21094 -0.20636,0.50355 -0.36057,0.35444 -0.39062,-0.38086 -0.0227,-0.49918 0.0591,-0.83334 0.1914,-0.88086 z m -414.95117,5.54102 c 0.59819,-0.0471 -0.63692,1.16077 -4.65625,4.83203 -3.33902,3.04989 -7.47131,6.55206 -9.18359,7.7832 -1.71232,1.23118 -6.38934,5.22195 -10.39258,8.86719 l -7.27734,6.62695 2.65039,-3.78711 c 4.63865,-6.62574 21.52775,-21.2069 27.68554,-23.90234 0.57139,-0.25013 0.97444,-0.40422 1.17383,-0.41992 z m -20.52343,9.0957 c -1.59724,-0.21222 -14.52156,8.93904 -22.4375,15.94531 -16.31728,14.44165 -33.44041,29.07176 -44.94922,38.4043 -13.48865,10.93795 -17.88638,16.09811 -17.75977,20.8418 0.0197,0.73651 0.67299,-0.10828 1.56836,-2.0293 1.95235,-4.18881 5.80989,-8.21167 15.54297,-16.20703 10.25257,-8.42209 26.80523,-22.56463 38.83789,-33.1836 14.56747,-12.85591 23.27956,-19.74542 28.74219,-22.72656 0.56084,-0.30671 0.81944,-0.75496 0.57226,-0.99609 -0.0272,-0.0268 -0.0657,-0.042 -0.11718,-0.0488 z m 419.7246,19.375 c -0.29366,-0.0659 -0.63458,4.11453 -0.85156,12.57812 -0.39912,15.56611 -1.19764,22.71192 -4.97656,44.50196 -1.38474,7.98485 -2.98409,18.49315 -3.55469,23.35351 -0.57063,4.86033 -1.34941,11.25222 -1.73047,14.20313 -0.3809,2.95094 -0.94833,15.73267 -1.25976,28.4043 -0.31144,12.67162 -0.83733,24.60222 -1.16992,26.51171 -1.571,9.02544 -4.14206,22.11977 -4.95704,25.24805 -3.1152,11.95896 -17.58426,42.56587 -24.02148,50.8125 -1.89702,2.4302 -5.70963,7.30955 -8.47266,10.84375 -5.70228,7.29377 -14.12112,20.01926 -18.80078,28.41797 -3.96495,7.11602 -10.35356,16.40977 -16.98633,24.71094 -5.33669,6.67907 -6.00697,8.32516 -1.51757,3.72461 5.81079,-5.95472 15.06457,-18.98824 20.27929,-28.5625 5.18665,-9.5226 14.68733,-23.60565 22.35743,-33.13867 4.65947,-5.79156 7.80374,-10.44201 9.81445,-14.51758 1.62712,-3.29806 4.95934,-9.97367 7.40625,-14.83399 7.12059,-14.14363 10.55249,-24.28185 13.55469,-40.04883 2.96114,-15.55135 3.84205,-25.45568 3.84961,-43.33398 0.008,-17.184 2.20268,-36.80709 7.1621,-64.00586 3.63689,-19.94596 4.50176,-28.09481 4.44922,-41.9707 -0.034,-8.51972 -0.28043,-12.83256 -0.57422,-12.89844 z m -130.48632,27.21289 c -1.34143,0.0966 -1.58399,3.27286 -1.58399,17.57813 0,13.19848 0.10395,14.34859 2.63672,28.79882 1.89218,10.79585 2.79057,18.08462 3.17578,25.78125 0.29518,5.90186 0.9949,12.63792 1.55469,14.96875 0.96537,4.01972 2.04211,13.58399 2.54297,22.58985 0.14702,2.64578 -0.10884,4.88593 -0.72071,6.31054 -0.5219,1.21588 -0.9819,4.39505 -1.02343,7.07032 -0.0643,4.18102 0.10545,4.99215 1.21875,5.78906 1.18545,0.84839 1.32888,1.90053 1.68945,12.49609 0.21657,6.36401 0.75633,20.23557 1.19922,30.82422 0.87609,20.94459 0.83362,21.50543 -3.18164,43.41406 -1.46566,7.99801 -2.43483,22.24223 -1.34961,19.83399 0.35981,-0.7982 0.95899,-4.63292 1.33203,-8.52149 0.37342,-3.88852 1.57454,-12.04174 2.66992,-18.11718 2.42332,-13.44049 2.89812,-23.54962 1.89258,-40.39649 -0.40403,-6.76981 -1.00403,-18.31538 -1.33398,-25.65625 -0.57453,-12.78931 -0.54518,-13.45863 0.7207,-16.01367 0.86411,-1.74414 1.10111,-2.87988 0.68555,-3.28516 -0.4156,-0.40524 -0.8079,-0.10737 -1.13672,0.86329 l -0.50196,1.48437 -0.46875,-1.57812 c -0.70197,-2.3579 -0.69063,-9.33882 0.0156,-9.76368 0.33789,-0.20371 0.80259,0.70214 1.03125,2.01368 0.22904,1.31149 1.40986,5.54857 2.62305,9.41601 1.21315,3.86737 2.20477,8.26947 2.20507,9.7832 3.1e-4,1.51371 0.49188,4.88254 1.0918,7.48633 0.89719,3.89447 1.087,8.1489 1.06055,23.98633 -0.0189,11.70924 -0.33602,21.23149 -0.8125,24.30274 -0.43087,2.77711 -1.47388,9.73659 -2.31641,15.46484 -0.84253,5.72829 -2.87354,16.09573 -4.51367,23.03906 -4.03809,17.09605 -4.20647,18.23482 -4.24805,28.7207 l -0.0391,9.15235 -2.63867,-5.05078 c -2.8594,-5.47147 -7.27888,-11.18504 -11.67383,-15.09375 -1.52704,-1.35814 -4.23363,-3.79315 -6.01367,-5.41211 -1.78005,-1.61896 -4.69261,-3.89318 -6.47266,-5.05274 -1.78008,-1.15952 -5.1293,-3.88946 -7.44336,-6.06836 -2.31405,-2.17893 -5.2438,-4.75933 -6.51172,-5.73437 -1.26788,-0.97504 -4.61913,-4.07468 -7.44531,-6.88672 -4.77993,-4.75608 -5.53587,-5.25194 -10.83594,-7.10156 -3.13368,-1.09357 -6.19249,-1.99427 -6.79687,-1.99805 -0.60438,-0.004 -1.40519,-0.21769 -1.78125,-0.47266 -0.64815,-0.43967 -5.4668,-8.6753 -5.4668,-9.34375 0,-0.17348 1.67563,0.79347 3.72266,2.1504 2.04707,1.35661 5.90609,3.65063 8.57617,5.0957 2.67009,1.44514 7.14972,4.59884 9.95508,7.00976 2.80535,2.41089 6.30525,5.07286 7.77734,5.91407 1.47205,0.84128 5.55053,3.40357 9.0625,5.69336 6.59074,4.29713 7.52621,4.717 7.49219,3.37304 -0.0113,-0.43396 -3.65642,-3.0605 -8.10156,-5.83789 -4.44514,-2.77735 -11.13141,-7.49426 -14.85742,-10.48047 -3.72605,-2.98616 -8.6009,-6.36872 -10.83204,-7.51757 -8.17647,-4.21119 -15.617,-9.49075 -18.97851,-13.46485 -1.81395,-2.14454 -5.71736,-6.02671 -8.67578,-8.62695 -2.95847,-2.60028 -7.98577,-7.85109 -11.17188,-11.66992 -3.1861,-3.81884 -8.07952,-9.25429 -10.87304,-12.07813 -3.67741,-3.71732 -5.82152,-6.57544 -7.77149,-10.35742 -3.32311,-6.44527 -4.98669,-8.99498 -10.0957,-15.47656 -6.26771,-7.95149 -11.85536,-16.69635 -19.37695,-30.32227 -3.81393,-6.90888 -10.07238,-18.0994 -13.90626,-24.86914 -3.83356,-6.76978 -7.7131,-13.72899 -8.62109,-15.46484 -0.90792,-1.73583 -1.66652,-2.85357 -1.68164,-2.48242 -0.034,0.75885 10.27988,21.0723 15.8418,31.20117 14.9255,27.18085 16.76515,30.22433 23.65039,39.13672 4.70971,6.09637 11.31213,15.3007 12.3125,17.16601 0.42867,0.7993 -1.08458,-0.27781 -3.36133,-2.39453 -3.6085,-3.35494 -7.38475,-5.93555 -8.68555,-5.93555 -0.22412,0 1.26087,1.48641 3.29883,3.30274 2.03788,1.81629 5.75875,5.7227 8.26953,8.67968 2.51074,2.95726 6.78358,7.64844 9.49414,10.42579 2.71049,2.77734 6.93784,7.46507 9.39453,10.41601 2.45674,2.95094 8.55581,9.34081 13.55469,14.20117 7.58052,7.37038 9.76114,9.93651 13.13867,15.46289 2.22724,3.64426 3.75554,6.72149 3.39649,6.8379 -1.08681,0.35288 -0.73057,1.36916 0.48047,1.37109 0.69883,9.1e-4 2.12203,1.58179 3.71484,4.125 2.87327,4.58683 3.65741,4.59779 1.64649,0.0234 -0.72318,-1.64523 -1.31641,-3.09409 -1.31641,-3.22071 0,-0.28233 2.83197,0.59352 8.50976,2.63477 3.3975,1.22147 5.09612,2.34772 8.08985,5.35547 5.59529,5.62148 19.35133,17.61396 22.79883,19.87695 1.64953,1.08276 6.64904,5.48685 11.10937,9.78516 8.27819,7.97752 11.75252,12.87652 15.27149,21.54101 h 0.002 c 2.60096,6.40407 3.469,3.22765 3.47656,-12.77929 0.008,-10.35243 0.15005,-11.66076 2.28711,-20.83008 4.35364,-18.67862 4.8612,-21.18614 5.82422,-28.72071 0.53246,-4.16606 1.38663,-10.1294 1.89648,-13.2539 0.5099,-3.12439 1.10583,-12.07347 1.32618,-19.88477 0.39821,-14.11986 0.28307,-16.04906 -2.27344,-37.80273 -0.34243,-2.91258 -1.48524,-7.95201 -2.54102,-11.19727 -1.05581,-3.24525 -2.11748,-6.96743 -2.35937,-8.27343 -0.56017,-3.02586 -1.38832,-4.58399 -2.43555,-4.58399 -0.60374,0 -1.03557,-2.75828 -1.60351,-10.25781 -0.42743,-5.64137 -1.21605,-11.96191 -1.75391,-14.04492 -0.53787,-2.08301 -1.24937,-8.67528 -1.58008,-14.64844 -0.40241,-7.26414 -1.45117,-15.83278 -3.16601,-25.87891 -1.41026,-8.26069 -2.76284,-16.43497 -3.00586,-18.16406 -0.54335,-3.86597 0.30956,-29.44992 0.96875,-29.05273 0.26154,0.1576 0.63461,4.3424 0.82812,9.29882 0.20221,5.17871 1.17502,14.11186 2.28711,21.00391 1.06431,6.59618 2.28322,14.55124 2.70898,17.67578 0.42581,3.1245 1.4763,9.37355 2.33399,13.88672 1.08057,5.68565 1.56483,10.53101 1.57617,15.7793 0.0227,9.63436 0.96492,19.21771 1.97852,20.12695 0.60204,0.54024 0.67398,0.41033 0.31054,-0.55859 -0.26041,-0.6943 -0.7096,-7.51268 -0.99609,-15.15039 -0.36284,-9.66296 -0.92694,-15.90182 -1.85742,-20.51368 -0.7355,-3.64527 -1.92869,-10.60448 -2.65039,-15.46484 -0.7217,-4.86036 -2.06638,-13.50312 -2.98828,-19.20703 -0.92183,-5.70392 -1.87215,-14.22252 -2.11329,-18.92969 -0.36699,-7.16121 -0.60941,-8.59075 -1.48437,-8.7539 -0.0994,-0.0185 -0.19205,-0.026 -0.28125,-0.0195 z m -332.09375,12.12695 c -0.0333,-0.004 -0.0748,0.002 -0.125,0.0156 -0.48216,0.12865 -1.75405,1.04637 -3.83203,2.89062 -4.87529,4.32639 -7.98068,7.88437 -16.25391,18.6211 -6.87394,8.92078 -19.69704,24.64497 -23.42188,28.7207 -6.0297,6.59766 -13.64681,17.5759 -21,30.26563 -9.60415,16.57434 -12.98399,21.67995 -26.61328,40.22265 -5.56968,7.57754 -10.68067,14.83586 -11.35742,16.12891 -3.58307,6.84605 -16.75586,43.41002 -16.75586,46.50976 0,3.5093 1.92335,-0.56678 6.37305,-13.51367 4.85857,-14.13653 10.16818,-27.83731 12.44336,-32.10742 0.76418,-1.43429 5.82295,-8.71554 11.24218,-16.17969 14.22236,-19.58804 16.77332,-23.44505 25.24415,-38.1875 9.18856,-15.99159 12.72432,-21.2176 20.49609,-30.29883 8.52174,-9.95754 14.25069,-17.03444 22.23437,-27.45898 9.31227,-12.15934 11.35382,-14.58656 17.09961,-20.33594 3.29379,-3.29594 4.72294,-5.23968 4.22657,-5.29297 z m 344.11523,6.0625 c -0.28951,0 -0.25943,1.15945 0.0684,2.57813 0.32693,1.41872 1.47016,9.01869 2.54102,16.88672 1.07081,7.86803 2.56449,17.42921 3.31836,21.24804 1.09877,5.5663 1.38755,9.57267 1.45898,20.19922 0.0839,12.44194 0.23962,14.04959 2.54102,26.19532 1.34833,7.11692 2.58842,13.86197 2.75585,14.99023 0.16706,1.12826 0.47787,2.05273 0.69141,2.05273 0.70398,0 -0.36243,-8.01527 -2.67187,-20.07812 -2.11325,-11.03853 -2.26744,-12.69184 -2.16993,-23.20313 0.0847,-9.14536 -0.1708,-12.88147 -1.32617,-19.45312 -0.78659,-4.47318 -1.54415,-8.31412 -1.68555,-8.53711 -0.14123,-0.22303 -0.87586,-5.22671 -1.63085,-11.11914 -2.05849,-16.06583 -3.07701,-21.75977 -3.89063,-21.75977 z M 14.611328,334.67383 c 0.04415,-0.0159 0.09466,10e-4 0.148438,0.0527 0.215093,0.20977 0.237777,0.75528 0.05078,1.21094 -0.206627,0.50355 -0.359633,0.35251 -0.390625,-0.38281 -0.02109,-0.49918 0.05895,-0.83335 0.191406,-0.88086 z m 0.646484,2.52539 c 0.04415,-0.0159 0.09467,10e-4 0.148438,0.0527 0.215097,0.20973 0.237778,0.75333 0.05078,1.20899 -0.20663,0.50351 -0.359633,0.35445 -0.390625,-0.38086 -0.02109,-0.49918 0.05895,-0.83335 0.191406,-0.88086 z m 0.648438,3.15625 c 0.04415,-0.0159 0.09465,10e-4 0.148438,0.0527 0.215065,0.20977 0.237777,0.75333 0.05078,1.20899 -0.206635,0.50354 -0.36121,0.35448 -0.392578,-0.38086 -0.02113,-0.49918 0.0609,-0.83335 0.193359,-0.88086 z m 686.04297,10.71094 c -0.1183,0.0291 -0.0995,0.30902 0.0566,0.84765 0.20107,0.69434 1.12836,6.37601 2.06055,12.625 0.93214,6.24907 2.67091,15.33886 3.86328,20.19922 2.6993,11.00353 2.76534,11.45936 3.60156,24.93164 0.50366,8.11453 0.48136,14.56527 -0.082,24.30274 -0.73349,12.65956 -0.86568,13.50181 -2.94922,18.76367 -1.19989,3.03023 -2.18164,5.71645 -2.18164,5.96679 0,1.17 1.40444,-1.16674 3.25781,-5.41992 2.43311,-5.58342 3.16482,-12.94432 3.1875,-31.93554 0.0189,-16.21312 -0.86623,-24.99324 -3.60351,-35.79297 -2.48164,-9.79127 -2.82399,-11.54835 -4.83594,-24.80274 -0.73777,-4.86031 -1.64284,-9.12141 -2.01172,-9.46875 -0.17159,-0.16157 -0.29223,-0.23433 -0.36328,-0.21679 z m -67.2461,42.43164 c 0.20334,0.0302 0.3144,1.34013 0.34766,4.02148 0.034,2.86413 -0.0302,5.20703 -0.15039,5.20703 -1.15124,0 -1.43386,-5.78419 -0.43164,-8.83594 0.0888,-0.27049 0.16684,-0.40274 0.23437,-0.39257 z m -400.17968,14.9375 c -0.5751,0.10318 -2.43535,1.5402 -4.84766,3.9707 -2.1829,2.19938 -5.45586,6.38916 -7.27344,9.31055 -10.4598,16.81168 -16.6438,27.44146 -18.94726,32.56836 -2.69269,5.99316 -5.47104,16.42091 -7.875,29.55273 -0.76264,4.16602 -2.07709,9.98851 -2.91992,12.93945 -2.02619,7.09399 -5.29605,22.66984 -6.48633,30.89258 -0.52476,3.62517 -1.029,6.66389 -1.11914,6.75196 -0.0902,0.0881 -0.84177,-1.68623 -1.67188,-3.94336 -0.83011,-2.25718 -1.60452,-4.01183 -1.7207,-3.89844 -0.11618,0.11338 0.45962,2.98505 1.28125,6.38281 1.19875,4.95783 1.42771,7.30442 1.16016,11.88086 -0.19495,3.33445 0.007,7.57836 0.48437,10.2207 0.73575,4.07105 1.10342,4.78982 3.70508,7.24024 3.50063,3.29714 5.8053,3.47886 5.51758,0.43554 -0.41766,-4.41702 -3.06195,-14.23155 -5.01758,-18.62109 l -2.10938,-4.73437 1.51758,-10.26368 c 1.56501,-10.58721 5.08278,-28.13608 6.21875,-31.02148 0.95954,-2.43723 3.65036,-14.58884 4.82422,-21.78906 2.33,-14.29161 5.81314,-22.2769 19.57422,-44.86328 6.82397,-11.20041 9.27168,-14.72105 14.37109,-20.67188 1.4505,-1.69266 1.78128,-2.4202 1.33399,-2.33984 z m 157.52734,6.91601 c -4.48241,0 -5.90566,0.48192 -16.08008,5.45899 -5.59014,2.73456 -8.63216,3.76719 -14.88672,5.04883 -4.32373,0.88572 -9.9005,2.25312 -12.39257,3.0371 -2.49204,0.78395 -6.13183,1.80623 -8.08985,2.27149 -1.95806,0.46533 -3.06928,0.94836 -2.46875,1.07422 0.60057,0.12586 3.94983,-0.48854 7.44336,-1.36524 7.14868,-1.79391 13.87698,-3.03285 14.28906,-2.63086 0.80376,0.7838 -11.27511,7.66773 -17.9707,10.24219 l -2.26562,0.8711 3.19921,-0.33008 c 3.65364,-0.3786 12.88386,-4.50917 16.05469,-7.1836 2.44142,-2.05912 9.07436,-5.13098 11.08594,-5.13476 2.07341,-0.004 10.54905,-3.03932 9.45117,-3.38477 -0.52441,-0.16479 -1.34995,-0.40583 -1.83594,-0.5332 -1.73616,-0.45589 9.77207,-5.14131 13.33594,-5.42969 3.1437,-0.25436 3.7988,-0.0688 6.83985,1.9375 1.84947,1.22015 4.09039,2.57951 4.98046,3.02149 1.96615,0.97636 9.68898,7.55948 12.88672,10.98437 1.27884,1.3697 3.77376,3.78396 5.54493,5.36524 1.77081,1.58093 4.10079,3.84569 5.17773,5.03124 1.07694,1.18579 3.43565,3.74102 5.24219,5.67969 1.80654,1.93875 3.96505,4.5193 4.79492,5.73438 0.82983,1.21508 2.67648,3.40355 4.10351,4.86328 2.07175,2.11929 2.57667,3.09288 2.50977,4.83203 -0.0597,1.54681 0.47255,2.86207 1.83594,4.53516 1.53006,1.87733 1.91992,2.97409 1.91992,5.40429 0,2.30415 0.21317,2.97022 0.875,2.72266 0.64959,-0.24302 1.16636,1.10657 1.99805,5.22656 1.34298,6.65333 3.26529,11.57726 7.90039,20.24024 3.41321,6.3792 3.86391,8.15492 3.0625,12.0625 -0.5181,2.52631 -1.53711,2.55946 -1.53711,0.0508 0,-2.80732 -1.98933,-10.07031 -2.75781,-10.07031 -0.42218,0 -0.49231,1.18953 -0.19532,3.3125 1.65362,11.82416 2.09619,23.65123 0.97461,26.03906 -0.42867,0.91272 -0.55214,0.29935 -0.4414,-2.21094 0.24793,-5.62394 -0.99934,-4.58541 -1.89649,1.57812 -0.45479,3.1245 -1.53939,8.94895 -2.41016,12.94141 -0.87049,3.99239 -1.76354,8.96191 -1.98242,11.04492 -0.50196,4.78024 -1.51563,8.52149 -2.31054,8.52149 -0.33714,0 -1.38301,-1.13459 -2.32422,-2.52149 -1.50766,-2.22145 -1.66015,-2.90916 -1.26953,-5.77929 0.24378,-1.79188 0.86455,-4.05151 1.3789,-5.02149 1.08492,-2.04574 1.21939,-3.33436 0.28907,-2.77344 -0.93755,0.56504 -0.80515,-2.23005 0.42773,-8.96093 0.97357,-5.31477 0.9165,-7.39324 -0.17578,-6.32813 -0.63122,0.61557 -2.04099,7.84841 -2.75781,14.15625 -0.36322,3.19567 -1.0746,6.58292 -1.58204,7.52735 l -0.92187,1.71679 -1.7832,-2.625 c -0.97985,-1.44385 -2.05293,-2.46165 -2.38477,-2.26172 -0.33827,0.20372 -0.11374,1.10075 0.50977,2.04102 0.61167,0.92258 1.51802,2.29108 2.01367,3.04102 0.78485,1.18706 0.7327,1.92195 -0.39844,5.68164 -3.08179,10.24327 -4.08961,19.64476 -2.17187,20.25976 0.58325,0.18709 0.81886,-0.76886 0.83398,-3.42383 0.0227,-3.34881 1.99769,-14.38613 2.69531,-15.0664 0.36057,-0.3515 2.82697,4.50785 3.375,6.65039 0.36473,1.42514 0.3243,1.46689 -0.41797,0.41992 -0.45207,-0.63764 -1.16218,-1.63235 -1.57812,-2.20898 -1.57981,-2.19122 -1.52469,-0.0911 0.0781,2.99414 1.58903,3.0579 1.63589,3.42614 0.91797,7.16406 -1.34725,7.01507 -1.37515,11.24003 -0.0957,14.85742 l 1.18359,3.3418 0.0488,-8.07618 c 0.0265,-4.44188 0.33941,-8.77407 0.69336,-9.625 0.622,-1.49559 0.69979,-1.43612 2.33984,1.74805 l 1.69532,3.29297 -1.01953,5.78906 c -1.43585,8.15139 -1.03166,10.23476 3.74218,19.2461 6.03995,11.40132 6.76037,12.29608 10.59961,13.18359 1.77513,0.41031 3.66326,0.77559 4.19727,0.81641 1.70226,0.12586 -2.8169,-3.01269 -4.92969,-3.42383 -2.21476,-0.43109 -4.06623,-3.05835 -9.42383,-13.37695 l -2.79883,-5.39258 0.22266,-6.06446 c 0.57169,-15.54353 0.5465,-15.90906 -1.37305,-19.90625 -1.55799,-3.24412 -1.62152,-3.58752 -0.48437,-2.58398 2.25082,1.98637 1.44596,0.0832 -1.97266,-4.66406 -1.86572,-2.59072 -3.44982,-5.56458 -3.66601,-6.88477 l -0.38086,-2.32422 1.61914,1.89453 c 2.77633,3.24737 9.6633,13.57624 11.63281,17.44727 1.96517,3.86249 3.42951,4.98441 2.53516,1.94336 -0.71086,-2.41708 -2.72955,-6.0741 -5.81055,-10.5293 -2.34433,-3.39001 -2.50591,-3.86356 -1.62891,-4.80859 0.53526,-0.57676 1.40358,-3.28801 1.92969,-6.02344 2.56747,-13.34914 3.73674,-18.30887 4.51563,-19.17578 0.46794,-0.52074 1.45513,-2.44775 2.19531,-4.2832 1.11976,-2.77678 1.34791,-4.73818 1.35547,-11.67774 0.008,-5.07598 0.23397,-7.99515 0.58203,-7.45898 1.11949,1.72414 2.81591,-2.89 2.52148,-6.85938 -0.24869,-3.35285 -1.25535,-5.76318 -5.6289,-13.49609 -2.18056,-3.85535 -4.00462,-9.03492 -5.58008,-15.83398 -0.87628,-3.78157 -1.76321,-7.39587 -1.9707,-8.03321 -0.51512,-1.58302 0.36774,-1.45548 2.35546,0.3418 1.02482,0.9267 3.23041,5.28108 5.75782,11.36328 2.43118,5.85071 4.45074,9.85937 4.96679,9.85937 1.29324,0 1.07604,-1.03969 -1.44922,-6.94335 -1.26197,-2.95091 -2.89901,-6.92871 -3.63867,-8.83789 -1.80109,-4.6495 -3.22102,-6.49932 -6.56836,-8.56446 -2.22848,-1.3748 -3.18145,-2.56629 -4.60547,-5.7539 -0.98739,-2.21076 -3.01879,-5.35992 -4.51367,-7 -1.49491,-1.64009 -3.65863,-4.33259 -4.80859,-5.98243 -1.15007,-1.64991 -5.64485,-6.46863 -9.98828,-10.70703 -4.3434,-4.23836 -8.48761,-8.46925 -9.21094,-9.40234 -0.72333,-0.93302 -2.90875,-2.91854 -4.85547,-4.41406 -1.94676,-1.49556 -4.06877,-3.36928 -4.71484,-4.16211 -0.64604,-0.79287 -2.96232,-2.4635 -5.14844,-3.71289 -2.18608,-1.24944 -4.68193,-2.8151 -5.54687,-3.47852 -1.16674,-0.89522 -2.61705,-1.20508 -5.61524,-1.20508 z m -55.78711,20.22852 c -5.10206,-0.0726 -13.39918,5.62696 -20.88476,14.34765 -3.19507,3.72227 -6.83751,7.56173 -8.09375,8.53125 -2.30772,1.78103 -3.01987,3.60157 -1.40821,3.60157 0.73055,0 0.72494,0.54564 -0.0371,3.31445 -0.58552,2.12655 -1.00519,7.83642 -1.17187,15.9375 -0.2575,12.50615 -0.25141,12.57864 0.66406,7.57617 0.50827,-2.77735 1.21422,-8.74265 1.56836,-13.25586 0.69642,-8.87894 1.88305,-13.28093 4.19922,-15.57812 0.81226,-0.80565 3.29049,-2.56224 5.50586,-3.90235 3.23168,-1.95462 4.42204,-2.35982 6.02539,-2.04687 1.90658,0.3719 1.94935,0.33753 0.92187,-0.76953 -0.59201,-0.63825 -0.85743,-1.38696 -0.58984,-1.66211 0.26778,-0.27553 -0.0966,-0.34882 -0.80859,-0.16211 -0.71203,0.18633 -2.45877,0.53095 -3.88282,0.76562 l -2.58984,0.42774 1.60547,-1.79297 c 4.49469,-5.01577 5.89384,-6.3031 10.36914,-9.55273 2.66956,-1.9386 6.16505,-4.02688 7.76758,-4.63868 2.85396,-1.08929 2.87058,-1.11039 0.83984,-1.14062 z m 373.79102,5.92969 c -0.15912,-0.15497 -1.61927,3.62376 -3.2461,8.39843 -3.10106,9.1019 -9.28645,22.78943 -16.35742,36.20313 -5.11895,9.71093 -12.60521,31.23159 -12.59765,36.23047 0.002,2.26862 0.17988,2.88956 0.63086,2.20898 0.34457,-0.52074 0.62915,-1.88025 0.63671,-3.02148 0.008,-1.91146 2.84305,-11.23735 6.94532,-22.85742 0.91922,-2.60376 2.83841,-7.00586 4.26367,-9.78321 1.4253,-2.77735 3.09666,-6.04468 3.71484,-7.25976 6.64316,-13.05857 17.04056,-39.1139 16.00977,-40.11914 z m -176.92188,9.375 c -0.034,0.002 -0.0609,0.0144 -0.084,0.0371 -0.36662,0.35742 3.99446,8.59071 11.34961,21.42187 2.54521,4.44019 4.6289,8.21034 4.6289,8.37891 0,0.16856 -0.91472,-0.15458 -2.0332,-0.71875 -3.37221,-1.70056 -13.20087,-1.19815 -14.86719,0.75976 -0.93392,1.09754 -0.14889,1.11328 5.77344,0.12305 4.33784,-0.72537 4.52336,-0.69875 8.69531,1.20508 3.9303,1.79353 4.50699,2.32629 7.39258,6.82812 4.70952,7.34729 14.83173,19.38971 22.25586,26.47852 3.63594,3.47168 7.52032,7.4828 8.63086,8.91211 1.1105,1.4293 5.59364,6.5416 9.96289,11.36133 5.72379,6.31369 8.13877,9.46693 8.64258,11.28124 0.3846,1.38516 1.95839,4.53951 3.49609,7.00977 3.2733,5.25823 3.88888,7.23755 4.89453,15.7207 0.41156,3.47173 1.01481,6.80846 1.33985,7.41602 0.88172,1.64791 2.04514,1.36127 1.59375,-0.39258 -0.21203,-0.82356 -0.84275,-4.72966 -1.40235,-8.67969 -2.34345,-16.54189 -11.22177,-35.97541 -22.74804,-49.78906 -4.87181,-5.83854 -17.72405,-18.2544 -22.85547,-22.08008 -11.74345,-8.75523 -13.96974,-11.33899 -23.80078,-27.6289 -4.97564,-8.24459 -9.39787,-15.65391 -9.82813,-16.46485 -0.37644,-0.70934 -0.80981,-1.19185 -1.03711,-1.17968 z m -360.26562,38.63476 -0.9668,2.83985 c -0.73305,2.15628 -0.88191,4.66866 -0.62305,10.43554 0.48951,10.90522 2.69515,20.32912 5.84766,24.97461 0.91952,1.35496 1.91176,2.46289 2.20312,2.46289 1.22919,0 1.27641,-0.90971 0.13086,-2.47851 -1.43792,-1.96925 -3.49808,-7.7717 -4.49804,-12.66993 -0.82397,-4.03612 -1.97421,-16.29219 -2.04492,-21.77734 z m 604.49414,0.40625 c -0.29292,-0.008 -0.62012,4e-5 -0.97071,0.0293 -2.19306,0.17726 -2.72133,0.61458 -5.54687,4.61328 -6.9292,9.80606 -21.1582,33.08902 -21.1582,34.62109 0,0.89031 1.08075,-0.67075 4.51562,-6.53125 4.67664,-7.97918 9.69945,-15.73691 15.42774,-23.82812 4.84924,-6.8496 5.68621,-7.73242 7.33007,-7.73242 1.02067,0 1.85547,-0.30161 1.85547,-0.66993 0,-0.29064 -0.57427,-0.47557 -1.45312,-0.50195 z m -218.77539,1.06445 c 0.28044,0.068 1.21711,0.81042 3.08594,2.35938 2.12325,1.76013 5.20802,4.18698 6.85351,5.39258 3.21109,2.35268 18.17907,17.33812 21.99609,22.02148 4.25791,5.22425 8.31922,11.24045 10.66211,15.79297 1.27699,2.4813 2.21432,4.61683 2.08203,4.74609 -0.25159,0.2453 -10.07523,-10.74884 -17.43945,-19.51757 -2.36704,-2.81851 -6.21574,-6.77076 -8.55273,-8.78321 -4.01314,-3.45585 -15.42506,-16.54463 -18.19141,-20.86523 -0.42213,-0.65926 -0.64379,-1.05113 -0.57617,-1.13477 0.0151,-0.0189 0.04,-0.0231 0.0801,-0.0117 z m 158.21289,1.02344 c -0.0151,-0.0227 -0.0404,-0.0237 -0.0801,0.004 -0.3738,0.22526 -2.57282,4.03902 -4.88672,8.47656 -2.31394,4.43762 -7.57975,13.01673 -11.70117,19.0625 -8.13717,11.93643 -11.51937,17.62388 -14.18359,23.85156 -0.94659,2.21277 -3.01283,6.09821 -4.5918,8.63477 -1.57901,2.53655 -2.87109,4.77488 -2.87109,4.97265 0,0.92206 0.75392,0.008 3.73828,-4.5332 1.76851,-2.69053 4.33847,-7.30687 5.71093,-10.25781 3.08996,-6.6432 6.4717,-12.30314 14.14063,-23.66992 3.27915,-4.86032 6.86673,-10.54199 7.97266,-12.625 4.37456,-8.23964 6.96833,-13.59423 6.75195,-13.91602 z m 65.05469,0.45703 c -0.0888,-0.008 -0.21198,0.0681 -0.3711,0.23633 -1.23069,1.29989 -2.66052,7.24411 -3.33203,13.85352 -0.94409,9.29189 -3.10393,14.53098 -17.43945,42.29297 -6.2744,12.15087 -12.66546,25.14855 -14.20313,28.88476 -1.53762,3.73622 -3.05393,6.94894 -3.36914,7.13867 -0.31521,0.19011 -0.56615,0.68418 -0.55859,1.09766 0.0302,1.60184 2.62517,-2.66534 4.91601,-8.08594 1.32053,-3.1245 7.29045,-15.05521 13.26758,-26.51172 11.55969,-22.15691 16.78443,-33.38132 17.92188,-38.5039 0.3854,-1.73583 0.89016,-5.56931 1.12109,-8.51953 0.23093,-2.95023 0.8256,-6.50128 1.32227,-7.89063 0.8434,-2.35941 1.1094,-3.957 0.72461,-3.99219 z m -483.92188,1.78321 c -1.40553,0 -1.45575,7.83871 -0.0859,13.78515 0.74642,3.24269 1.30733,7.38684 1.2461,9.20899 -0.0837,2.49808 0.22817,3.76489 1.26367,5.15039 2.16238,2.89368 3.00863,9.98298 2.02539,16.96679 -0.54539,3.87402 -0.6084,6.36032 -0.18945,7.58594 1.08249,3.16687 1.8357,2.36114 1.91015,-2.04492 0.0396,-2.34244 0.33014,-6.53125 0.64649,-9.30859 l 0.57617,-5.04883 2.68555,5.04883 c 4.9568,9.316 8.66411,21.72696 8.61914,28.85156 -0.0117,1.83726 -0.5697,4.89507 -1.24219,6.79492 -0.67249,1.89982 -1.06543,3.70236 -0.87305,4.00586 1.22721,1.93644 4.05715,-5.74555 4.07227,-11.04883 0.0193,-7.47965 -4.05595,-20.09123 -10.26367,-31.75976 -3.00533,-5.64915 -4.82228,-10.00228 -5.83008,-13.97071 -1.3518,-5.32271 -1.41175,-6.30965 -0.78125,-12.89453 0.37568,-3.9222 0.56959,-7.2424 0.43164,-7.37695 -0.13795,-0.13455 -0.78731,1.78803 -1.44336,4.27148 -1.4129,5.3486 -2.00538,4.41302 -2.10742,-3.32617 -0.0355,-2.69061 -0.33249,-4.89062 -0.66016,-4.89062 z m 383.14258,34.08398 c -0.35641,0 -0.64844,0.50648 -0.64844,1.125 0,1.99533 -4.44458,16.25054 -6.66211,21.36719 -1.18386,2.73142 -3.50052,6.74918 -5.14844,8.92773 -3.79007,5.01071 -5.66601,9.83728 -5.66601,14.57813 0,2.01207 0.21919,3.87404 0.48633,4.13672 0.26721,0.26267 0.66397,-1.62245 0.88281,-4.1875 0.43098,-5.05641 2.16758,-9.60794 5.00586,-13.12305 4.40772,-5.45877 7.31772,-12.12548 10.3789,-23.77734 2.22373,-8.46339 2.31213,-9.04688 1.3711,-9.04688 z M 186.5625,545.125 c 0.75354,0.10469 2.03772,3.80984 3.55859,10.33398 0.84697,3.6333 1.45931,6.6857 1.35938,6.78321 -0.42465,0.41412 -3.00405,-2.85196 -3.85156,-4.87696 -1.06854,-2.55303 -2.0211,-11.01526 -1.35743,-12.0625 0.0851,-0.13417 0.18338,-0.19285 0.29102,-0.17773 z m 133.38086,0.25586 c -1.14841,0 -1.36565,4.43289 -0.61133,12.45312 0.61572,6.5483 0.61609,9.06741 -0.002,11.67774 -0.90845,3.8448 -4.83158,11.94677 -8.0957,16.72266 -1.2389,1.81231 -2.43402,3.94316 -2.65626,4.73437 -0.30575,1.09005 0.24907,0.75002 2.28711,-1.40234 3.58889,-3.79019 9.27746,-15.35362 10.68165,-21.71094 0.84831,-3.8425 1.00113,-6.4445 0.6621,-11.36133 -0.46303,-6.71599 -1.3594,-11.11328 -2.26562,-11.11328 z m -131.27734,25.38281 c -0.092,0.0522 -0.11436,0.45164 -0.13477,1.24024 -0.0601,2.31779 1.8433,3.62631 10.31445,7.09179 8.30268,3.39659 10.70727,3.9468 20.71289,4.74024 4.58922,0.36397 9.42861,1.19672 12.6211,2.17187 7.07263,2.16034 7.29968,2.01296 1.41601,-0.91992 -4.06707,-2.02734 -6.16076,-2.64208 -10.68164,-3.13867 -14.40926,-1.58294 -15.326,-1.77513 -22.45117,-4.70899 -3.91609,-1.61249 -7.90193,-3.2466 -8.85742,-3.63085 -0.95548,-0.38469 -2.02735,-1.28436 -2.38281,-1.99805 -0.30157,-0.60556 -0.46462,-0.89997 -0.55664,-0.84766 z m -93.712895,2.78906 c -0.492949,0.034 -0.811314,0.17349 -0.96875,0.41602 -0.178016,0.27402 2.151667,1.47944 5.177734,2.67773 3.026071,1.19838 6.241851,2.96219 7.146481,3.91993 0.90464,0.95769 3.36768,3.01976 5.47266,4.58203 2.10498,1.56227 5.95989,4.89095 8.56641,7.39844 2.60651,2.50721 6.0911,5.33265 7.74414,6.27734 1.65304,0.94469 2.66601,1.82758 2.25,1.96289 -0.41606,0.13531 -0.75586,0.64879 -0.75586,1.14062 0,0.62245 0.78564,0.89454 2.58789,0.89454 2.07522,0 2.58984,-0.22867 2.58984,-1.15235 0,-1.3118 -2.01248,-3.2107 -4.83398,-4.55859 -1.05696,-0.50495 -4.40843,-3.1943 -7.44531,-5.97656 -3.03714,-2.7823 -7.06345,-6.15367 -8.94922,-7.49219 -1.88578,-1.33848 -3.31582,-2.5452 -3.17578,-2.68164 0.13979,-0.13644 2.26686,0.49655 4.7246,1.40625 2.45776,0.90969 5.92505,2.0731 7.70508,2.58593 1.78004,0.51311 3.81923,1.29157 4.53125,1.72852 3.42419,2.10138 10.87269,4.37468 16.83789,5.13867 8.92971,1.14373 16.0182,4.3368 21.10742,9.50977 6.07495,6.17461 14.03765,17.58382 15.68946,22.48047 0.7375,2.1863 1.215,1.03829 0.93554,-2.24805 -0.23727,-2.79315 -0.81775,-4.06139 -3.47851,-7.60742 -11.94175,-15.91495 -13.81334,-17.71402 -22.14063,-21.27539 -4.537,-1.94037 -7.58075,-2.79713 -11.41992,-3.21485 -6.59129,-0.71705 -9.46064,-1.47007 -13.95508,-3.66015 -1.96702,-0.95849 -7.21788,-2.95171 -11.66796,-4.42969 -4.4501,-1.47802 -11.10433,-3.8219 -14.78711,-5.20898 -4.96259,-1.86894 -8.009435,-2.71586 -9.488285,-2.61329 z m 142.955075,2.75782 c -1.72297,0 7.42432,8.79161 13.66992,13.13867 7.01371,4.88149 7.50556,5.11439 12.89063,6.11914 2.5934,0.48389 6.14619,1.44634 7.89648,2.13867 3.58976,1.41989 5.18969,1.61494 5.76758,0.70313 0.62396,-0.98457 -6.60827,-3.82337 -12.24219,-4.80469 -2.81942,-0.49115 -5.93078,-1.38724 -6.91406,-1.99219 -5.64317,-3.47191 -10.53976,-7.05343 -14.93554,-10.92578 -2.73246,-2.40711 -5.49207,-4.37695 -6.13282,-4.37695 z m 375.58594,3.78711 c -0.80077,0 -19.80469,16.69503 -19.80469,17.39843 0,1.77612 7.3548,-3.73172 16.66797,-12.48242 4.09962,-3.85202 4.77783,-4.91601 3.13672,-4.91601 z m -310.47656,10.61523 c -0.64329,-0.0469 -1.7575,0.0377 -3.35742,0.26367 -5.01049,0.7129 -8.20705,2.16409 -13.87305,6.30078 -7.77884,5.67931 -10.71768,6.36409 -15.44727,3.59766 -1.08446,-0.63432 -3.12364,-1.33195 -4.53125,-1.55078 -2.15818,-0.33525 -2.77114,-0.16703 -3.91797,1.07617 -1.47299,1.59712 -2.44494,3.69808 -1.69531,3.66406 0.25584,-0.0113 1.03161,-0.43756 1.72266,-0.94726 1.72554,-1.27253 4.17293,-1.15631 6.64648,0.31445 1.14286,0.67952 3.03583,1.50728 4.20703,1.83984 4.12528,1.1726 8.68208,-0.65972 16.20508,-6.51757 2.40129,-1.86977 5.75055,-3.87451 7.44336,-4.45508 6.21136,-2.13041 8.52752,-3.44542 6.59766,-3.58594 z m 292.30859,2.63477 c -0.95444,0.004 -2.44337,0.48035 -3.59961,1.2832 -3.71788,2.58157 -16.61418,8.1985 -21.02734,9.1582 -5.4164,1.17785 -6.54418,1.80268 -18.9043,10.48633 -5.26072,3.69593 -11.53057,7.66234 -13.93359,8.81445 -2.40306,1.15215 -4.36914,2.3193 -4.36914,2.5918 0,1.41071 6.75421,-0.63736 11.17773,-3.38867 1.86236,-1.15835 7.02647,-4.6896 11.47656,-7.84766 9.85879,-6.99651 9.83185,-6.98232 15.46875,-8.13867 7.41068,-1.52016 24.66407,-10.21372 24.66407,-12.42773 0,-0.367 -0.38045,-0.53409 -0.95313,-0.53125 z m 144.21485,3.96679 c -0.38015,-0.12359 -3.56368,0.82496 -7.07422,2.10743 -3.5105,1.28212 -9.59068,3.2868 -13.51368,4.45312 -7.12047,2.1171 -21.05078,8.1767 -21.05078,9.1582 0,0.91782 1.01615,0.57254 6.85352,-2.33203 3.15099,-1.56794 9.81348,-4.15146 14.80469,-5.74219 10.75937,-3.42909 20.95078,-7.32931 19.98047,-7.64453 z m -138.63477,1.14453 c -0.96556,-0.14211 -3.26001,1.25345 -7.2168,4.375 -7.07678,5.58297 -14.07654,8.1869 -25.55859,9.50391 -6.38967,0.73289 -9.03567,1.51197 -8.42188,2.48047 1.28164,2.02227 20.67636,-1.36287 27.70118,-4.83398 5.4139,-2.67534 14.81857,-10.40724 13.83007,-11.3711 -0.0847,-0.0828 -0.19603,-0.13426 -0.33398,-0.1543 z m 111.1543,16.88868 c -0.38085,0.014 -2.01462,1.20974 -3.95703,2.92382 -4.37054,3.85694 -12.72006,8.30486 -14.40625,7.67383 -0.57366,-0.21467 -0.86999,-0.12336 -0.66211,0.20508 0.34582,0.54576 -6.07346,2.81837 -6.57618,2.32813 -0.1217,-0.11868 1.84871,-1.55849 4.37891,-3.19922 2.53024,-1.6407 4.74947,-2.83783 4.93164,-2.66016 0.1818,0.17764 0.95566,-0.25474 1.71875,-0.95898 0.76316,-0.70424 2.76994,-1.96948 4.46094,-2.8125 1.69107,-0.84299 3.07617,-1.66599 3.07617,-1.82813 0,-0.61587 -5.14847,2.03666 -12.94727,6.67188 -4.44982,2.64495 -8.39082,4.97471 -8.75781,5.17578 -0.36699,0.20107 -4.13919,0.68146 -8.38281,1.0664 -16.31819,1.48086 -24.27601,4.2985 -31.11133,11.01563 -4.49824,4.42038 -7.7559,8.45433 -7.23633,8.96094 0.19654,0.19162 1.76649,-1.16264 3.48828,-3.00977 10.44601,-11.2043 16.99997,-14.1683 33.87696,-15.32227 5.15342,-0.35213 5.6159,-0.0597 1.9414,1.22461 -0.17801,0.0624 -1.48836,0.61945 -2.9121,1.24024 -1.42406,0.62082 -3.60944,1.49955 -4.85547,1.95117 -1.24593,0.45162 -1.91217,0.84252 -1.48047,0.86524 0.43166,0.0227 2.41809,-0.55102 4.41406,-1.2793 1.99593,-0.72858 3.76414,-1.19302 3.92969,-1.03125 0.0113,0.0113 0.0219,0.0468 0.0332,0.0664 l 0.78516,-0.57031 0.34179,-0.0801 -0.0391,-0.30078 2.96484,-1.45898 c 1.63042,-0.80179 4.27493,-1.6534 5.87696,-1.89453 1.60203,-0.24076 3.45117,-0.58698 4.10937,-0.76953 0.68039,-0.1886 0.95296,-0.14263 0.95508,0.29882 l 1.32813,-0.26562 c 1.13896,-0.86748 3.07384,-1.92949 5.77148,-3.15039 3.33513,-1.50955 7.1439,-3.5794 8.46484,-4.59961 l 2.4004,-1.85547 0.0742,0.52344 0.70508,-1.05664 0.72656,-0.37891 c 0.22451,-0.41737 0.63676,-0.96038 1.16211,-1.47266 0.81918,-0.79891 1.49024,-1.77377 1.49024,-2.16601 0,-0.0484 -0.0262,-0.0711 -0.0801,-0.0703 z m -221.84571,7.09179 c -1.14036,-0.0113 -1.23179,0.0952 0.55664,0.3711 0.89005,0.13719 3.36592,0.68349 5.50196,1.21289 2.13604,0.52936 5.77575,1.19505 8.08984,1.47851 2.31405,0.28347 5.08237,0.54021 6.15039,0.57422 1.84305,0.0571 1.87814,0.0151 0.68555,-0.86523 -0.69105,-0.50971 -1.7106,-0.9319 -2.26563,-0.93946 -0.55494,-0.008 -4.21278,-0.43033 -8.1289,-0.9414 -3.87523,-0.50563 -8.68916,-0.86874 -10.58985,-0.89063 z m -18.08007,1.96094 v 0.002 c -0.91975,0.0265 -1.42969,0.1672 -1.42969,0.42578 0,0.39489 0.14412,0.7168 0.31836,0.7168 0.17461,0 5.48044,0.99586 11.79297,2.21094 6.31253,1.21512 13.37894,2.21705 15.70312,2.22461 2.34153,0.008 6.82472,0.68543 10.05274,1.51953 6.82805,1.76432 15.25109,2.07078 20.08593,0.72852 1.76863,-0.491 5.25403,-1.47337 7.7461,-2.18164 2.49207,-0.70855 5.34429,-1.45118 6.33789,-1.6504 0.9936,-0.19955 1.63151,-0.6398 1.41797,-0.97656 -0.74158,-1.1701 -5.99945,-0.60194 -11.85938,1.28125 -7.79716,2.50568 -15.15644,2.59962 -24.82031,0.31641 -3.89753,-0.92085 -8.58605,-1.57767 -11.26563,-1.57813 -2.5243,-4.5e-4 -7.33188,-0.55549 -10.68164,-1.23437 -5.23672,-1.06133 -9.71961,-1.69274 -12.3457,-1.79297 -0.3939,-0.0151 -0.74614,-0.0155 -1.05273,-0.0117 z m -295.60352,1.23438 c -0.48059,0.46862 7.47567,9.58701 14.79297,16.95312 3.97384,4.00033 8.44959,9.38141 11.28906,13.57227 2.58744,3.81883 5.76317,7.72302 7.05664,8.67773 3.5246,2.60149 4.78548,2.20511 2.00586,-0.63086 -1.27601,-1.30186 -4.00019,-4.78152 -6.05273,-7.73242 -2.05254,-2.95094 -5.12129,-7.06937 -6.82032,-9.15234 -3.57823,-4.38694 -21.80846,-22.13908 -22.27148,-21.6875 z m 17.85352,11.00976 c -0.15145,-7.2e-4 -0.26001,0.051 -0.32422,0.15235 -0.49573,0.7819 13.89049,14.35882 19.99609,18.87109 9.90909,7.32325 20.33505,18.73602 28.41602,31.10547 1.70104,2.60375 4.08969,6.1548 5.30859,7.89062 l 2.2168,3.15625 c 0,0 1.29406,4.63097 4.95703,6.0918 1.00218,0.39965 2.48343,0.6626 3.29297,0.58398 1.29706,-0.12585 2.04046,1.00522 6.25781,9.5293 2.63225,5.32021 6.09027,13.3657 7.68359,17.87891 1.59334,4.51321 3.71206,10.05202 4.70899,12.30859 1.65932,3.75874 1.80302,4.68597 1.68359,11.04688 -0.0718,3.81883 -0.41469,11.08997 -0.75976,16.1582 -0.55722,8.18574 -0.95305,10.2428 -3.55469,18.41406 -1.6108,5.05924 -3.33887,11.27999 -3.83985,13.82422 -0.50096,2.54423 -3.19489,10.62732 -5.98632,17.96289 l -5.07618,13.33789 -0.39843,0.0293 c -0.34636,0.94896 -0.68698,1.90165 -1.08985,2.97265 0.59854,0.56863 -0.11758,2.10798 -1.84179,6.29297 -2.70335,6.56164 -6.3777,11.92309 -10.06641,14.68555 -4.30651,3.22526 -9.35815,5.85269 -11.13477,5.79297 -0.0734,-0.002 -0.17213,-0.0263 -0.27539,-0.0547 -0.53703,0.26041 -1.25274,0.60687 -1.4414,0.70117 -0.41515,0.2075 -1.27165,0.40543 -2.22852,0.5918 l 0.37891,0.24023 -2.09961,1.24414 c -1.1545,0.68459 -4.44381,2.97595 -7.31055,5.0918 -2.86677,2.11574 -7.00626,5.51613 -9.19922,7.55469 l -3.375,3.13672 c -0.23478,0.81464 -0.84179,2.92187 -0.84179,2.92187 l -0.65235,3.15821 c 1.01057,-0.76396 2.33213,-2.05985 4.00586,-3.89258 2.31145,-2.5313 5.07651,-5.2989 6.14453,-6.15039 1.06803,-0.85145 0.39597,0.1557 -1.49414,2.23633 -1.89006,2.08078 -4.31204,5.26871 -5.38086,7.08398 -0.47409,0.80527 -0.96928,1.56904 -1.41992,2.21484 l 0.25781,0.0566 -2.43554,4.70899 -1.1211,2.41797 c -0.4153,1.27457 -0.96775,2.85586 -1.625,4.59765 -1.45194,3.84787 -2.64062,7.13946 -2.64062,7.31446 0,0.002 0.006,0.004 0.006,0.006 l -15.68555,27.49414 -3.97851,20.55078 -2.60547,29.2832 -2.26758,18.14653 0.2207,0.027 -5.60156,33.6113 -18.07813,38.0821 -17.50195,27.8828 -0.008,0.014 c 0,0 -2.29457,3.9166 -3.72852,7.375 -0.35849,0.8645 -0.66471,1.7047 -0.87109,2.4804 -0.2064,0.7757 -0.35801,1.4627 -0.21485,2.2364 0.0716,0.3856 0.25193,0.8438 0.63672,1.1894 0.38478,0.3458 0.924,0.4877 1.37305,0.4785 0.89811,-0.019 1.6322,-0.4023 2.61133,-1.0254 2.02167,-1.2865 4.64057,-3.8196 7.61914,-6.9824 2.97857,-3.1628 6.25572,-6.9339 9.30859,-10.5566 6.10576,-7.2455 11.3086,-13.9141 11.3086,-13.9141 l 0.0371,-0.045 21.49609,-32.5684 6.20898,-12.4179 5.30665,7.9589 13.15622,11.9943 -7.75979,15.5549 -5.86133,23.4453 -5.18945,16.2031 1.67578,0.5391 5.20508,-16.2637 5.82422,-23.3125 7.7949,-15.5758 9.12302,-48.8512 -1.72656,-0.3262 -8.875,47.5723 -11.30664,-12.4102 -7.67773,-11.5234 -8.08399,16.1503 -21.35547,32.3633 c -0.0272,0.034 -5.16721,6.6271 -11.2207,13.8106 -3.03478,3.6012 -6.29229,7.3378 -9.21875,10.4453 -2.92646,3.1074 -5.58892,5.6056 -7.13867,6.5918 -0.42521,0.2706 -0.46062,0.2414 -0.69336,0.334 0.0253,-0.1807 0.003,-0.2053 0.0664,-0.4434 0.16142,-0.6067 0.42831,-1.3659 0.75976,-2.164 1.32579,-3.1976 3.58008,-7.0704 3.58008,-7.0704 l 17.54688,-27.955 18.29296,-38.5352 5.66993,-34.0586 1.2832,0.1621 2.27344,-18.21874 2.59179,-29.15235 3.81641,-19.70898 14.37891,-28.86914 c 0.81394,-0.58795 1.56673,-2.35574 3.47656,-7.44922 l 2.89844,-7.73242 0.36718,-0.006 c 0.4209,-0.7158 0.86754,-1.65645 1.32618,-2.67383 -0.0574,-0.008 -0.23438,-0.016 -0.23438,-0.0273 9.1e-4,-0.73032 3.24941,-6.19039 5.64453,-9.48633 1.59387,-2.19334 2.73062,-4.15163 2.52539,-4.35156 -0.65612,-0.63984 3.55362,-4.82988 7.61914,-7.58399 2.08231,-1.41063 3.15237,-2.04699 3.84571,-2.14843 0.10401,-0.0151 0.19994,-0.0155 0.28906,-0.0117 0.26732,0.0227 0.47681,0.14828 0.6875,0.35351 0.74914,0.73059 0.61341,1.31622 -0.88086,3.80274 -0.97145,1.6165 -2.27773,4.55938 -2.9043,6.53906 l -0.41406,1.31055 -0.44141,1.94531 c 0,0 -0.15352,2.76548 -0.45508,4.59375 0.004,0.13228 0.0195,0.21777 0.0195,0.375 0,1.05653 0.25459,2.57718 0.5664,3.38086 l 0.47071,1.21094 0.0488,0.0195 1.89063,2.56836 1.6543,1.54492 c 1.86686,1.74576 3.3437,1.67083 1.84179,-0.0938 -0.45747,-0.53753 -0.71551,-1.09258 -0.57226,-1.23242 0.0413,-0.0404 0.22976,-0.0674 0.52929,-0.084 l -1.12304,-1.40429 -0.33203,-1.16407 c -0.51668,-0.2657 -0.83324,-0.69514 -1.27344,-1.42187 -1.66466,-2.74802 -1.3706,-5.31473 1.03711,-9.04297 2.6206,-4.05782 3.54576,-6.25348 4.18945,-9.94922 0.43638,-2.50537 0.94181,-3.16657 4.3418,-5.67969 7.05169,-5.21238 10.84166,-9.41131 14.15429,-15.67773 1.71199,-3.23849 3.62322,-7.35688 4.24805,-9.15235 l 1.13672,-3.26367 0.29687,-0.0117 c 0.26291,-0.7514 0.55147,-1.62519 0.87891,-2.63867 l -0.38672,0.0156 2.02735,-5.3086 c 1.11566,-2.91949 2.61849,-6.95499 3.33789,-8.96679 1.16606,-3.26079 1.39784,-3.5349 2.14453,-2.53907 0.7542,1.00577 0.90638,0.86652 1.5293,-1.39257 0.38022,-1.38002 0.98059,-4.49754 1.33398,-6.92774 0.95373,-6.56096 2.20882,-11.76194 4.87305,-20.19531 2.64229,-8.36391 3.27129,-12.62181 4.17773,-28.28516 0.65737,-11.35884 0.23909,-14.70675 -2.49023,-19.92383 -0.69188,-1.32257 -2.59862,-6.29676 -4.23633,-11.05273 -1.65672,-4.81126 -5.48911,-13.60613 -8.64063,-19.82617 -3.11535,-6.14858 -6.47047,-12.95521 -7.45507,-15.125 -1.94419,-4.28319 -3.41043,-5.26278 -2.83008,-1.89258 0.1943,1.12826 0.55631,2.54869 0.80273,3.15625 0.73387,1.80968 -3.3077,1.51236 -4.30273,-0.31641 -1.94181,-3.56893 -13.44041,-20.16682 -16.6875,-24.08789 -4.62248,-5.58183 -13.82324,-14.27855 -20.45118,-19.33007 -2.84781,-2.17078 -7.65362,-6.26677 -10.67968,-9.10157 -5.3786,-5.03864 -8.57846,-7.54587 -9.63867,-7.55078 z m 469.91211,0.3418 c -0.22489,0.008 -0.41787,0.0668 -0.5254,0.17187 -0.21505,0.20977 0.16745,0.36032 0.84961,0.33008 0.75425,-0.0302 0.9089,-0.17952 0.39258,-0.38086 -0.23357,-0.0911 -0.49218,-0.13016 -0.71679,-0.12109 z m -24.70313,17.14648 c -0.40418,0.0189 -1.22836,0.20976 -2.5332,0.52539 -0.80576,0.19465 -3.00391,1.9336 -3.00391,1.9336 l -5.40234,3.77343 c -10.16172,7.09792 -24.01703,19.0451 -25.64453,22.11329 -1.49046,2.81011 -1.0436,2.73109 1.68945,-0.29688 3.07355,-3.40505 19.79556,-17.30922 25.42187,-21.13867 2.17248,-1.47863 4.17876,-2.46744 4.45703,-2.19531 0.0786,0.0767 0.86954,-0.84237 0.98047,-0.37696 l 0.19922,-0.5664 0.43946,-0.34766 2.21093,-1.85742 c 1.36751,-1.14871 1.85921,-1.59729 1.18555,-1.56641 z m -45.30664,23.29688 c -0.73383,-0.0752 -1.30531,0.5102 -2.21289,1.89453 -1.90171,2.90063 -12.2201,6.81993 -19.17969,7.28516 -2.80165,0.19074 -5.09375,0.17866 -5.09375,-0.0234 0,-0.45434 -2.77148,0.18554 -2.77148,0.18554 h -4.22657 c -4.38138,0 -6.5957,1.02357 -6.5957,3.04883 0,0.72408 0.38732,0.60424 1.58203,-0.49023 1.41612,-1.29732 1.96753,-1.40224 5.25391,-1.00196 l 3.67187,0.44727 -0.0957,0.69531 0.31641,-0.0703 2.50586,-0.20898 0.0332,-0.21094 5.13086,-0.49609 c 3.47796,-0.33601 7.16091,-1.27094 11.42773,-2.9043 l 6.29492,-2.41016 -0.006,0.0156 c 2.8617,-1.66621 5.86869,-3.23119 6.21875,-3.41211 0.35641,-0.5582 0.19883,-0.89863 -0.6504,-1.52539 -0.66367,-0.49006 -1.1632,-0.77327 -1.60351,-0.81836 z m -41.14063,5.69531 c -0.1353,-0.0151 -0.32313,-0.0173 -0.56445,0.008 -0.2759,0.0265 -0.62364,0.0807 -1.04687,0.16797 -1.20159,0.24718 -5.33546,1.43362 -9.18555,2.63672 l -7,2.1875 c 0,0 -2.80396,1.13438 -3.21094,1.29883 -0.14135,0.25134 -0.72604,0.56188 -1.45508,0.74023 -2.97225,0.72749 -11.18863,6.56586 -15.96289,11.34375 -5.20822,5.2122 -8.41406,10.21468 -8.41406,13.12696 0,2.51036 1.06097,2.26379 1.56641,-0.36329 1.05974,-5.50877 10.61076,-15.59204 19.33398,-20.4121 2.01593,-1.11406 3.42801,-1.87854 4.50586,-2.28907 l 1.08008,-0.86914 4.15039,-1.07617 -0.12891,-0.1875 4.65039,-1.59961 c 2.55716,-0.87908 6.17616,-2.06843 8.04102,-2.64258 3.01538,-0.9284 4.58872,-1.9533 3.64062,-2.07031 z m -21.00781,6.29883 c 0.0189,-0.034 0.0586,-0.0749 0.0586,-0.10742 0,-0.45457 -13.43465,5.27137 -24.3418,9.93164 11.8193,-4.78519 21.20746,-8.58144 24.2832,-9.82422 z m -24.2832,9.82422 c -9.60537,3.88883 -19.74622,7.99609 -19.79297,8.03906 -0.11225,0.1028 -1.95182,1.18495 -4.08789,2.4043 -2.13604,1.21931 -6.94162,4.81322 -10.67969,7.98632 -3.73814,3.17314 -7.30101,6.04493 -7.91601,6.38282 -1.96218,1.07811 -0.57548,-1.40542 2.01757,-3.61524 2.41958,-2.06169 2.4971,-3.37762 0.12696,-2.14062 -1.76595,0.92164 -6.06032,4.7164 -9.9961,7.47265 -2.72836,1.91086 -2.86581,1.94315 -2.59179,0.60157 0.27174,-1.33062 0.23885,-1.34513 -0.54688,-0.23633 -3.33203,4.70169 -4.37746,6.59562 -4.39258,7.97265 -0.0113,0.8679 -0.45167,3.13938 -0.98047,5.04883 -0.52852,1.90938 -1.24401,5.84702 -1.58984,8.75 -0.70492,5.9215 0.0302,8.39932 2.86328,9.65821 1.5145,0.67294 1.53011,0.79037 1.79883,12.7539 0.23395,10.42182 0.4641,12.58965 1.68164,15.82031 0.7759,2.05875 1.89025,4.25884 2.47656,4.89063 1.8965,2.04363 2.91426,1.39599 1.49414,-0.95117 -0.69879,-1.15503 -1.85539,-4.32364 -2.56835,-7.04297 -1.13386,-4.32223 -1.29688,-7.00208 -1.29688,-21.29297 0,-16.32197 -0.72743,-20.92135 -1.63281,-10.32227 -0.33033,3.86635 -0.67407,5.2344 -1.26367,5.01368 -1.82854,-0.68425 -2.32253,-3.3497 -1.62891,-8.79297 0.68345,-5.36315 3.54448,-16.07276 4.45508,-16.67578 0.27288,-0.18067 1.8151,-1.39537 3.42578,-2.69727 0.56356,-0.45551 1.028,-0.79534 1.48437,-1.12695 l 0.37696,-0.40821 0.12695,0.0293 c 1.58763,-1.09738 2.22889,-1.20747 1.18555,0.0195 -0.0631,0.0745 -0.11449,0.15658 -0.16992,0.23633 l 3.68554,0.92188 c 0.21014,-0.46209 0.41663,-0.8204 0.61328,-0.92774 0.52744,-0.288 4.37996,-3.39086 8.5625,-6.89648 8.82554,-7.39722 12.37425,-10.05744 13.99219,-8.95703 0.42059,-0.19238 0.84976,-0.33399 1.22461,-0.33399 0.67192,0 2.49951,-0.42039 4.16602,-0.83984 0.37077,-0.22602 0.86255,-0.44831 1.54101,-0.74024 3.20062,-1.37699 11.62525,-6.82392 11.63281,-7.52343 0.004,-0.27893 -0.21126,-0.39608 -0.47851,-0.25586 -0.26721,0.13984 -3.18753,1.75719 -6.49024,3.5957 -3.30259,1.83847 -6.14601,3.20687 -6.31836,3.03906 -0.17196,-0.16781 0.85553,-0.81941 2.28321,-1.44726 1.42768,-0.62778 2.5957,-1.52417 2.5957,-1.99219 0,-0.45097 -0.10779,-0.69453 -0.375,-0.75391 2.29561,-0.95497 6.46843,-2.73566 10.98633,-4.66601 z m -49.09766,77.34765 c -0.85742,5.7e-4 0.23621,4.88749 2.04883,8.82618 1.29109,2.80519 2.54127,4.30232 5.30078,6.34765 1.98577,1.47194 4.2259,3.56726 4.97852,4.65625 1.8949,2.74212 4.02385,9.79118 4.43945,14.69727 l 0.34766,4.10156 -1.94141,-3.78711 c -1.0684,-2.08301 -2.56301,-5.77488 -3.32031,-8.20508 -1.98815,-6.37878 -2.09519,-6.5606 -2.34766,-3.91406 -0.12586,1.31955 0.25815,3.87669 0.85547,5.68164 0.93078,2.81303 2.12351,5.45622 7.32422,16.22266 0.4193,0.86789 1.90702,3.421 3.30469,5.67382 1.47469,2.37638 2.08399,3.71765 1.93164,4.25782 l 2.30273,3.07226 c 0.2778,0.0915 0.48488,0.20486 0.6211,0.34961 0.43903,0.46689 3.02681,4.0399 5.75,7.93945 2.9896,4.28142 4.24083,6.29006 4.9121,8.27344 l 0.62696,0.94141 3.10937,2.89453 c 0.27364,0.19502 0.63596,0.49144 1.04883,0.87109 1.5134,1.39185 4.0687,6.3997 4.75586,9.03516 l 1.79102,4.20508 0.043,-0.12695 4.67969,9.1289 4.67774,9.13086 h -0.23438 l 1.03321,1.70117 0.46679,-0.0117 0.76563,1.83594 c 0.42111,1.00951 1.4212,3.67113 2.22265,5.91602 1.4352,4.01975 2.88282,5.69844 2.88282,3.34179 0,-0.66243 -0.72914,-3.29192 -1.61915,-5.84375 -0.63729,-1.82785 -1.08463,-3.16667 -1.34765,-3.99023 l -2.08594,-4.04102 c -0.39995,-0.4041 -0.82116,-0.92398 -1.28906,-1.59375 -3.12386,-4.47144 -9.27069,-17.61705 -9.06055,-19.37695 0.0529,-0.44466 0.13361,-0.71201 0.32031,-0.73242 0.41156,-0.045 1.33627,1.10248 3.60743,4.17187 2.39633,3.23861 7.32584,11.88567 9.29882,16.05079 l 1.44336,2.01953 2.16016,5.75781 c 0.60703,1.03937 1.32935,2.35591 2.25586,4.10156 2.16503,4.07925 4.42984,8.90779 5.0332,10.73047 0.59095,0.83807 0.98296,1.18767 1.22852,1.19727 l 47.74609,79.94531 -45.25586,-45.25586 -2.31054,2.31055 10.10351,10.10546 -0.0195,0.008 c 0,0 6.84792,16.95561 13.69336,34.23632 3.42274,8.64042 6.84834,17.36498 9.41211,24.08008 0.90226,2.3633 1.52614,4.0679 2.17773,5.8398 l -0.9082,0.6719 2.24805,3.0352 c 0.14224,0.42 0.3284,0.9493 0.42382,1.2539 0.0952,0.3042 0.16584,0.5453 0.20704,0.707 0.0412,0.1618 0.0391,0.3132 0.0391,0.074 0,0.358 0.0381,0.6796 0.10156,1.2325 0.0635,0.5527 0.15741,1.2684 0.27344,2.1347 0.23206,1.7327 0.55699,4.0555 0.95312,6.7676 0.79231,5.4241 1.85277,12.4036 2.90821,19.3047 2.08751,13.6491 4.13173,26.6789 4.17773,26.9726 -0.0639,0.2552 -2.19705,8.7917 -4.55469,17.9024 -0.39511,1.5269 -0.79019,3.0255 -1.18554,4.5312 l -0.39453,-0.1093 -3.22657,11.6855 -6.89453,-31.832 -11.05078,-31.1953 -14.26172,-57.05472 -3.59375,0.48828 c 0,0 0.4857,19.15774 0.97266,39.20504 0.48699,20.0474 0.97461,41.1061 0.97461,44.5118 0,1.2331 -0.74504,4.7277 -1.94727,8.7851 -1.20219,4.0574 -2.82031,8.8514 -4.4375,13.4199 -1.97397,5.5765 -2.70949,7.3714 -3.94922,10.6153 l -0.98828,-7.2266 -11.67187,-40.2031 -4.53321,-60.8477 -3.63086,0.2735 0.82618,11.1113 -9.75,53.207 -17.20899,19.7598 -31.66015,16.7949 -16.3418,9.5352 1.71875,-14.3184 7.96484,-9.1836 24.17578,-18.957 14.07032,-25.4531 -1.98633,-38.334 -13.14063,-60.46487 -18.20312,-16.25391 -6.36328,-25.42383 -1.9668,-1.94726 c -2.41273,-2.88795 -8.75978,-4.89476 -14.59961,-9.66016 -0.74555,-0.60839 -1.31753,-1.17632 -1.625,-1.57226 l -0.22656,-0.14649 -2.64063,-2.38867 -0.57031,0.0352 -6.45117,-6.23438 c -3.54747,-3.4292 -7.08982,-7.14411 -7.87305,-8.25586 l -1.42383,-2.02148 0.082,-0.0234 -1.21094,-1.43164 -1.35938,-2.83008 c -0.10242,-0.0695 -0.21518,-0.18432 -0.35351,-0.36914 -1.21217,-1.61639 -1.85538,-1.32108 -1.44727,0.66797 0.0847,0.41174 0.13609,0.72483 0.14063,0.9668 l 1.20312,3.42382 -0.29297,0.4043 c -0.0453,0.21695 -0.12571,0.39063 -0.24023,0.39063 -0.0113,0 -0.0219,-0.0117 -0.0332,-0.0117 l -0.082,0.10937 -3.08398,-3.4082 -0.67578,-0.49805 c -1.01057,-0.41612 -2.19693,-1.19769 -3.60352,-2.3789 l -2.45312,-2.06055 -0.57227,-0.41992 -3.125,-2.82813 v 0.004 l -1.63672,-1.48438 -9.76953,-8.83984 -0.79297,-2.96484 -0.57226,-2.13477 c -0.20296,0.12624 -0.40993,0.1442 -0.60156,0.0293 -0.0685,-0.0412 -0.12917,-0.0664 -0.1836,-0.0762 v 0.002 c -0.38091,-0.0684 -0.42167,0.65418 -0.16601,2.47265 0.1042,0.7375 0.15481,1.97488 0.16211,3.36915 0.031,-0.0646 0.12695,-0.31823 0.12695,-0.29102 0,0.0627 -0.0984,1.19981 -0.14258,1.77539 -0.0204,1.15646 -0.0593,2.34043 -0.13867,3.44141 l -0.39453,5.44336 -2.33203,0.39648 c -2.92865,0.4992 -8.13285,3.36533 -17.11133,9.42188 -3.52584,2.37845 -6.65966,4.20602 -7.42578,4.35546 l -0.26563,0.29493 -2.58398,1.20507 -0.28321,-0.13867 c -0.25171,0.0968 -0.64772,0.0303 -1.29492,-0.12695 -1.5597,-0.38177 -1.67552,-0.28447 -1.31836,1.10351 0.3309,1.28557 -0.0344,1.78166 -2.33398,3.17188 -1.49923,0.90633 -3.37495,1.9724 -4.16797,2.36914 -1.25941,0.63012 -1.39114,0.58132 -1.0332,-0.39648 0.22526,-0.61558 0.67004,-1.45024 0.98828,-1.85352 0.02,-0.0265 0.0272,-0.0505 0.0449,-0.0762 l 0.10742,-0.8418 c -0.0486,-0.0741 -0.1136,-0.14044 -0.20117,-0.19336 -0.34537,-0.20825 -1.55123,1.01272 -2.67969,2.71094 -1.12841,1.69826 -2.70422,3.37708 -3.5,3.73047 -0.91707,0.40751 -1.24412,0.47989 -1.32226,-0.16406 l -0.70508,-0.60352 -0.70508,-1.00781 c -0.10624,0.84215 -1.12096,1.38997 -4.64453,3.11914 -2.73634,1.34283 -5.52883,3.04055 -6.20703,3.77344 V 895 c -0.52216,0.56436 -0.99572,0.88408 -2.19922,1.07227 0.0396,0.0783 0.0853,0.15998 0.125,0.23828 l -0.17578,-0.25196 c 0,0 -6.42321,6.66741 -12.28321,12.03907 -2.92999,2.6858 -5.85779,5.44851 -8.07617,7.72851 -1.10919,1.13998 -2.03707,2.15868 -2.71484,3.00586 -0.33887,0.42361 -0.61538,0.80553 -0.82813,1.16602 -0.21275,0.36056 -0.41211,0.66187 -0.41211,1.22461 0,-0.12662 -0.0226,0.14549 -0.13281,0.48046 -0.11028,0.33525 -0.28501,0.79139 -0.50976,1.33594 -0.44949,1.08915 -1.10351,2.53415 -1.89063,4.19922 -1.57424,3.33014 -3.6871,7.54507 -5.79492,11.67969 -4.21565,8.26915 -8.42969,16.2168 -8.42969,16.2168 l -0.14062,0.26562 1.31445,23.02539 2.13281,-0.12695 -1.2832,-22.4336 c 0.13803,-0.26003 4.15546,-7.83006 8.31055,-15.98046 2.11295,-4.14463 4.22701,-8.37201 5.81836,-11.73829 0.79567,-1.68317 1.45978,-3.14685 1.93359,-4.29492 0.2369,-0.57403 0.42351,-1.06798 0.56055,-1.48437 0.13704,-0.41639 0.24414,-0.69299 0.24414,-1.14453 0,0.23811 -0.0126,0.079 0.11718,-0.14063 0.12968,-0.21959 0.35789,-0.53868 0.65821,-0.91406 0.60064,-0.7508 1.4938,-1.73718 2.57617,-2.84961 2.16474,-2.22486 5.07998,-4.97711 7.99414,-7.64844 5.80101,-5.31756 12.27874,-11.26616 12.33984,-11.32226 1.03134,0.002 1.87732,0.0141 2.76172,0.0215 1.42582,-0.72132 2.76925,-1.753 3.12891,-2.03711 l -0.53906,0.002 4.13867,-2.15039 c 2.2766,-1.18322 4.22211,-2.07338 4.32226,-1.97851 0.0753,0.0711 -0.20621,0.69253 -0.59375,1.42969 l 0.0234,-0.006 -2.75391,5.05078 -0.49414,0.35156 c -0.35202,0.71773 -2.07091,3.01729 -4.13281,5.50781 -2.31405,2.79511 -4.20703,5.21645 -4.20703,5.38086 0,0.16441 0.69767,0.30078 1.55078,0.30078 1.74815,0 4.06744,-2.32895 8.14453,-8.18359 l 2.65039,-3.80859 h 0.27149 l 1.17187,-2.06836 c -0.10189,-0.0113 -0.19531,-0.0245 -0.19531,-0.043 0,-0.15118 0.56772,-1.51391 1.26172,-3.02735 0.46292,-1.00947 0.94715,-1.75993 1.73437,-2.52929 l 0.50977,-1.06641 7.65039,-4.29492 3.4082,-2.02734 0.008,0.10937 0.18164,-0.10156 4.48437,-2.53516 c 1.01163,-0.98381 3.30104,-2.63412 7.02149,-5.14062 8.55685,-5.76473 15.19242,-9.45729 16.99023,-9.46485 0.36113,-6.8e-4 0.53302,0.20674 0.52344,0.64063 l 1.9414,-0.16797 c 0,0 0.83818,-4.4057 1.69141,-5.76172 l 0.20898,-1.00977 0.29688,0.58204 c 0.94397,-0.17575 1.86133,-0.62891 1.86133,-0.62891 l 0.27148,0.21875 c -0.11667,-0.26003 -0.20312,-0.46585 -0.20312,-0.51563 0,-0.0264 0.0314,-0.0302 0.0918,-0.002 0.42186,0.18784 2.24426,1.66546 4.41211,3.58985 1.16357,1.03282 2.06989,1.88441 2.75977,2.64062 l 0.002,0.002 6.95313,5.91602 0.17578,0.25195 c 0.78686,0.58023 1.65608,1.25634 2.58789,2.04883 4.13231,3.51451 4.83196,4.40128 4.77148,6.04492 -0.0378,1.05937 -0.0703,1.92162 -0.0703,1.91406 0,-0.008 -2.52057,-1.48253 -5.60156,-3.28125 -3.4091,-1.99026 -4.73,-2.77209 -5.17383,-3.58593 l -0.58594,-0.30469 -2.25976,-1.18359 c -0.0869,0.0979 -0.17038,0.16406 -0.24219,0.16406 -0.41337,0 -1.00429,-0.48316 -1.4375,-1.04688 l -2.87891,-1.50781 -0.42578,-0.21094 c 0.0586,0.27251 0.0395,0.40744 -0.12109,0.27735 -0.5755,-0.46466 -1.2273,-0.67133 -1.44727,-0.45703 -0.21985,0.21429 0.29388,0.93679 1.14063,1.60546 0.4168,0.3292 0.80385,0.82471 1.16211,1.46485 l 3.51953,1.91992 c 0.0113,-0.008 0.0199,-0.0276 0.0312,-0.0312 0.0442,-0.0151 0.0924,10e-4 0.14648,0.0527 0.0265,0.0265 0.0429,0.0735 0.0645,0.11133 l 2.36523,1.28906 0.0391,-0.0898 6.17578,3.60156 c 3.39704,1.98101 8.63168,4.99653 11.63282,6.70118 3.00113,1.70449 5.56454,3.41285 5.69531,3.79492 0.0423,0.12397 -0.0937,0.24328 -0.37305,0.35742 l 1.5625,1.20703 0.73828,2.11719 1.53711,1.62304 c 3.00461,3.17375 3.8235,2.96756 1.75977,-0.44335 l -1.47656,-2.43946 2.12304,1.47461 c 1.16788,0.81094 4.48539,4.14578 7.3711,7.41016 2.8857,3.26441 5.32512,5.93558 5.42187,5.93554 0.0968,0 0.63806,0.17234 1.20117,0.38282 1.85957,0.69585 1.09395,-1.23955 -2.02148,-5.11719 l -3.04297,-3.78711 3.20508,2.61914 c 1.76277,1.44023 4.08042,3.77575 5.14844,5.19141 1.25945,1.6693 2.45385,2.58228 3.39843,2.58984 0.12681,10e-4 0.24,-0.0106 0.35743,-0.0195 l 5.92578,23.71094 18.1582,16.20898 12.83008,59.01959 1.91211,36.9902 -13.20508,23.8945 -23.87305,18.7129 -8.91797,10.2988 -1.93359,16.084 -3.20508,2.791 0.58399,0.6739 -0.73047,0.4257 1.07031,1.8458 1.08594,-0.6329 0.38281,0.4414 2.31641,-2.0156 19.57812,-11.4199 31.9707,-16.9629 17.85743,-20.5 8.37695,-45.748 3.10156,41.6953 11.70703,40.3125 2.87305,21.0976 2.56055,-6.5254 c 0,0 3.25853,-8.2947 6.51757,-17.5019 1.62959,-4.6036 3.25544,-9.4368 4.48829,-13.5977 1.23288,-4.1609 2.10351,-7.4878 2.10351,-9.8261 0,-3.7373 -0.48562,-24.5516 -0.97265,-44.6016 -0.28234,-11.6217 -0.3809,-15.2638 -0.56836,-22.7285 l 10.3125,41.2363 11.02734,31.1426 8.41602,38.8437 3.54296,0.1035 5.18946,-18.83 -0.33203,-0.092 c 0.3991,-1.5223 0.79797,-3.0391 1.19726,-4.5821 2.39637,-9.2606 4.62696,-18.1894 4.62696,-18.1894 l 0.0742,-0.2871 -0.043,-0.2891 c 0,0 -2.11277,-13.4722 -4.22265,-27.2676 -1.05494,-6.8976 -2.11182,-13.8772 -2.90235,-19.289 -0.37595,-2.5748 -0.67698,-4.7222 -0.90429,-6.4063 l 31.08789,41.9864 8.23828,22.8105 4.88672,36.6816 3.31836,-6.6289 0.78711,0.096 0.27343,-2.2187 0.0801,-0.1582 -0.0566,-0.029 7.07032,-57.2109 -32.83594,-59.7559 -6.50782,-6.50783 -58.08593,-96.7832 -0.0469,0.35742 c -0.0688,-0.23257 -0.14963,-0.56403 -0.21093,-0.75781 -1.08934,-3.50854 -3.37124,-6.60239 -5.31055,-9.32031 -0.48858,-0.68478 -0.88867,-1.46647 -0.88867,-1.73633 h 0.002 c -0.60843,-0.85508 -1.46326,-1.98725 -1.47656,-2.38282 h -0.30078 l -2.50586,-5.52343 c -2.62371,-5.78136 -8.72439,-15.23834 -11.4043,-17.67969 -0.59119,-0.53855 -0.95371,-0.88531 -1.13672,-1.37695 -0.13606,-3.8e-4 -2.28891,-0.0113 -2.63281,-0.41797 l -0.0606,0.51172 -4.80469,-9.35743 c -2.64272,-5.14733 -4.80468,-9.75048 -4.80468,-10.22851 0,-1.35073 -3.43385,-8.31641 -4.09961,-8.31641 -0.32655,0 -0.41531,0.86869 -0.19727,1.93164 l 0.39649,1.9336 -1.69141,-1.96094 c -2.73116,-3.16509 -2.41367,-1.81889 0.80078,3.39648 1.64833,2.67432 2.86407,4.99323 2.70117,5.15235 -0.28951,0.28233 -6.88665,-9.07505 -7.55469,-10.65039 h -0.0156 l -2.27148,-3.1211 -0.20118,-0.008 -2.45703,-4.09375 c -2.13524,-3.55956 -2.34896,-4.26203 -1.63867,-5.37109 0.73527,-1.1483 0.68103,-1.2415 -0.54297,-0.92969 -1.62066,0.4134 -1.76937,-0.087 -2.27929,-7.76563 -0.43034,-6.47901 -2.95522,-15.12052 -5.29297,-18.10937 -0.93472,-1.19505 -3.16547,-3.19982 -4.95703,-4.45508 -2.6552,-1.86017 -3.65937,-3.13973 -5.42774,-6.92383 -1.19327,-2.55348 -2.16992,-5.03671 -2.16992,-5.51757 0,-0.48103 -0.33602,-1.07704 -0.7461,-1.32422 -0.0739,-0.0444 -0.13872,-0.0639 -0.19531,-0.0645 z m -58.39258,100.43555 c 0.25172,-0.0189 0.83514,0.38664 1.40039,0.99609 0.6463,0.69646 0.87557,1.26758 0.50782,1.26758 -0.81445,0 -2.42905,-1.80441 -1.99414,-2.22851 0.0227,-0.0227 0.05,-0.0332 0.0859,-0.0332 z m -1.48437,3.83984 c 0.71422,-0.0571 1.94569,0.67797 3.43555,2.13086 1.46899,1.43248 2.52796,2.58934 2.35547,2.57422 -1.00271,-0.0937 -6.4629,-3.24724 -6.4629,-3.73242 0,-0.61977 0.24339,-0.93853 0.67188,-0.97266 z m -103.70898,5.05079 v 0.002 c -0.50427,0.0541 -1.68743,0.88853 -2.8418,2.0332 l -1.98633,1.9707 -0.49805,0.83008 -2.58984,3.52149 c -0.0295,0.14324 -0.0704,0.28612 -0.12305,0.41992 -0.067,0.17008 -0.21502,0.31674 -0.4414,0.44336 l -2,3.39258 0.0703,0.008 -2.1543,5.36523 c -1.1853,2.95094 -2.16457,5.57944 -2.17969,5.83985 -0.0136,0.26041 0.6287,0.47045 1.42969,0.46289 1.23787,-0.0113 1.79802,-0.8867 3.73242,-5.83985 l 2.27735,-5.82812 0.17383,-0.002 0.77148,-1.92774 0.81055,-0.99023 c 0.34034,-0.635 1.36434,-2.18592 2.61914,-3.9375 3.77669,-5.27176 3.79964,-5.31563 3.10156,-5.73633 -0.0423,-0.0265 -0.0998,-0.0349 -0.17187,-0.0273 z m 114.36523,1.26171 1.7793,1.53125 c 0.97901,0.84167 1.78125,1.62332 1.78125,1.73633 0,0.49508 -0.52551,0.0911 -1.99219,-1.53125 z m -74.58008,9.65821 -1.28906,1.38672 -0.20313,0.2207 -0.0234,0.0156 -2.9668,3.07813 c -3.4382,3.56931 -6.70508,7.59657 -6.70508,8.26562 0,0.22715 0.656,0.41016 1.45703,0.41016 0.90887,-0.003 2.00235,-0.77334 2.91016,-2.05078 0.80005,-1.126 3.13167,-3.80552 5.17969,-5.95313 l 3.59179,-3.76757 v -1.37305 z m -56.26758,61.10547 -2.83593,0.57617 5.97265,29.18164 26.36719,16.47462 21.76172,21.1211 8.80078,20.7422 -9.58984,46.0039 -18.16016,24.5664 0.9668,-5.1953 -0.80664,-0.1485 8.5664,-25.6738 -3.95703,-29.6309 -24.78906,-36.541 -6.16016,-8.7988 -0.16601,-1.9336 -1.11719,0.098 -1.65039,-2.3575 -1.44727,1.0039 1.07227,1.5293 -1.24219,0.1094 4.52539,52.3672 -3.17383,26.0078 -10.63086,20.6387 -11.16406,8.5683 c 0.0382,-0.099 0.0672,-0.1637 0.10547,-0.2636 0.73584,-1.9214 1.47846,-3.9455 2.03906,-5.7207 0.5606,-1.7752 0.9668,-3.1961 0.9668,-4.3848 0,-0.5734 -0.0859,-1.6895 -0.22852,-3.4629 -0.1426,-1.7734 -0.34029,-4.1233 -0.58398,-6.8496 -0.48738,-5.4526 -1.13765,-12.4135 -1.78711,-19.2734 -1.29892,-13.7199 -2.59766,-27.0332 -2.59766,-27.0332 l -0.0293,-0.2891 -16.04102,-22.7539 -7.09375,46.0664 -7.29297,17.2305 c -0.29832,0.2566 -7.84914,6.7588 -16.16797,13.6699 -4.24074,3.5231 -8.60259,7.0863 -12.12695,9.834 -1.76218,1.3738 -3.3184,2.5376 -4.52539,3.3867 -1.20699,0.8491 -2.26161,1.4062 -2.18555,1.3809 l 1.15235,3.4628 c 1.05009,-0.3487 1.84572,-0.9453 3.13672,-1.8535 1.29099,-0.9081 2.87646,-2.1107 4.66601,-3.5058 3.5791,-2.7904 7.96028,-6.3623 12.2168,-9.8985 8.51304,-7.0724 16.52734,-13.9824 16.52734,-13.9824 l 0.32422,-0.2734 7.83398,-18.4981 5.21485,-42.9414 11.91797,19.5039 c 0.028,0.2861 1.28407,13.1633 2.56836,26.7285 0.64924,6.8577 1.30047,13.8233 1.78711,19.2676 0.24332,2.7222 0.44052,5.0603 0.58203,6.8203 0.1415,1.76 0.22265,3.0254 0.22265,3.2637 0,0.4347 -0.32223,1.9361 -0.85742,3.6309 -0.53518,1.6947 -1.25918,3.6806 -1.98437,5.5742 -0.60111,1.5696 -1.15638,2.9331 -1.6543,4.1543 l -0.61914,0.4746 0.2832,0.3691 c -0.54647,1.3286 -0.91211,2.1836 -0.91211,2.1836 l 2.31056,0.99 c 0,0 0.25933,-0.625 0.36328,-0.8711 l 0.63281,0.8261 16.46289,-12.6367 11.44141,-22.2207 3.32227,-27.2383 -4.09375,-47.4004 4.41015,6.2969 24.55274,36.1875 3.83789,28.8106 -8.50196,25.5293 -0.29687,-0.055 -2.11133,11.3613 2.58399,1.1211 22.26367,-30.1172 9.90039,-47.5098 -9.38281,-22.1152 -22.39649,-21.7402 -25.57812,-15.98244 z m 269.86133,2.44921 45.58008,45.58592 32.10352,58.4199 -5.7754,46.711 -2.53515,-19.0371 -8.65235,-23.9453 -37.70703,-50.9278 -0.5,0.3692 c -0.56665,-1.5238 -1.195,-3.194 -1.91211,-5.0723 -2.57204,-6.7368 -6.00077,-15.46321 -9.42578,-24.10938 -4.83399,-12.20291 -8.75105,-21.96356 -11.17578,-27.99414 z"
       style="color:#000000;font-style:normal;font-variant:normal;font-weight:normal;font-stretch:normal;font-size:medium;line-height:normal;font-family:sans-serif;font-variant-ligatures:normal;font-variant-position:normal;font-variant-caps:normal;font-variant-numeric:normal;font-variant-alternates:normal;font-feature-settings:normal;text-indent:0;text-align:start;text-decoration:none;text-decoration-line:none;text-decoration-style:solid;text-decoration-color:#000000;letter-spacing:normal;word-spacing:normal;text-transform:none;writing-mode:lr-tb;direction:ltr;text-orientation:mixed;dominant-baseline:auto;baseline-shift:baseline;text-anchor:start;white-space:normal;shape-padding:0;clip-rule:nonzero;display:inline;overflow:visible;visibility:visible;opacity:1;isolation:auto;mix-blend-mode:normal;color-interpolation:sRGB;color-interpolation-filters:linearRGB;solid-color:#000000;solid-opacity:1;vector-effect:none;fill:#000000;fill-opacity:1;fill-rule:nonzero;stroke:none;stroke-width:2.13543296;stroke-linecap:butt;stroke-linejoin:miter;stroke-miterlimit:4;stroke-dasharray:none;stroke-dashoffset:0;stroke-opacity:1;color-rendering:auto;image-rendering:auto;shape-rendering:auto;text-rendering:auto;enable-background:accumulate" />
  </g>
</svg>
