<?xml version="1.0" encoding="UTF-8" standalone="no"?>
<!-- Created with Inkscape (http://www.inkscape.org/) -->

<svg
   xmlns:dc="http://purl.org/dc/elements/1.1/"
   xmlns:cc="http://creativecommons.org/ns#"
   xmlns:rdf="http://www.w3.org/1999/02/22-rdf-syntax-ns#"
   xmlns:svg="http://www.w3.org/2000/svg"
   xmlns="http://www.w3.org/2000/svg"
   xmlns:sodipodi="http://sodipodi.sourceforge.net/DTD/sodipodi-0.dtd"
   xmlns:inkscape="http://www.inkscape.org/namespaces/inkscape"
   width="210mm"
   height="297mm"
   viewBox="0 0 210 297"
   version="1.1"
   id="svg8"
   inkscape:version="0.92.3 (2405546, 2018-03-11)"
   sodipodi:docname="Wolv_JDclr.svg">
  <defs
     id="defs2" />
  <sodipodi:namedview
     id="base"
     pagecolor="#ffffff"
     bordercolor="#666666"
     borderopacity="1.0"
     inkscape:pageopacity="0.0"
     inkscape:pageshadow="2"
     inkscape:zoom="0.54447222"
     inkscape:cx="339.84611"
     inkscape:cy="410.31583"
     inkscape:document-units="mm"
     inkscape:current-layer="g5187"
     showgrid="false"
     inkscape:snap-others="true"
     inkscape:object-nodes="true"
     inkscape:snap-nodes="true"
     inkscape:snap-global="false"
     inkscape:window-width="962"
     inkscape:window-height="577"
     inkscape:window-x="-8"
     inkscape:window-y="-8"
     inkscape:window-maximized="1" />
  <metadata
     id="metadata5">
    <rdf:RDF>
      <cc:Work
         rdf:about="">
        <dc:format>image/svg+xml</dc:format>
        <dc:type
           rdf:resource="http://purl.org/dc/dcmitype/StillImage" />
        <dc:title></dc:title>
      </cc:Work>
    </rdf:RDF>
  </metadata>
  <g
     style="display:inline"
     inkscape:label="JawDwn"
     id="g5187"
     inkscape:groupmode="layer">
    <path
       style="display:inline;fill:#b58f64;fill-opacity:1;stroke:none;stroke-width:0.26458332px;stroke-linecap:butt;stroke-linejoin:miter;stroke-opacity:1"
       d="m 95.353083,143.44717 0.300662,1.67512 -0.343614,0.77314 0.429519,3.17843 0.687229,1.20265 1.546267,1.54627 1.1597,1.20265 0.987894,0.12886 0.98789,0.25771 1.54627,0.94494 1.50331,0.85903 2.10464,0.043 1.58922,-0.90199 1.20265,-1.93284 0.60133,-1.63217 0.42951,-1.07379 0.64428,-1.71808 0.51542,-0.94493 -0.90199,1.15969 c 0,0 0.043,-1.11674 -0.12885,-1.07379 -0.17181,0.0429 -0.55837,0 -0.55837,0 l -0.47247,1.20265 -0.94494,0.90199 -0.64428,0.0859 -0.55838,0.90199 -0.90199,1.54627 -0.47247,-0.81609 -0.77313,-0.42951 -0.34361,-0.38657 -0.85904,0.12885 -0.77313,0.60133 -0.60133,-0.55837 -0.30066,-0.30067 -0.64428,0.60133 -1.03084,-0.68723 h -0.901992 l -0.343614,-1.11675 -0.687231,0.73018 -0.601324,0.34362 -0.816086,-1.76103 -0.773134,-1.80398 z"
       id="path5291"
       inkscape:connector-curvature="0" />
  </g>
</svg>
