<?xml version="1.0" encoding="UTF-8" standalone="no"?>
<svg
   xmlns:dc="http://purl.org/dc/elements/1.1/"
   xmlns:cc="http://creativecommons.org/ns#"
   xmlns:rdf="http://www.w3.org/1999/02/22-rdf-syntax-ns#"
   xmlns:svg="http://www.w3.org/2000/svg"
   xmlns="http://www.w3.org/2000/svg"
   id="svg8"
   version="1.1"
   viewBox="0 0 210 297"
   height="297mm"
   width="210mm">
  <defs
     id="defs2" />
  <metadata
     id="metadata5">
    <rdf:RDF>
      <cc:Work
         rdf:about="">
        <dc:format>image/svg+xml</dc:format>
        <dc:type
           rdf:resource="http://purl.org/dc/dcmitype/StillImage" />
        <dc:title></dc:title>
      </cc:Work>
    </rdf:RDF>
  </metadata>
  <g
     style="display:inline"
     id="g5177">
    <path
       id="path5175"
       transform="scale(0.26458333)"
       d="m 401.5,511.30859 c -0.053,-0.009 -0.10746,-0.008 -0.16211,0.006 -0.0729,0.0186 -0.14615,0.0568 -0.21484,0.11914 -0.63496,0.57619 2.9794,7.66514 8.45703,16.58985 l 4.26172,6.94336 -0.35157,4.89258 c -0.27639,3.84468 -0.16602,4.89257 0.51758,4.89257 0.85863,0 1.39201,1.69166 1.55664,4.8086 l 0.58789,0.88086 0.69922,-0.90821 c -0.15168,-2.91578 -0.40934,-4.60253 -0.85937,-5.45117 -0.52282,-0.98604 -0.94311,-2.44774 -0.93555,-3.24609 l 0.0117,-1.45117 1.26562,1.57812 c 1.21747,1.51793 1.26796,1.52817 1.2793,0.23633 0.0294,-2.74417 -2.0116,-6.79282 -10.11328,-20.04883 -2.94701,-4.82192 -5.47508,-9.08305 -5.61719,-9.46875 -0.0801,-0.21685 -0.22384,-0.34539 -0.38281,-0.37305 z m -42.76172,8.19336 c -1.01034,0 -1.47783,2.85686 -1.18945,7.27539 0.14661,2.24765 0.0338,4.08594 -0.25,4.08594 -0.88653,0 -0.56474,1.70138 0.48242,2.54883 0.54947,0.4447 2.91464,3.64951 5.25586,7.12305 3.22851,4.79002 4.43009,7.20594 4.97461,10 0.44141,2.26514 1.04576,3.68359 1.56836,3.68359 1.07233,0 3.0436,1.84381 3.61133,3.37891 0.24102,0.65162 0.82464,1.02466 1.31836,0.83984 0.48763,-0.18251 1.20163,-0.0249 1.58593,0.34961 0.50011,0.48733 1.01706,0.427 1.81836,-0.20899 0.60273,-0.47838 0.86284,-0.64812 0.88282,-0.46874 l 0.01,-0.0117 1.37891,-1.60743 0.6875,2.64063 0.16211,-0.0606 c 0.15585,-0.40876 0.38449,-0.75791 0.70703,-1.10547 1.02338,-1.10282 1.25022,-1.14054 1.73437,-0.29687 0.30633,0.53382 1.09376,0.96875 1.75,0.96875 0.6562,0 1.36156,0.42652 1.56641,0.94726 0.41325,1.04984 2.70958,1.28894 3.30859,0.34375 0.21041,-0.33222 0.7864,-0.45277 1.28125,-0.26757 0.49478,0.18542 1.50852,0.019 2.25196,-0.36914 1.14172,-0.59588 1.60049,-0.44296 2.95507,0.98242 1.15302,1.2133 1.83244,1.50934 2.41993,1.05273 1.29993,-1.01049 7.5628,-1.39855 7.1875,-0.44531 -0.16974,0.43162 0.003,0.97175 0.38281,1.20117 0.38037,0.22923 0.6914,0.1158 0.6914,-0.25195 0,-0.36764 0.45478,-0.66797 1.00977,-0.66797 0.55196,0 0.81674,-0.30306 0.58203,-0.67383 -0.23471,-0.37051 -0.0718,-2.51282 0.36328,-4.76172 0.78063,-4.03268 0.48027,-5.82331 -0.67578,-4.01367 -0.32625,0.51069 -0.78268,2.1383 -1.01172,3.61719 -0.43192,2.78521 -0.32475,2.70782 -4.95898,3.60156 -0.62264,0.12023 -1.30353,-0.0533 -1.51367,-0.38476 -0.23112,-0.36443 -0.75211,-0.30195 -1.31836,0.15624 -0.74861,0.6059 -1.18515,0.49608 -2.17969,-0.54492 -1.45501,-1.52311 -6.66856,-1.7664 -7.85938,-0.36718 -0.95622,1.12346 -1.85546,1.07537 -1.85546,-0.0996 0,-0.52604 -0.57572,-0.94727 -1.29493,-0.94727 -0.84994,0 -1.29492,-0.42025 -1.29492,-1.22461 0,-1.92881 -1.24964,-2.19282 -2.96094,-0.625 l -1.57031,1.4375 v -1.37109 c 0,-1.50093 -1.23392,-1.80987 -2.45898,-0.61524 -0.60403,0.58912 -0.77735,0.51815 -0.77735,-0.3164 0,-0.59021 -0.40497,-1.07227 -0.90039,-1.07227 -0.49542,0 -1.08048,-0.69547 -1.29882,-1.54492 -0.21865,-0.84949 -2.58814,-4.71355 -5.26563,-8.58594 -2.67753,-3.87246 -5.30418,-7.8628 -5.83789,-8.86914 -0.95373,-1.7986 -2.23242,-2.46733 -2.23242,-1.16797 0,0.36393 0.55785,1.78488 1.23828,3.15821 0.68149,1.37336 0.99805,2.3531 0.70703,2.17773 -0.29102,-0.17541 -1.42982,-2.19699 -2.53125,-4.49219 -1.70773,-3.55846 -2.00195,-4.9068 -2.00195,-9.15234 0,-2.83397 -0.27345,-4.97852 -0.63477,-4.97852 z m 45.70117,15.89844 c -0.0613,-9.3e-4 -0.11052,0.0157 -0.14453,0.0488 -0.22314,0.21762 0.63124,1.62869 1.89844,3.13672 2.06332,2.45548 4.01417,7.50995 3.20312,8.30078 -0.17159,0.16762 -0.12142,0.60812 0.11329,0.97851 1.66998,2.63502 2.35605,-3.74587 0.72851,-6.77539 -1.07607,-2.00299 -4.87915,-5.67555 -5.79883,-5.68945 z m -12.50976,2.40625 c -1.8045,0 -2.29675,0.36052 -3.41602,2.5 -1.69557,3.24068 -1.64876,3.8125 0.31055,3.8125 1.05536,0 1.61719,0.35349 1.61719,1.01563 0,0.73288 -0.40557,0.91987 -1.45703,0.67382 -4.79169,-1.12184 -6.47374,-1.21886 -6.17969,-0.35547 0.16373,0.48095 2.13011,1.35949 4.36914,1.95118 2.23907,0.59164 4.56856,1.51307 5.17578,2.04882 0.60718,0.53587 2.4779,1.22511 4.1582,1.53126 1.68038,0.30603 3.23631,0.73378 3.45703,0.94921 0.22088,0.21532 0.98159,0.39063 1.68946,0.39063 1.2014,0 1.21507,-0.0753 0.22461,-1.14258 -0.85161,-0.91767 -0.93516,-1.57189 -0.42383,-3.31055 0.87239,-2.9656 0.80003,-5.01367 -0.17774,-5.01367 -0.44866,0 -1.54136,-0.64966 -2.42773,-1.44336 -2.9596,-2.65009 -4.79424,-3.60742 -6.91992,-3.60742 z m -27.10938,1.3457 c 0.14994,8.4e-4 0.81418,0.81489 1.91797,2.44141 v 0.002 c 0.9425,1.38864 1.49088,2.52203 1.21875,2.51953 -0.27205,-0.003 -1.15905,-1.13936 -1.9707,-2.52539 -0.95193,-1.62608 -1.31595,-2.43833 -1.16602,-2.4375 z m 28.09375,0.31055 c 0.24131,-0.005 0.48496,0.0951 0.76367,0.28906 0.803,0.55854 0.81824,0.735 0.082,1.02149 -0.48953,0.19056 -1.43602,0.8803 -2.10352,1.53125 -1.60471,1.56453 -1.67384,-0.0316 -0.082,-1.89844 0.54201,-0.63588 0.93767,-0.93543 1.33984,-0.94336 z m -0.35742,4.11719 c 0.1308,-0.0634 0.38008,0.2416 0.86524,0.85547 0.54867,0.69437 1.27866,1.75767 1.62109,2.36523 0.34242,0.60752 0.53879,1.08531 0.4375,1.06641 -2.10493,-0.45623 -3.09129,-1.40296 -3.07617,-2.93946 0.01,-0.85396 0.0216,-1.28424 0.15234,-1.34765 z m -22.58789,3.27344 c 0.37527,-0.0255 1.24084,1.33845 2.94141,4.48242 1.11409,2.05965 1.89626,4.04719 1.73828,4.41797 -0.15799,0.3705 -0.31144,0.17787 -0.33789,-0.42969 -0.0281,-0.60756 -0.45486,-1.10547 -0.94922,-1.10547 -0.51738,0 -1.08177,-0.95155 -1.33008,-2.24219 -0.23724,-1.23333 -0.85279,-2.39942 -1.36719,-2.59179 -0.51435,-0.1925 -0.93554,-0.94523 -0.93554,-1.67188 0,-0.54888 0.0697,-0.84778 0.24023,-0.85937 z m 29.13086,0.53906 c 0.0442,-0.0158 0.0947,6.2e-4 0.14844,0.0527 0.21505,0.20973 0.23727,0.75532 0.0508,1.21094 -0.20697,0.50362 -0.36039,0.35445 -0.39063,-0.38086 -0.0213,-0.49918 0.059,-0.8353 0.19141,-0.88281 z m -11.86133,0.66797 c -0.13752,0.0115 -0.29771,0.0519 -0.48242,0.12109 -0.60359,0.22587 -2.47723,0.85126 -4.16211,1.38867 -3.74948,1.19592 -4.97109,3.02516 -1.60937,2.41016 1.55293,-0.28415 2.89277,-0.0285 4.68359,0.89258 1.37945,0.70949 3.52744,1.29309 4.77344,1.29687 2.13048,0.007 2.19132,-0.0465 1.00976,-0.91797 -0.69105,-0.5097 -1.71064,-0.93788 -2.26562,-0.94922 -0.55495,-0.0123 -1.71556,-0.40312 -2.57813,-0.86914 l -1.56836,-0.84765 1.40625,-0.43555 c 0.7736,-0.23943 1.40821,-0.8737 1.40821,-1.4082 0,-0.49088 -0.20269,-0.71612 -0.61524,-0.68164 z m 23.91602,1.10742 c -0.36125,0 -0.65247,1.74253 -0.65625,3.94531 -0.005,2.16983 -0.27854,4.35909 -0.60547,4.86328 -0.32635,0.50326 -0.45755,1.12789 -0.29297,1.39063 0.16588,0.26192 0.72932,0.31649 1.25195,0.12109 0.0728,-0.0272 0.13618,-0.0741 0.19922,-0.12305 l 0.4336,-0.74023 c 0.23184,-0.78093 0.31835,-2.15076 0.31835,-4.47461 0,-2.90064 -0.27161,-4.98242 -0.64843,-4.98242 z"
       style="display:inline;fill:#000000;stroke-width:0.63920003" />
  </g>
</svg>
